<svg width="355" height="274" viewBox="0 0 355 274" fill="none" xmlns="http://www.w3.org/2000/svg">
<g clip-path="url(#clip0_322_6662)">
<g opacity="0.1">
<circle cx="3" cy="2" r="1" fill="#D9D9D9"/>
<circle cx="13" cy="2" r="1" fill="#D9D9D9"/>
<circle cx="23" cy="2" r="1" fill="#D9D9D9"/>
<circle cx="33" cy="2" r="1" fill="#D9D9D9"/>
<circle cx="43" cy="2" r="1" fill="#D9D9D9"/>
<circle cx="53" cy="2" r="1" fill="#D9D9D9"/>
<circle cx="63" cy="2" r="1" fill="#D9D9D9"/>
<circle cx="73" cy="2" r="1" fill="#D9D9D9"/>
<circle cx="83" cy="2" r="1" fill="#D9D9D9"/>
<circle cx="93" cy="2" r="1" fill="#D9D9D9"/>
<circle cx="103" cy="2" r="1" fill="#D9D9D9"/>
<circle cx="113" cy="2" r="1" fill="#D9D9D9"/>
<circle cx="123" cy="2" r="1" fill="#D9D9D9"/>
<circle cx="133" cy="2" r="1" fill="#D9D9D9"/>
<circle cx="143" cy="2" r="1" fill="#D9D9D9"/>
<circle cx="153" cy="2" r="1" fill="#D9D9D9"/>
<circle cx="163" cy="2" r="1" fill="#D9D9D9"/>
<circle cx="173" cy="2" r="1" fill="#D9D9D9"/>
<circle cx="183" cy="2" r="1" fill="#D9D9D9"/>
<circle cx="193" cy="2" r="1" fill="#D9D9D9"/>
<circle cx="203" cy="2" r="1" fill="#D9D9D9"/>
<circle cx="213" cy="2" r="1" fill="#D9D9D9"/>
<circle cx="223" cy="2" r="1" fill="#D9D9D9"/>
<circle cx="233" cy="2" r="1" fill="#D9D9D9"/>
<circle cx="243" cy="2" r="1" fill="#D9D9D9"/>
<circle cx="253" cy="2" r="1" fill="#D9D9D9"/>
<circle cx="263" cy="2" r="1" fill="#D9D9D9"/>
<circle cx="273" cy="2" r="1" fill="#D9D9D9"/>
<circle cx="283" cy="2" r="1" fill="#D9D9D9"/>
<circle cx="293" cy="2" r="1" fill="#D9D9D9"/>
<circle cx="303" cy="2" r="1" fill="#D9D9D9"/>
<circle cx="313" cy="2" r="1" fill="#D9D9D9"/>
<circle cx="323" cy="2" r="1" fill="#D9D9D9"/>
<circle cx="333" cy="2" r="1" fill="#D9D9D9"/>
<circle cx="343" cy="2" r="1" fill="#D9D9D9"/>
<circle cx="353" cy="2" r="1" fill="#D9D9D9"/>
<circle cx="3" cy="12" r="1" fill="#D9D9D9"/>
<circle cx="13" cy="12" r="1" fill="#D9D9D9"/>
<circle cx="23" cy="12" r="1" fill="#D9D9D9"/>
<circle cx="33" cy="12" r="1" fill="#D9D9D9"/>
<circle cx="43" cy="12" r="1" fill="#D9D9D9"/>
<circle cx="53" cy="12" r="1" fill="#D9D9D9"/>
<circle cx="63" cy="12" r="1" fill="#D9D9D9"/>
<circle cx="73" cy="12" r="1" fill="#D9D9D9"/>
<circle cx="83" cy="12" r="1" fill="#D9D9D9"/>
<circle cx="93" cy="12" r="1" fill="#D9D9D9"/>
<circle cx="103" cy="12" r="1" fill="#D9D9D9"/>
<circle cx="113" cy="12" r="1" fill="#D9D9D9"/>
<circle cx="123" cy="12" r="1" fill="#D9D9D9"/>
<circle cx="133" cy="12" r="1" fill="#D9D9D9"/>
<circle cx="143" cy="12" r="1" fill="#D9D9D9"/>
<circle cx="153" cy="12" r="1" fill="#D9D9D9"/>
<circle cx="163" cy="12" r="1" fill="#D9D9D9"/>
<circle cx="173" cy="12" r="1" fill="#D9D9D9"/>
<circle cx="183" cy="12" r="1" fill="#D9D9D9"/>
<circle cx="193" cy="12" r="1" fill="#D9D9D9"/>
<circle cx="203" cy="12" r="1" fill="#D9D9D9"/>
<circle cx="213" cy="12" r="1" fill="#D9D9D9"/>
<circle cx="223" cy="12" r="1" fill="#D9D9D9"/>
<circle cx="233" cy="12" r="1" fill="#D9D9D9"/>
<circle cx="243" cy="12" r="1" fill="#D9D9D9"/>
<circle cx="253" cy="12" r="1" fill="#D9D9D9"/>
<circle cx="263" cy="12" r="1" fill="#D9D9D9"/>
<circle cx="273" cy="12" r="1" fill="#D9D9D9"/>
<circle cx="283" cy="12" r="1" fill="#D9D9D9"/>
<circle cx="293" cy="12" r="1" fill="#D9D9D9"/>
<circle cx="303" cy="12" r="1" fill="#D9D9D9"/>
<circle cx="313" cy="12" r="1" fill="#D9D9D9"/>
<circle cx="323" cy="12" r="1" fill="#D9D9D9"/>
<circle cx="333" cy="12" r="1" fill="#D9D9D9"/>
<circle cx="343" cy="12" r="1" fill="#D9D9D9"/>
<circle cx="353" cy="12" r="1" fill="#D9D9D9"/>
<circle cx="3" cy="22" r="1" fill="#D9D9D9"/>
<circle cx="13" cy="22" r="1" fill="#D9D9D9"/>
<circle cx="23" cy="22" r="1" fill="#D9D9D9"/>
<circle cx="33" cy="22" r="1" fill="#D9D9D9"/>
<circle cx="43" cy="22" r="1" fill="#D9D9D9"/>
<circle cx="53" cy="22" r="1" fill="#D9D9D9"/>
<circle cx="63" cy="22" r="1" fill="#D9D9D9"/>
<circle cx="73" cy="22" r="1" fill="#D9D9D9"/>
<circle cx="83" cy="22" r="1" fill="#D9D9D9"/>
<circle cx="93" cy="22" r="1" fill="#D9D9D9"/>
<circle cx="103" cy="22" r="1" fill="#D9D9D9"/>
<circle cx="113" cy="22" r="1" fill="#D9D9D9"/>
<circle cx="123" cy="22" r="1" fill="#D9D9D9"/>
<circle cx="133" cy="22" r="1" fill="#D9D9D9"/>
<circle cx="143" cy="22" r="1" fill="#D9D9D9"/>
<circle cx="153" cy="22" r="1" fill="#D9D9D9"/>
<circle cx="163" cy="22" r="1" fill="#D9D9D9"/>
<circle cx="173" cy="22" r="1" fill="#D9D9D9"/>
<circle cx="183" cy="22" r="1" fill="#D9D9D9"/>
<circle cx="193" cy="22" r="1" fill="#D9D9D9"/>
<circle cx="203" cy="22" r="1" fill="#D9D9D9"/>
<circle cx="213" cy="22" r="1" fill="#D9D9D9"/>
<circle cx="223" cy="22" r="1" fill="#D9D9D9"/>
<circle cx="233" cy="22" r="1" fill="#D9D9D9"/>
<circle cx="243" cy="22" r="1" fill="#D9D9D9"/>
<circle cx="253" cy="22" r="1" fill="#D9D9D9"/>
<circle cx="263" cy="22" r="1" fill="#D9D9D9"/>
<circle cx="273" cy="22" r="1" fill="#D9D9D9"/>
<circle cx="283" cy="22" r="1" fill="#D9D9D9"/>
<circle cx="293" cy="22" r="1" fill="#D9D9D9"/>
<circle cx="303" cy="22" r="1" fill="#D9D9D9"/>
<circle cx="313" cy="22" r="1" fill="#D9D9D9"/>
<circle cx="323" cy="22" r="1" fill="#D9D9D9"/>
<circle cx="333" cy="22" r="1" fill="#D9D9D9"/>
<circle cx="343" cy="22" r="1" fill="#D9D9D9"/>
<circle cx="353" cy="22" r="1" fill="#D9D9D9"/>
<circle cx="3" cy="32" r="1" fill="#D9D9D9"/>
<circle cx="13" cy="32" r="1" fill="#D9D9D9"/>
<circle cx="23" cy="32" r="1" fill="#D9D9D9"/>
<circle cx="33" cy="32" r="1" fill="#D9D9D9"/>
<circle cx="43" cy="32" r="1" fill="#D9D9D9"/>
<circle cx="53" cy="32" r="1" fill="#D9D9D9"/>
<circle cx="63" cy="32" r="1" fill="#D9D9D9"/>
<circle cx="73" cy="32" r="1" fill="#D9D9D9"/>
<circle cx="83" cy="32" r="1" fill="#D9D9D9"/>
<circle cx="93" cy="32" r="1" fill="#D9D9D9"/>
<circle cx="103" cy="32" r="1" fill="#D9D9D9"/>
<circle cx="113" cy="32" r="1" fill="#D9D9D9"/>
<circle cx="123" cy="32" r="1" fill="#D9D9D9"/>
<circle cx="133" cy="32" r="1" fill="#D9D9D9"/>
<circle cx="143" cy="32" r="1" fill="#D9D9D9"/>
<circle cx="153" cy="32" r="1" fill="#D9D9D9"/>
<circle cx="163" cy="32" r="1" fill="#D9D9D9"/>
<circle cx="173" cy="32" r="1" fill="#D9D9D9"/>
<circle cx="183" cy="32" r="1" fill="#D9D9D9"/>
<circle cx="193" cy="32" r="1" fill="#D9D9D9"/>
<circle cx="203" cy="32" r="1" fill="#D9D9D9"/>
<circle cx="213" cy="32" r="1" fill="#D9D9D9"/>
<circle cx="223" cy="32" r="1" fill="#D9D9D9"/>
<circle cx="233" cy="32" r="1" fill="#D9D9D9"/>
<circle cx="243" cy="32" r="1" fill="#D9D9D9"/>
<circle cx="253" cy="32" r="1" fill="#D9D9D9"/>
<circle cx="263" cy="32" r="1" fill="#D9D9D9"/>
<circle cx="273" cy="32" r="1" fill="#D9D9D9"/>
<circle cx="283" cy="32" r="1" fill="#D9D9D9"/>
<circle cx="293" cy="32" r="1" fill="#D9D9D9"/>
<circle cx="303" cy="32" r="1" fill="#D9D9D9"/>
<circle cx="313" cy="32" r="1" fill="#D9D9D9"/>
<circle cx="323" cy="32" r="1" fill="#D9D9D9"/>
<circle cx="333" cy="32" r="1" fill="#D9D9D9"/>
<circle cx="343" cy="32" r="1" fill="#D9D9D9"/>
<circle cx="353" cy="32" r="1" fill="#D9D9D9"/>
<circle cx="3" cy="42" r="1" fill="#D9D9D9"/>
<circle cx="13" cy="42" r="1" fill="#D9D9D9"/>
<circle cx="23" cy="42" r="1" fill="#D9D9D9"/>
<circle cx="33" cy="42" r="1" fill="#D9D9D9"/>
<circle cx="43" cy="42" r="1" fill="#D9D9D9"/>
<circle cx="53" cy="42" r="1" fill="#D9D9D9"/>
<circle cx="63" cy="42" r="1" fill="#D9D9D9"/>
<circle cx="73" cy="42" r="1" fill="#D9D9D9"/>
<circle cx="83" cy="42" r="1" fill="#D9D9D9"/>
<circle cx="93" cy="42" r="1" fill="#D9D9D9"/>
<circle cx="103" cy="42" r="1" fill="#D9D9D9"/>
<circle cx="113" cy="42" r="1" fill="#D9D9D9"/>
<circle cx="123" cy="42" r="1" fill="#D9D9D9"/>
<circle cx="133" cy="42" r="1" fill="#D9D9D9"/>
<circle cx="143" cy="42" r="1" fill="#D9D9D9"/>
<circle cx="153" cy="42" r="1" fill="#D9D9D9"/>
<circle cx="163" cy="42" r="1" fill="#D9D9D9"/>
<circle cx="173" cy="42" r="1" fill="#D9D9D9"/>
<circle cx="183" cy="42" r="1" fill="#D9D9D9"/>
<circle cx="193" cy="42" r="1" fill="#D9D9D9"/>
<circle cx="203" cy="42" r="1" fill="#D9D9D9"/>
<circle cx="213" cy="42" r="1" fill="#D9D9D9"/>
<circle cx="223" cy="42" r="1" fill="#D9D9D9"/>
<circle cx="233" cy="42" r="1" fill="#D9D9D9"/>
<circle cx="243" cy="42" r="1" fill="#D9D9D9"/>
<circle cx="253" cy="42" r="1" fill="#D9D9D9"/>
<circle cx="263" cy="42" r="1" fill="#D9D9D9"/>
<circle cx="273" cy="42" r="1" fill="#D9D9D9"/>
<circle cx="283" cy="42" r="1" fill="#D9D9D9"/>
<circle cx="293" cy="42" r="1" fill="#D9D9D9"/>
<circle cx="303" cy="42" r="1" fill="#D9D9D9"/>
<circle cx="313" cy="42" r="1" fill="#D9D9D9"/>
<circle cx="323" cy="42" r="1" fill="#D9D9D9"/>
<circle cx="333" cy="42" r="1" fill="#D9D9D9"/>
<circle cx="343" cy="42" r="1" fill="#D9D9D9"/>
<circle cx="353" cy="42" r="1" fill="#D9D9D9"/>
<circle cx="3" cy="52" r="1" fill="#D9D9D9"/>
<circle cx="13" cy="52" r="1" fill="#D9D9D9"/>
<circle cx="23" cy="52" r="1" fill="#D9D9D9"/>
<circle cx="33" cy="52" r="1" fill="#D9D9D9"/>
<circle cx="43" cy="52" r="1" fill="#D9D9D9"/>
<circle cx="53" cy="52" r="1" fill="#D9D9D9"/>
<circle cx="63" cy="52" r="1" fill="#D9D9D9"/>
<circle cx="73" cy="52" r="1" fill="#D9D9D9"/>
<circle cx="83" cy="52" r="1" fill="#D9D9D9"/>
<circle cx="93" cy="52" r="1" fill="#D9D9D9"/>
<circle cx="103" cy="52" r="1" fill="#D9D9D9"/>
<circle cx="113" cy="52" r="1" fill="#D9D9D9"/>
<circle cx="123" cy="52" r="1" fill="#D9D9D9"/>
<circle cx="133" cy="52" r="1" fill="#D9D9D9"/>
<circle cx="143" cy="52" r="1" fill="#D9D9D9"/>
<circle cx="153" cy="52" r="1" fill="#D9D9D9"/>
<circle cx="163" cy="52" r="1" fill="#D9D9D9"/>
<circle cx="173" cy="52" r="1" fill="#D9D9D9"/>
<circle cx="183" cy="52" r="1" fill="#D9D9D9"/>
<circle cx="193" cy="52" r="1" fill="#D9D9D9"/>
<circle cx="203" cy="52" r="1" fill="#D9D9D9"/>
<circle cx="213" cy="52" r="1" fill="#D9D9D9"/>
<circle cx="223" cy="52" r="1" fill="#D9D9D9"/>
<circle cx="233" cy="52" r="1" fill="#D9D9D9"/>
<circle cx="243" cy="52" r="1" fill="#D9D9D9"/>
<circle cx="253" cy="52" r="1" fill="#D9D9D9"/>
<circle cx="263" cy="52" r="1" fill="#D9D9D9"/>
<circle cx="273" cy="52" r="1" fill="#D9D9D9"/>
<circle cx="283" cy="52" r="1" fill="#D9D9D9"/>
<circle cx="293" cy="52" r="1" fill="#D9D9D9"/>
<circle cx="303" cy="52" r="1" fill="#D9D9D9"/>
<circle cx="313" cy="52" r="1" fill="#D9D9D9"/>
<circle cx="323" cy="52" r="1" fill="#D9D9D9"/>
<circle cx="333" cy="52" r="1" fill="#D9D9D9"/>
<circle cx="343" cy="52" r="1" fill="#D9D9D9"/>
<circle cx="353" cy="52" r="1" fill="#D9D9D9"/>
<circle cx="3" cy="62" r="1" fill="#D9D9D9"/>
<circle cx="13" cy="62" r="1" fill="#D9D9D9"/>
<circle cx="23" cy="62" r="1" fill="#D9D9D9"/>
<circle cx="33" cy="62" r="1" fill="#D9D9D9"/>
<circle cx="43" cy="62" r="1" fill="#D9D9D9"/>
<circle cx="53" cy="62" r="1" fill="#D9D9D9"/>
<circle cx="63" cy="62" r="1" fill="#D9D9D9"/>
<circle cx="73" cy="62" r="1" fill="#D9D9D9"/>
<circle cx="83" cy="62" r="1" fill="#D9D9D9"/>
<circle cx="93" cy="62" r="1" fill="#D9D9D9"/>
<circle cx="103" cy="62" r="1" fill="#D9D9D9"/>
<circle cx="113" cy="62" r="1" fill="#D9D9D9"/>
<circle cx="123" cy="62" r="1" fill="#D9D9D9"/>
<circle cx="133" cy="62" r="1" fill="#D9D9D9"/>
<circle cx="143" cy="62" r="1" fill="#D9D9D9"/>
<circle cx="153" cy="62" r="1" fill="#D9D9D9"/>
<circle cx="163" cy="62" r="1" fill="#D9D9D9"/>
<circle cx="173" cy="62" r="1" fill="#D9D9D9"/>
<circle cx="183" cy="62" r="1" fill="#D9D9D9"/>
<circle cx="193" cy="62" r="1" fill="#D9D9D9"/>
<circle cx="203" cy="62" r="1" fill="#D9D9D9"/>
<circle cx="213" cy="62" r="1" fill="#D9D9D9"/>
<circle cx="223" cy="62" r="1" fill="#D9D9D9"/>
<circle cx="233" cy="62" r="1" fill="#D9D9D9"/>
<circle cx="243" cy="62" r="1" fill="#D9D9D9"/>
<circle cx="253" cy="62" r="1" fill="#D9D9D9"/>
<circle cx="263" cy="62" r="1" fill="#D9D9D9"/>
<circle cx="273" cy="62" r="1" fill="#D9D9D9"/>
<circle cx="283" cy="62" r="1" fill="#D9D9D9"/>
<circle cx="293" cy="62" r="1" fill="#D9D9D9"/>
<circle cx="303" cy="62" r="1" fill="#D9D9D9"/>
<circle cx="313" cy="62" r="1" fill="#D9D9D9"/>
<circle cx="323" cy="62" r="1" fill="#D9D9D9"/>
<circle cx="333" cy="62" r="1" fill="#D9D9D9"/>
<circle cx="343" cy="62" r="1" fill="#D9D9D9"/>
<circle cx="353" cy="62" r="1" fill="#D9D9D9"/>
<circle cx="3" cy="72" r="1" fill="#D9D9D9"/>
<circle cx="13" cy="72" r="1" fill="#D9D9D9"/>
<circle cx="23" cy="72" r="1" fill="#D9D9D9"/>
<circle cx="33" cy="72" r="1" fill="#D9D9D9"/>
<circle cx="43" cy="72" r="1" fill="#D9D9D9"/>
<circle cx="53" cy="72" r="1" fill="#D9D9D9"/>
<circle cx="63" cy="72" r="1" fill="#D9D9D9"/>
<circle cx="73" cy="72" r="1" fill="#D9D9D9"/>
<circle cx="83" cy="72" r="1" fill="#D9D9D9"/>
<circle cx="93" cy="72" r="1" fill="#D9D9D9"/>
<circle cx="103" cy="72" r="1" fill="#D9D9D9"/>
<circle cx="113" cy="72" r="1" fill="#D9D9D9"/>
<circle cx="123" cy="72" r="1" fill="#D9D9D9"/>
<circle cx="133" cy="72" r="1" fill="#D9D9D9"/>
<circle cx="143" cy="72" r="1" fill="#D9D9D9"/>
<circle cx="153" cy="72" r="1" fill="#D9D9D9"/>
<circle cx="163" cy="72" r="1" fill="#D9D9D9"/>
<circle cx="173" cy="72" r="1" fill="#D9D9D9"/>
<circle cx="183" cy="72" r="1" fill="#D9D9D9"/>
<circle cx="193" cy="72" r="1" fill="#D9D9D9"/>
<circle cx="203" cy="72" r="1" fill="#D9D9D9"/>
<circle cx="213" cy="72" r="1" fill="#D9D9D9"/>
<circle cx="223" cy="72" r="1" fill="#D9D9D9"/>
<circle cx="233" cy="72" r="1" fill="#D9D9D9"/>
<circle cx="243" cy="72" r="1" fill="#D9D9D9"/>
<circle cx="253" cy="72" r="1" fill="#D9D9D9"/>
<circle cx="263" cy="72" r="1" fill="#D9D9D9"/>
<circle cx="273" cy="72" r="1" fill="#D9D9D9"/>
<circle cx="283" cy="72" r="1" fill="#D9D9D9"/>
<circle cx="293" cy="72" r="1" fill="#D9D9D9"/>
<circle cx="303" cy="72" r="1" fill="#D9D9D9"/>
<circle cx="313" cy="72" r="1" fill="#D9D9D9"/>
<circle cx="323" cy="72" r="1" fill="#D9D9D9"/>
<circle cx="333" cy="72" r="1" fill="#D9D9D9"/>
<circle cx="343" cy="72" r="1" fill="#D9D9D9"/>
<circle cx="353" cy="72" r="1" fill="#D9D9D9"/>
<circle cx="3" cy="82" r="1" fill="#D9D9D9"/>
<circle cx="13" cy="82" r="1" fill="#D9D9D9"/>
<circle cx="23" cy="82" r="1" fill="#D9D9D9"/>
<circle cx="33" cy="82" r="1" fill="#D9D9D9"/>
<circle cx="43" cy="82" r="1" fill="#D9D9D9"/>
<circle cx="53" cy="82" r="1" fill="#D9D9D9"/>
<circle cx="63" cy="82" r="1" fill="#D9D9D9"/>
<circle cx="73" cy="82" r="1" fill="#D9D9D9"/>
<circle cx="83" cy="82" r="1" fill="#D9D9D9"/>
<circle cx="93" cy="82" r="1" fill="#D9D9D9"/>
<circle cx="103" cy="82" r="1" fill="#D9D9D9"/>
<circle cx="113" cy="82" r="1" fill="#D9D9D9"/>
<circle cx="123" cy="82" r="1" fill="#D9D9D9"/>
<circle cx="133" cy="82" r="1" fill="#D9D9D9"/>
<circle cx="143" cy="82" r="1" fill="#D9D9D9"/>
<circle cx="153" cy="82" r="1" fill="#D9D9D9"/>
<circle cx="163" cy="82" r="1" fill="#D9D9D9"/>
<circle cx="173" cy="82" r="1" fill="#D9D9D9"/>
<circle cx="183" cy="82" r="1" fill="#D9D9D9"/>
<circle cx="193" cy="82" r="1" fill="#D9D9D9"/>
<circle cx="203" cy="82" r="1" fill="#D9D9D9"/>
<circle cx="213" cy="82" r="1" fill="#D9D9D9"/>
<circle cx="223" cy="82" r="1" fill="#D9D9D9"/>
<circle cx="233" cy="82" r="1" fill="#D9D9D9"/>
<circle cx="243" cy="82" r="1" fill="#D9D9D9"/>
<circle cx="253" cy="82" r="1" fill="#D9D9D9"/>
<circle cx="263" cy="82" r="1" fill="#D9D9D9"/>
<circle cx="273" cy="82" r="1" fill="#D9D9D9"/>
<circle cx="283" cy="82" r="1" fill="#D9D9D9"/>
<circle cx="293" cy="82" r="1" fill="#D9D9D9"/>
<circle cx="303" cy="82" r="1" fill="#D9D9D9"/>
<circle cx="313" cy="82" r="1" fill="#D9D9D9"/>
<circle cx="323" cy="82" r="1" fill="#D9D9D9"/>
<circle cx="333" cy="82" r="1" fill="#D9D9D9"/>
<circle cx="343" cy="82" r="1" fill="#D9D9D9"/>
<circle cx="353" cy="82" r="1" fill="#D9D9D9"/>
<circle cx="3" cy="92" r="1" fill="#D9D9D9"/>
<circle cx="13" cy="92" r="1" fill="#D9D9D9"/>
<circle cx="23" cy="92" r="1" fill="#D9D9D9"/>
<circle cx="33" cy="92" r="1" fill="#D9D9D9"/>
<circle cx="43" cy="92" r="1" fill="#D9D9D9"/>
<circle cx="53" cy="92" r="1" fill="#D9D9D9"/>
<circle cx="63" cy="92" r="1" fill="#D9D9D9"/>
<circle cx="73" cy="92" r="1" fill="#D9D9D9"/>
<circle cx="83" cy="92" r="1" fill="#D9D9D9"/>
<circle cx="93" cy="92" r="1" fill="#D9D9D9"/>
<circle cx="103" cy="92" r="1" fill="#D9D9D9"/>
<circle cx="113" cy="92" r="1" fill="#D9D9D9"/>
<circle cx="123" cy="92" r="1" fill="#D9D9D9"/>
<circle cx="133" cy="92" r="1" fill="#D9D9D9"/>
<circle cx="143" cy="92" r="1" fill="#D9D9D9"/>
<circle cx="153" cy="92" r="1" fill="#D9D9D9"/>
<circle cx="163" cy="92" r="1" fill="#D9D9D9"/>
<circle cx="173" cy="92" r="1" fill="#D9D9D9"/>
<circle cx="183" cy="92" r="1" fill="#D9D9D9"/>
<circle cx="193" cy="92" r="1" fill="#D9D9D9"/>
<circle cx="203" cy="92" r="1" fill="#D9D9D9"/>
<circle cx="213" cy="92" r="1" fill="#D9D9D9"/>
<circle cx="223" cy="92" r="1" fill="#D9D9D9"/>
<circle cx="233" cy="92" r="1" fill="#D9D9D9"/>
<circle cx="243" cy="92" r="1" fill="#D9D9D9"/>
<circle cx="253" cy="92" r="1" fill="#D9D9D9"/>
<circle cx="263" cy="92" r="1" fill="#D9D9D9"/>
<circle cx="273" cy="92" r="1" fill="#D9D9D9"/>
<circle cx="283" cy="92" r="1" fill="#D9D9D9"/>
<circle cx="293" cy="92" r="1" fill="#D9D9D9"/>
<circle cx="303" cy="92" r="1" fill="#D9D9D9"/>
<circle cx="313" cy="92" r="1" fill="#D9D9D9"/>
<circle cx="323" cy="92" r="1" fill="#D9D9D9"/>
<circle cx="333" cy="92" r="1" fill="#D9D9D9"/>
<circle cx="343" cy="92" r="1" fill="#D9D9D9"/>
<circle cx="353" cy="92" r="1" fill="#D9D9D9"/>
<circle cx="3" cy="102" r="1" fill="#D9D9D9"/>
<circle cx="13" cy="102" r="1" fill="#D9D9D9"/>
<circle cx="23" cy="102" r="1" fill="#D9D9D9"/>
<circle cx="33" cy="102" r="1" fill="#D9D9D9"/>
<circle cx="43" cy="102" r="1" fill="#D9D9D9"/>
<circle cx="53" cy="102" r="1" fill="#D9D9D9"/>
<circle cx="63" cy="102" r="1" fill="#D9D9D9"/>
<circle cx="73" cy="102" r="1" fill="#D9D9D9"/>
<circle cx="83" cy="102" r="1" fill="#D9D9D9"/>
<circle cx="93" cy="102" r="1" fill="#D9D9D9"/>
<circle cx="103" cy="102" r="1" fill="#D9D9D9"/>
<circle cx="113" cy="102" r="1" fill="#D9D9D9"/>
<circle cx="123" cy="102" r="1" fill="#D9D9D9"/>
<circle cx="133" cy="102" r="1" fill="#D9D9D9"/>
<circle cx="143" cy="102" r="1" fill="#D9D9D9"/>
<circle cx="153" cy="102" r="1" fill="#D9D9D9"/>
<circle cx="163" cy="102" r="1" fill="#D9D9D9"/>
<circle cx="173" cy="102" r="1" fill="#D9D9D9"/>
<circle cx="183" cy="102" r="1" fill="#D9D9D9"/>
<circle cx="193" cy="102" r="1" fill="#D9D9D9"/>
<circle cx="203" cy="102" r="1" fill="#D9D9D9"/>
<circle cx="213" cy="102" r="1" fill="#D9D9D9"/>
<circle cx="223" cy="102" r="1" fill="#D9D9D9"/>
<circle cx="233" cy="102" r="1" fill="#D9D9D9"/>
<circle cx="243" cy="102" r="1" fill="#D9D9D9"/>
<circle cx="253" cy="102" r="1" fill="#D9D9D9"/>
<circle cx="263" cy="102" r="1" fill="#D9D9D9"/>
<circle cx="273" cy="102" r="1" fill="#D9D9D9"/>
<circle cx="283" cy="102" r="1" fill="#D9D9D9"/>
<circle cx="293" cy="102" r="1" fill="#D9D9D9"/>
<circle cx="303" cy="102" r="1" fill="#D9D9D9"/>
<circle cx="313" cy="102" r="1" fill="#D9D9D9"/>
<circle cx="323" cy="102" r="1" fill="#D9D9D9"/>
<circle cx="333" cy="102" r="1" fill="#D9D9D9"/>
<circle cx="343" cy="102" r="1" fill="#D9D9D9"/>
<circle cx="353" cy="102" r="1" fill="#D9D9D9"/>
<circle cx="3" cy="112" r="1" fill="#D9D9D9"/>
<circle cx="13" cy="112" r="1" fill="#D9D9D9"/>
<circle cx="23" cy="112" r="1" fill="#D9D9D9"/>
<circle cx="33" cy="112" r="1" fill="#D9D9D9"/>
<circle cx="43" cy="112" r="1" fill="#D9D9D9"/>
<circle cx="53" cy="112" r="1" fill="#D9D9D9"/>
<circle cx="63" cy="112" r="1" fill="#D9D9D9"/>
<circle cx="73" cy="112" r="1" fill="#D9D9D9"/>
<circle cx="83" cy="112" r="1" fill="#D9D9D9"/>
<circle cx="93" cy="112" r="1" fill="#D9D9D9"/>
<circle cx="103" cy="112" r="1" fill="#D9D9D9"/>
<circle cx="113" cy="112" r="1" fill="#D9D9D9"/>
<circle cx="123" cy="112" r="1" fill="#D9D9D9"/>
<circle cx="133" cy="112" r="1" fill="#D9D9D9"/>
<circle cx="143" cy="112" r="1" fill="#D9D9D9"/>
<circle cx="153" cy="112" r="1" fill="#D9D9D9"/>
<circle cx="163" cy="112" r="1" fill="#D9D9D9"/>
<circle cx="173" cy="112" r="1" fill="#D9D9D9"/>
<circle cx="183" cy="112" r="1" fill="#D9D9D9"/>
<circle cx="193" cy="112" r="1" fill="#D9D9D9"/>
<circle cx="203" cy="112" r="1" fill="#D9D9D9"/>
<circle cx="213" cy="112" r="1" fill="#D9D9D9"/>
<circle cx="223" cy="112" r="1" fill="#D9D9D9"/>
<circle cx="233" cy="112" r="1" fill="#D9D9D9"/>
<circle cx="243" cy="112" r="1" fill="#D9D9D9"/>
<circle cx="253" cy="112" r="1" fill="#D9D9D9"/>
<circle cx="263" cy="112" r="1" fill="#D9D9D9"/>
<circle cx="273" cy="112" r="1" fill="#D9D9D9"/>
<circle cx="283" cy="112" r="1" fill="#D9D9D9"/>
<circle cx="293" cy="112" r="1" fill="#D9D9D9"/>
<circle cx="303" cy="112" r="1" fill="#D9D9D9"/>
<circle cx="313" cy="112" r="1" fill="#D9D9D9"/>
<circle cx="323" cy="112" r="1" fill="#D9D9D9"/>
<circle cx="333" cy="112" r="1" fill="#D9D9D9"/>
<circle cx="343" cy="112" r="1" fill="#D9D9D9"/>
<circle cx="353" cy="112" r="1" fill="#D9D9D9"/>
<circle cx="3" cy="122" r="1" fill="#D9D9D9"/>
<circle cx="13" cy="122" r="1" fill="#D9D9D9"/>
<circle cx="23" cy="122" r="1" fill="#D9D9D9"/>
<circle cx="33" cy="122" r="1" fill="#D9D9D9"/>
<circle cx="43" cy="122" r="1" fill="#D9D9D9"/>
<circle cx="53" cy="122" r="1" fill="#D9D9D9"/>
<circle cx="63" cy="122" r="1" fill="#D9D9D9"/>
<circle cx="73" cy="122" r="1" fill="#D9D9D9"/>
<circle cx="83" cy="122" r="1" fill="#D9D9D9"/>
<circle cx="93" cy="122" r="1" fill="#D9D9D9"/>
<circle cx="103" cy="122" r="1" fill="#D9D9D9"/>
<circle cx="113" cy="122" r="1" fill="#D9D9D9"/>
<circle cx="123" cy="122" r="1" fill="#D9D9D9"/>
<circle cx="133" cy="122" r="1" fill="#D9D9D9"/>
<circle cx="143" cy="122" r="1" fill="#D9D9D9"/>
<circle cx="153" cy="122" r="1" fill="#D9D9D9"/>
<circle cx="163" cy="122" r="1" fill="#D9D9D9"/>
<circle cx="173" cy="122" r="1" fill="#D9D9D9"/>
<circle cx="183" cy="122" r="1" fill="#D9D9D9"/>
<circle cx="193" cy="122" r="1" fill="#D9D9D9"/>
<circle cx="203" cy="122" r="1" fill="#D9D9D9"/>
<circle cx="213" cy="122" r="1" fill="#D9D9D9"/>
<circle cx="223" cy="122" r="1" fill="#D9D9D9"/>
<circle cx="233" cy="122" r="1" fill="#D9D9D9"/>
<circle cx="243" cy="122" r="1" fill="#D9D9D9"/>
<circle cx="253" cy="122" r="1" fill="#D9D9D9"/>
<circle cx="263" cy="122" r="1" fill="#D9D9D9"/>
<circle cx="273" cy="122" r="1" fill="#D9D9D9"/>
<circle cx="283" cy="122" r="1" fill="#D9D9D9"/>
<circle cx="293" cy="122" r="1" fill="#D9D9D9"/>
<circle cx="303" cy="122" r="1" fill="#D9D9D9"/>
<circle cx="313" cy="122" r="1" fill="#D9D9D9"/>
<circle cx="323" cy="122" r="1" fill="#D9D9D9"/>
<circle cx="333" cy="122" r="1" fill="#D9D9D9"/>
<circle cx="343" cy="122" r="1" fill="#D9D9D9"/>
<circle cx="353" cy="122" r="1" fill="#D9D9D9"/>
<circle cx="3" cy="132" r="1" fill="#D9D9D9"/>
<circle cx="13" cy="132" r="1" fill="#D9D9D9"/>
<circle cx="23" cy="132" r="1" fill="#D9D9D9"/>
<circle cx="33" cy="132" r="1" fill="#D9D9D9"/>
<circle cx="43" cy="132" r="1" fill="#D9D9D9"/>
<circle cx="53" cy="132" r="1" fill="#D9D9D9"/>
<circle cx="63" cy="132" r="1" fill="#D9D9D9"/>
<circle cx="73" cy="132" r="1" fill="#D9D9D9"/>
<circle cx="83" cy="132" r="1" fill="#D9D9D9"/>
<circle cx="93" cy="132" r="1" fill="#D9D9D9"/>
<circle cx="103" cy="132" r="1" fill="#D9D9D9"/>
<circle cx="113" cy="132" r="1" fill="#D9D9D9"/>
<circle cx="123" cy="132" r="1" fill="#D9D9D9"/>
<circle cx="133" cy="132" r="1" fill="#D9D9D9"/>
<circle cx="143" cy="132" r="1" fill="#D9D9D9"/>
<circle cx="153" cy="132" r="1" fill="#D9D9D9"/>
<circle cx="163" cy="132" r="1" fill="#D9D9D9"/>
<circle cx="173" cy="132" r="1" fill="#D9D9D9"/>
<circle cx="183" cy="132" r="1" fill="#D9D9D9"/>
<circle cx="193" cy="132" r="1" fill="#D9D9D9"/>
<circle cx="203" cy="132" r="1" fill="#D9D9D9"/>
<circle cx="213" cy="132" r="1" fill="#D9D9D9"/>
<circle cx="223" cy="132" r="1" fill="#D9D9D9"/>
<circle cx="233" cy="132" r="1" fill="#D9D9D9"/>
<circle cx="243" cy="132" r="1" fill="#D9D9D9"/>
<circle cx="253" cy="132" r="1" fill="#D9D9D9"/>
<circle cx="263" cy="132" r="1" fill="#D9D9D9"/>
<circle cx="273" cy="132" r="1" fill="#D9D9D9"/>
<circle cx="283" cy="132" r="1" fill="#D9D9D9"/>
<circle cx="293" cy="132" r="1" fill="#D9D9D9"/>
<circle cx="303" cy="132" r="1" fill="#D9D9D9"/>
<circle cx="313" cy="132" r="1" fill="#D9D9D9"/>
<circle cx="323" cy="132" r="1" fill="#D9D9D9"/>
<circle cx="333" cy="132" r="1" fill="#D9D9D9"/>
<circle cx="343" cy="132" r="1" fill="#D9D9D9"/>
<circle cx="353" cy="132" r="1" fill="#D9D9D9"/>
<circle cx="3" cy="142" r="1" fill="#D9D9D9"/>
<circle cx="13" cy="142" r="1" fill="#D9D9D9"/>
<circle cx="23" cy="142" r="1" fill="#D9D9D9"/>
<circle cx="33" cy="142" r="1" fill="#D9D9D9"/>
<circle cx="43" cy="142" r="1" fill="#D9D9D9"/>
<circle cx="53" cy="142" r="1" fill="#D9D9D9"/>
<circle cx="63" cy="142" r="1" fill="#D9D9D9"/>
<circle cx="73" cy="142" r="1" fill="#D9D9D9"/>
<circle cx="83" cy="142" r="1" fill="#D9D9D9"/>
<circle cx="93" cy="142" r="1" fill="#D9D9D9"/>
<circle cx="103" cy="142" r="1" fill="#D9D9D9"/>
<circle cx="113" cy="142" r="1" fill="#D9D9D9"/>
<circle cx="123" cy="142" r="1" fill="#D9D9D9"/>
<circle cx="133" cy="142" r="1" fill="#D9D9D9"/>
<circle cx="143" cy="142" r="1" fill="#D9D9D9"/>
<circle cx="153" cy="142" r="1" fill="#D9D9D9"/>
<circle cx="163" cy="142" r="1" fill="#D9D9D9"/>
<circle cx="173" cy="142" r="1" fill="#D9D9D9"/>
<circle cx="183" cy="142" r="1" fill="#D9D9D9"/>
<circle cx="193" cy="142" r="1" fill="#D9D9D9"/>
<circle cx="203" cy="142" r="1" fill="#D9D9D9"/>
<circle cx="213" cy="142" r="1" fill="#D9D9D9"/>
<circle cx="223" cy="142" r="1" fill="#D9D9D9"/>
<circle cx="233" cy="142" r="1" fill="#D9D9D9"/>
<circle cx="243" cy="142" r="1" fill="#D9D9D9"/>
<circle cx="253" cy="142" r="1" fill="#D9D9D9"/>
<circle cx="263" cy="142" r="1" fill="#D9D9D9"/>
<circle cx="273" cy="142" r="1" fill="#D9D9D9"/>
<circle cx="283" cy="142" r="1" fill="#D9D9D9"/>
<circle cx="293" cy="142" r="1" fill="#D9D9D9"/>
<circle cx="303" cy="142" r="1" fill="#D9D9D9"/>
<circle cx="313" cy="142" r="1" fill="#D9D9D9"/>
<circle cx="323" cy="142" r="1" fill="#D9D9D9"/>
<circle cx="333" cy="142" r="1" fill="#D9D9D9"/>
<circle cx="343" cy="142" r="1" fill="#D9D9D9"/>
<circle cx="353" cy="142" r="1" fill="#D9D9D9"/>
<circle cx="3" cy="152" r="1" fill="#D9D9D9"/>
<circle cx="13" cy="152" r="1" fill="#D9D9D9"/>
<circle cx="23" cy="152" r="1" fill="#D9D9D9"/>
<circle cx="33" cy="152" r="1" fill="#D9D9D9"/>
<circle cx="43" cy="152" r="1" fill="#D9D9D9"/>
<circle cx="53" cy="152" r="1" fill="#D9D9D9"/>
<circle cx="63" cy="152" r="1" fill="#D9D9D9"/>
<circle cx="73" cy="152" r="1" fill="#D9D9D9"/>
<circle cx="83" cy="152" r="1" fill="#D9D9D9"/>
<circle cx="93" cy="152" r="1" fill="#D9D9D9"/>
<circle cx="103" cy="152" r="1" fill="#D9D9D9"/>
<circle cx="113" cy="152" r="1" fill="#D9D9D9"/>
<circle cx="123" cy="152" r="1" fill="#D9D9D9"/>
<circle cx="133" cy="152" r="1" fill="#D9D9D9"/>
<circle cx="143" cy="152" r="1" fill="#D9D9D9"/>
<circle cx="153" cy="152" r="1" fill="#D9D9D9"/>
<circle cx="163" cy="152" r="1" fill="#D9D9D9"/>
<circle cx="173" cy="152" r="1" fill="#D9D9D9"/>
<circle cx="183" cy="152" r="1" fill="#D9D9D9"/>
<circle cx="193" cy="152" r="1" fill="#D9D9D9"/>
<circle cx="203" cy="152" r="1" fill="#D9D9D9"/>
<circle cx="213" cy="152" r="1" fill="#D9D9D9"/>
<circle cx="223" cy="152" r="1" fill="#D9D9D9"/>
<circle cx="233" cy="152" r="1" fill="#D9D9D9"/>
<circle cx="243" cy="152" r="1" fill="#D9D9D9"/>
<circle cx="253" cy="152" r="1" fill="#D9D9D9"/>
<circle cx="263" cy="152" r="1" fill="#D9D9D9"/>
<circle cx="273" cy="152" r="1" fill="#D9D9D9"/>
<circle cx="283" cy="152" r="1" fill="#D9D9D9"/>
<circle cx="293" cy="152" r="1" fill="#D9D9D9"/>
<circle cx="303" cy="152" r="1" fill="#D9D9D9"/>
<circle cx="313" cy="152" r="1" fill="#D9D9D9"/>
<circle cx="323" cy="152" r="1" fill="#D9D9D9"/>
<circle cx="333" cy="152" r="1" fill="#D9D9D9"/>
<circle cx="343" cy="152" r="1" fill="#D9D9D9"/>
<circle cx="353" cy="152" r="1" fill="#D9D9D9"/>
<circle cx="3" cy="162" r="1" fill="#D9D9D9"/>
<circle cx="13" cy="162" r="1" fill="#D9D9D9"/>
<circle cx="23" cy="162" r="1" fill="#D9D9D9"/>
<circle cx="33" cy="162" r="1" fill="#D9D9D9"/>
<circle cx="43" cy="162" r="1" fill="#D9D9D9"/>
<circle cx="53" cy="162" r="1" fill="#D9D9D9"/>
<circle cx="63" cy="162" r="1" fill="#D9D9D9"/>
<circle cx="73" cy="162" r="1" fill="#D9D9D9"/>
<circle cx="83" cy="162" r="1" fill="#D9D9D9"/>
<circle cx="93" cy="162" r="1" fill="#D9D9D9"/>
<circle cx="103" cy="162" r="1" fill="#D9D9D9"/>
<circle cx="113" cy="162" r="1" fill="#D9D9D9"/>
<circle cx="123" cy="162" r="1" fill="#D9D9D9"/>
<circle cx="133" cy="162" r="1" fill="#D9D9D9"/>
<circle cx="143" cy="162" r="1" fill="#D9D9D9"/>
<circle cx="153" cy="162" r="1" fill="#D9D9D9"/>
<circle cx="163" cy="162" r="1" fill="#D9D9D9"/>
<circle cx="173" cy="162" r="1" fill="#D9D9D9"/>
<circle cx="183" cy="162" r="1" fill="#D9D9D9"/>
<circle cx="193" cy="162" r="1" fill="#D9D9D9"/>
<circle cx="203" cy="162" r="1" fill="#D9D9D9"/>
<circle cx="213" cy="162" r="1" fill="#D9D9D9"/>
<circle cx="223" cy="162" r="1" fill="#D9D9D9"/>
<circle cx="233" cy="162" r="1" fill="#D9D9D9"/>
<circle cx="243" cy="162" r="1" fill="#D9D9D9"/>
<circle cx="253" cy="162" r="1" fill="#D9D9D9"/>
<circle cx="263" cy="162" r="1" fill="#D9D9D9"/>
<circle cx="273" cy="162" r="1" fill="#D9D9D9"/>
<circle cx="283" cy="162" r="1" fill="#D9D9D9"/>
<circle cx="293" cy="162" r="1" fill="#D9D9D9"/>
<circle cx="303" cy="162" r="1" fill="#D9D9D9"/>
<circle cx="313" cy="162" r="1" fill="#D9D9D9"/>
<circle cx="323" cy="162" r="1" fill="#D9D9D9"/>
<circle cx="333" cy="162" r="1" fill="#D9D9D9"/>
<circle cx="343" cy="162" r="1" fill="#D9D9D9"/>
<circle cx="353" cy="162" r="1" fill="#D9D9D9"/>
<circle cx="3" cy="172" r="1" fill="#D9D9D9"/>
<circle cx="13" cy="172" r="1" fill="#D9D9D9"/>
<circle cx="23" cy="172" r="1" fill="#D9D9D9"/>
<circle cx="33" cy="172" r="1" fill="#D9D9D9"/>
<circle cx="43" cy="172" r="1" fill="#D9D9D9"/>
<circle cx="53" cy="172" r="1" fill="#D9D9D9"/>
<circle cx="63" cy="172" r="1" fill="#D9D9D9"/>
<circle cx="73" cy="172" r="1" fill="#D9D9D9"/>
<circle cx="83" cy="172" r="1" fill="#D9D9D9"/>
<circle cx="93" cy="172" r="1" fill="#D9D9D9"/>
<circle cx="103" cy="172" r="1" fill="#D9D9D9"/>
<circle cx="113" cy="172" r="1" fill="#D9D9D9"/>
<circle cx="123" cy="172" r="1" fill="#D9D9D9"/>
<circle cx="133" cy="172" r="1" fill="#D9D9D9"/>
<circle cx="143" cy="172" r="1" fill="#D9D9D9"/>
<circle cx="153" cy="172" r="1" fill="#D9D9D9"/>
<circle cx="163" cy="172" r="1" fill="#D9D9D9"/>
<circle cx="173" cy="172" r="1" fill="#D9D9D9"/>
<circle cx="183" cy="172" r="1" fill="#D9D9D9"/>
<circle cx="193" cy="172" r="1" fill="#D9D9D9"/>
<circle cx="203" cy="172" r="1" fill="#D9D9D9"/>
<circle cx="213" cy="172" r="1" fill="#D9D9D9"/>
<circle cx="223" cy="172" r="1" fill="#D9D9D9"/>
<circle cx="233" cy="172" r="1" fill="#D9D9D9"/>
<circle cx="243" cy="172" r="1" fill="#D9D9D9"/>
<circle cx="253" cy="172" r="1" fill="#D9D9D9"/>
<circle cx="263" cy="172" r="1" fill="#D9D9D9"/>
<circle cx="273" cy="172" r="1" fill="#D9D9D9"/>
<circle cx="283" cy="172" r="1" fill="#D9D9D9"/>
<circle cx="293" cy="172" r="1" fill="#D9D9D9"/>
<circle cx="303" cy="172" r="1" fill="#D9D9D9"/>
<circle cx="313" cy="172" r="1" fill="#D9D9D9"/>
<circle cx="323" cy="172" r="1" fill="#D9D9D9"/>
<circle cx="333" cy="172" r="1" fill="#D9D9D9"/>
<circle cx="343" cy="172" r="1" fill="#D9D9D9"/>
<circle cx="353" cy="172" r="1" fill="#D9D9D9"/>
<circle cx="3" cy="182" r="1" fill="#D9D9D9"/>
<circle cx="13" cy="182" r="1" fill="#D9D9D9"/>
<circle cx="23" cy="182" r="1" fill="#D9D9D9"/>
<circle cx="33" cy="182" r="1" fill="#D9D9D9"/>
<circle cx="43" cy="182" r="1" fill="#D9D9D9"/>
<circle cx="53" cy="182" r="1" fill="#D9D9D9"/>
<circle cx="63" cy="182" r="1" fill="#D9D9D9"/>
<circle cx="73" cy="182" r="1" fill="#D9D9D9"/>
<circle cx="83" cy="182" r="1" fill="#D9D9D9"/>
<circle cx="93" cy="182" r="1" fill="#D9D9D9"/>
<circle cx="103" cy="182" r="1" fill="#D9D9D9"/>
<circle cx="113" cy="182" r="1" fill="#D9D9D9"/>
<circle cx="123" cy="182" r="1" fill="#D9D9D9"/>
<circle cx="133" cy="182" r="1" fill="#D9D9D9"/>
<circle cx="143" cy="182" r="1" fill="#D9D9D9"/>
<circle cx="153" cy="182" r="1" fill="#D9D9D9"/>
<circle cx="163" cy="182" r="1" fill="#D9D9D9"/>
<circle cx="173" cy="182" r="1" fill="#D9D9D9"/>
<circle cx="183" cy="182" r="1" fill="#D9D9D9"/>
<circle cx="193" cy="182" r="1" fill="#D9D9D9"/>
<circle cx="203" cy="182" r="1" fill="#D9D9D9"/>
<circle cx="213" cy="182" r="1" fill="#D9D9D9"/>
<circle cx="223" cy="182" r="1" fill="#D9D9D9"/>
<circle cx="233" cy="182" r="1" fill="#D9D9D9"/>
<circle cx="243" cy="182" r="1" fill="#D9D9D9"/>
<circle cx="253" cy="182" r="1" fill="#D9D9D9"/>
<circle cx="263" cy="182" r="1" fill="#D9D9D9"/>
<circle cx="273" cy="182" r="1" fill="#D9D9D9"/>
<circle cx="283" cy="182" r="1" fill="#D9D9D9"/>
<circle cx="293" cy="182" r="1" fill="#D9D9D9"/>
<circle cx="303" cy="182" r="1" fill="#D9D9D9"/>
<circle cx="313" cy="182" r="1" fill="#D9D9D9"/>
<circle cx="323" cy="182" r="1" fill="#D9D9D9"/>
<circle cx="333" cy="182" r="1" fill="#D9D9D9"/>
<circle cx="343" cy="182" r="1" fill="#D9D9D9"/>
<circle cx="353" cy="182" r="1" fill="#D9D9D9"/>
<circle cx="3" cy="192" r="1" fill="#D9D9D9"/>
<circle cx="13" cy="192" r="1" fill="#D9D9D9"/>
<circle cx="23" cy="192" r="1" fill="#D9D9D9"/>
<circle cx="33" cy="192" r="1" fill="#D9D9D9"/>
<circle cx="43" cy="192" r="1" fill="#D9D9D9"/>
<circle cx="53" cy="192" r="1" fill="#D9D9D9"/>
<circle cx="63" cy="192" r="1" fill="#D9D9D9"/>
<circle cx="73" cy="192" r="1" fill="#D9D9D9"/>
<circle cx="83" cy="192" r="1" fill="#D9D9D9"/>
<circle cx="93" cy="192" r="1" fill="#D9D9D9"/>
<circle cx="103" cy="192" r="1" fill="#D9D9D9"/>
<circle cx="113" cy="192" r="1" fill="#D9D9D9"/>
<circle cx="123" cy="192" r="1" fill="#D9D9D9"/>
<circle cx="133" cy="192" r="1" fill="#D9D9D9"/>
<circle cx="143" cy="192" r="1" fill="#D9D9D9"/>
<circle cx="153" cy="192" r="1" fill="#D9D9D9"/>
<circle cx="163" cy="192" r="1" fill="#D9D9D9"/>
<circle cx="173" cy="192" r="1" fill="#D9D9D9"/>
<circle cx="183" cy="192" r="1" fill="#D9D9D9"/>
<circle cx="193" cy="192" r="1" fill="#D9D9D9"/>
<circle cx="203" cy="192" r="1" fill="#D9D9D9"/>
<circle cx="213" cy="192" r="1" fill="#D9D9D9"/>
<circle cx="223" cy="192" r="1" fill="#D9D9D9"/>
<circle cx="233" cy="192" r="1" fill="#D9D9D9"/>
<circle cx="243" cy="192" r="1" fill="#D9D9D9"/>
<circle cx="253" cy="192" r="1" fill="#D9D9D9"/>
<circle cx="263" cy="192" r="1" fill="#D9D9D9"/>
<circle cx="273" cy="192" r="1" fill="#D9D9D9"/>
<circle cx="283" cy="192" r="1" fill="#D9D9D9"/>
<circle cx="293" cy="192" r="1" fill="#D9D9D9"/>
<circle cx="303" cy="192" r="1" fill="#D9D9D9"/>
<circle cx="313" cy="192" r="1" fill="#D9D9D9"/>
<circle cx="323" cy="192" r="1" fill="#D9D9D9"/>
<circle cx="333" cy="192" r="1" fill="#D9D9D9"/>
<circle cx="343" cy="192" r="1" fill="#D9D9D9"/>
<circle cx="353" cy="192" r="1" fill="#D9D9D9"/>
<circle cx="3" cy="202" r="1" fill="#D9D9D9"/>
<circle cx="13" cy="202" r="1" fill="#D9D9D9"/>
<circle cx="23" cy="202" r="1" fill="#D9D9D9"/>
<circle cx="33" cy="202" r="1" fill="#D9D9D9"/>
<circle cx="43" cy="202" r="1" fill="#D9D9D9"/>
<circle cx="53" cy="202" r="1" fill="#D9D9D9"/>
<circle cx="63" cy="202" r="1" fill="#D9D9D9"/>
<circle cx="73" cy="202" r="1" fill="#D9D9D9"/>
<circle cx="83" cy="202" r="1" fill="#D9D9D9"/>
<circle cx="93" cy="202" r="1" fill="#D9D9D9"/>
<circle cx="103" cy="202" r="1" fill="#D9D9D9"/>
<circle cx="113" cy="202" r="1" fill="#D9D9D9"/>
<circle cx="123" cy="202" r="1" fill="#D9D9D9"/>
<circle cx="133" cy="202" r="1" fill="#D9D9D9"/>
<circle cx="143" cy="202" r="1" fill="#D9D9D9"/>
<circle cx="153" cy="202" r="1" fill="#D9D9D9"/>
<circle cx="163" cy="202" r="1" fill="#D9D9D9"/>
<circle cx="173" cy="202" r="1" fill="#D9D9D9"/>
<circle cx="183" cy="202" r="1" fill="#D9D9D9"/>
<circle cx="193" cy="202" r="1" fill="#D9D9D9"/>
<circle cx="203" cy="202" r="1" fill="#D9D9D9"/>
<circle cx="213" cy="202" r="1" fill="#D9D9D9"/>
<circle cx="223" cy="202" r="1" fill="#D9D9D9"/>
<circle cx="233" cy="202" r="1" fill="#D9D9D9"/>
<circle cx="243" cy="202" r="1" fill="#D9D9D9"/>
<circle cx="253" cy="202" r="1" fill="#D9D9D9"/>
<circle cx="263" cy="202" r="1" fill="#D9D9D9"/>
<circle cx="273" cy="202" r="1" fill="#D9D9D9"/>
<circle cx="283" cy="202" r="1" fill="#D9D9D9"/>
<circle cx="293" cy="202" r="1" fill="#D9D9D9"/>
<circle cx="303" cy="202" r="1" fill="#D9D9D9"/>
<circle cx="313" cy="202" r="1" fill="#D9D9D9"/>
<circle cx="323" cy="202" r="1" fill="#D9D9D9"/>
<circle cx="333" cy="202" r="1" fill="#D9D9D9"/>
<circle cx="343" cy="202" r="1" fill="#D9D9D9"/>
<circle cx="353" cy="202" r="1" fill="#D9D9D9"/>
<circle cx="3" cy="212" r="1" fill="#D9D9D9"/>
<circle cx="13" cy="212" r="1" fill="#D9D9D9"/>
<circle cx="23" cy="212" r="1" fill="#D9D9D9"/>
<circle cx="33" cy="212" r="1" fill="#D9D9D9"/>
<circle cx="43" cy="212" r="1" fill="#D9D9D9"/>
<circle cx="53" cy="212" r="1" fill="#D9D9D9"/>
<circle cx="63" cy="212" r="1" fill="#D9D9D9"/>
<circle cx="73" cy="212" r="1" fill="#D9D9D9"/>
<circle cx="83" cy="212" r="1" fill="#D9D9D9"/>
<circle cx="93" cy="212" r="1" fill="#D9D9D9"/>
<circle cx="103" cy="212" r="1" fill="#D9D9D9"/>
<circle cx="113" cy="212" r="1" fill="#D9D9D9"/>
<circle cx="123" cy="212" r="1" fill="#D9D9D9"/>
<circle cx="133" cy="212" r="1" fill="#D9D9D9"/>
<circle cx="143" cy="212" r="1" fill="#D9D9D9"/>
<circle cx="153" cy="212" r="1" fill="#D9D9D9"/>
<circle cx="163" cy="212" r="1" fill="#D9D9D9"/>
<circle cx="173" cy="212" r="1" fill="#D9D9D9"/>
<circle cx="183" cy="212" r="1" fill="#D9D9D9"/>
<circle cx="193" cy="212" r="1" fill="#D9D9D9"/>
<circle cx="203" cy="212" r="1" fill="#D9D9D9"/>
<circle cx="213" cy="212" r="1" fill="#D9D9D9"/>
<circle cx="223" cy="212" r="1" fill="#D9D9D9"/>
<circle cx="233" cy="212" r="1" fill="#D9D9D9"/>
<circle cx="243" cy="212" r="1" fill="#D9D9D9"/>
<circle cx="253" cy="212" r="1" fill="#D9D9D9"/>
<circle cx="263" cy="212" r="1" fill="#D9D9D9"/>
<circle cx="273" cy="212" r="1" fill="#D9D9D9"/>
<circle cx="283" cy="212" r="1" fill="#D9D9D9"/>
<circle cx="293" cy="212" r="1" fill="#D9D9D9"/>
<circle cx="303" cy="212" r="1" fill="#D9D9D9"/>
<circle cx="313" cy="212" r="1" fill="#D9D9D9"/>
<circle cx="323" cy="212" r="1" fill="#D9D9D9"/>
<circle cx="333" cy="212" r="1" fill="#D9D9D9"/>
<circle cx="343" cy="212" r="1" fill="#D9D9D9"/>
<circle cx="353" cy="212" r="1" fill="#D9D9D9"/>
<circle cx="3" cy="222" r="1" fill="#D9D9D9"/>
<circle cx="13" cy="222" r="1" fill="#D9D9D9"/>
<circle cx="23" cy="222" r="1" fill="#D9D9D9"/>
<circle cx="33" cy="222" r="1" fill="#D9D9D9"/>
<circle cx="43" cy="222" r="1" fill="#D9D9D9"/>
<circle cx="53" cy="222" r="1" fill="#D9D9D9"/>
<circle cx="63" cy="222" r="1" fill="#D9D9D9"/>
<circle cx="73" cy="222" r="1" fill="#D9D9D9"/>
<circle cx="83" cy="222" r="1" fill="#D9D9D9"/>
<circle cx="93" cy="222" r="1" fill="#D9D9D9"/>
<circle cx="103" cy="222" r="1" fill="#D9D9D9"/>
<circle cx="113" cy="222" r="1" fill="#D9D9D9"/>
<circle cx="123" cy="222" r="1" fill="#D9D9D9"/>
<circle cx="133" cy="222" r="1" fill="#D9D9D9"/>
<circle cx="143" cy="222" r="1" fill="#D9D9D9"/>
<circle cx="153" cy="222" r="1" fill="#D9D9D9"/>
<circle cx="163" cy="222" r="1" fill="#D9D9D9"/>
<circle cx="173" cy="222" r="1" fill="#D9D9D9"/>
<circle cx="183" cy="222" r="1" fill="#D9D9D9"/>
<circle cx="193" cy="222" r="1" fill="#D9D9D9"/>
<circle cx="203" cy="222" r="1" fill="#D9D9D9"/>
<circle cx="213" cy="222" r="1" fill="#D9D9D9"/>
<circle cx="223" cy="222" r="1" fill="#D9D9D9"/>
<circle cx="233" cy="222" r="1" fill="#D9D9D9"/>
<circle cx="243" cy="222" r="1" fill="#D9D9D9"/>
<circle cx="253" cy="222" r="1" fill="#D9D9D9"/>
<circle cx="263" cy="222" r="1" fill="#D9D9D9"/>
<circle cx="273" cy="222" r="1" fill="#D9D9D9"/>
<circle cx="283" cy="222" r="1" fill="#D9D9D9"/>
<circle cx="293" cy="222" r="1" fill="#D9D9D9"/>
<circle cx="303" cy="222" r="1" fill="#D9D9D9"/>
<circle cx="313" cy="222" r="1" fill="#D9D9D9"/>
<circle cx="323" cy="222" r="1" fill="#D9D9D9"/>
<circle cx="333" cy="222" r="1" fill="#D9D9D9"/>
<circle cx="343" cy="222" r="1" fill="#D9D9D9"/>
<circle cx="353" cy="222" r="1" fill="#D9D9D9"/>
<circle cx="3" cy="232" r="1" fill="#D9D9D9"/>
<circle cx="13" cy="232" r="1" fill="#D9D9D9"/>
<circle cx="23" cy="232" r="1" fill="#D9D9D9"/>
<circle cx="33" cy="232" r="1" fill="#D9D9D9"/>
<circle cx="43" cy="232" r="1" fill="#D9D9D9"/>
<circle cx="53" cy="232" r="1" fill="#D9D9D9"/>
<circle cx="63" cy="232" r="1" fill="#D9D9D9"/>
<circle cx="73" cy="232" r="1" fill="#D9D9D9"/>
<circle cx="83" cy="232" r="1" fill="#D9D9D9"/>
<circle cx="93" cy="232" r="1" fill="#D9D9D9"/>
<circle cx="103" cy="232" r="1" fill="#D9D9D9"/>
<circle cx="113" cy="232" r="1" fill="#D9D9D9"/>
<circle cx="123" cy="232" r="1" fill="#D9D9D9"/>
<circle cx="133" cy="232" r="1" fill="#D9D9D9"/>
<circle cx="143" cy="232" r="1" fill="#D9D9D9"/>
<circle cx="153" cy="232" r="1" fill="#D9D9D9"/>
<circle cx="163" cy="232" r="1" fill="#D9D9D9"/>
<circle cx="173" cy="232" r="1" fill="#D9D9D9"/>
<circle cx="183" cy="232" r="1" fill="#D9D9D9"/>
<circle cx="193" cy="232" r="1" fill="#D9D9D9"/>
<circle cx="203" cy="232" r="1" fill="#D9D9D9"/>
<circle cx="213" cy="232" r="1" fill="#D9D9D9"/>
<circle cx="223" cy="232" r="1" fill="#D9D9D9"/>
<circle cx="233" cy="232" r="1" fill="#D9D9D9"/>
<circle cx="243" cy="232" r="1" fill="#D9D9D9"/>
<circle cx="253" cy="232" r="1" fill="#D9D9D9"/>
<circle cx="263" cy="232" r="1" fill="#D9D9D9"/>
<circle cx="273" cy="232" r="1" fill="#D9D9D9"/>
<circle cx="283" cy="232" r="1" fill="#D9D9D9"/>
<circle cx="293" cy="232" r="1" fill="#D9D9D9"/>
<circle cx="303" cy="232" r="1" fill="#D9D9D9"/>
<circle cx="313" cy="232" r="1" fill="#D9D9D9"/>
<circle cx="323" cy="232" r="1" fill="#D9D9D9"/>
<circle cx="333" cy="232" r="1" fill="#D9D9D9"/>
<circle cx="343" cy="232" r="1" fill="#D9D9D9"/>
<circle cx="353" cy="232" r="1" fill="#D9D9D9"/>
<circle cx="3" cy="242" r="1" fill="#D9D9D9"/>
<circle cx="13" cy="242" r="1" fill="#D9D9D9"/>
<circle cx="23" cy="242" r="1" fill="#D9D9D9"/>
<circle cx="33" cy="242" r="1" fill="#D9D9D9"/>
<circle cx="43" cy="242" r="1" fill="#D9D9D9"/>
<circle cx="53" cy="242" r="1" fill="#D9D9D9"/>
<circle cx="63" cy="242" r="1" fill="#D9D9D9"/>
<circle cx="73" cy="242" r="1" fill="#D9D9D9"/>
<circle cx="83" cy="242" r="1" fill="#D9D9D9"/>
<circle cx="93" cy="242" r="1" fill="#D9D9D9"/>
<circle cx="103" cy="242" r="1" fill="#D9D9D9"/>
<circle cx="113" cy="242" r="1" fill="#D9D9D9"/>
<circle cx="123" cy="242" r="1" fill="#D9D9D9"/>
<circle cx="133" cy="242" r="1" fill="#D9D9D9"/>
<circle cx="143" cy="242" r="1" fill="#D9D9D9"/>
<circle cx="153" cy="242" r="1" fill="#D9D9D9"/>
<circle cx="163" cy="242" r="1" fill="#D9D9D9"/>
<circle cx="173" cy="242" r="1" fill="#D9D9D9"/>
<circle cx="183" cy="242" r="1" fill="#D9D9D9"/>
<circle cx="193" cy="242" r="1" fill="#D9D9D9"/>
<circle cx="203" cy="242" r="1" fill="#D9D9D9"/>
<circle cx="213" cy="242" r="1" fill="#D9D9D9"/>
<circle cx="223" cy="242" r="1" fill="#D9D9D9"/>
<circle cx="233" cy="242" r="1" fill="#D9D9D9"/>
<circle cx="243" cy="242" r="1" fill="#D9D9D9"/>
<circle cx="253" cy="242" r="1" fill="#D9D9D9"/>
<circle cx="263" cy="242" r="1" fill="#D9D9D9"/>
<circle cx="273" cy="242" r="1" fill="#D9D9D9"/>
<circle cx="283" cy="242" r="1" fill="#D9D9D9"/>
<circle cx="293" cy="242" r="1" fill="#D9D9D9"/>
<circle cx="303" cy="242" r="1" fill="#D9D9D9"/>
<circle cx="313" cy="242" r="1" fill="#D9D9D9"/>
<circle cx="323" cy="242" r="1" fill="#D9D9D9"/>
<circle cx="333" cy="242" r="1" fill="#D9D9D9"/>
<circle cx="343" cy="242" r="1" fill="#D9D9D9"/>
<circle cx="353" cy="242" r="1" fill="#D9D9D9"/>
<circle cx="3" cy="252" r="1" fill="#D9D9D9"/>
<circle cx="13" cy="252" r="1" fill="#D9D9D9"/>
<circle cx="23" cy="252" r="1" fill="#D9D9D9"/>
<circle cx="33" cy="252" r="1" fill="#D9D9D9"/>
<circle cx="43" cy="252" r="1" fill="#D9D9D9"/>
<circle cx="53" cy="252" r="1" fill="#D9D9D9"/>
<circle cx="63" cy="252" r="1" fill="#D9D9D9"/>
<circle cx="73" cy="252" r="1" fill="#D9D9D9"/>
<circle cx="83" cy="252" r="1" fill="#D9D9D9"/>
<circle cx="93" cy="252" r="1" fill="#D9D9D9"/>
<circle cx="103" cy="252" r="1" fill="#D9D9D9"/>
<circle cx="113" cy="252" r="1" fill="#D9D9D9"/>
<circle cx="123" cy="252" r="1" fill="#D9D9D9"/>
<circle cx="133" cy="252" r="1" fill="#D9D9D9"/>
<circle cx="143" cy="252" r="1" fill="#D9D9D9"/>
<circle cx="153" cy="252" r="1" fill="#D9D9D9"/>
<circle cx="163" cy="252" r="1" fill="#D9D9D9"/>
<circle cx="173" cy="252" r="1" fill="#D9D9D9"/>
<circle cx="183" cy="252" r="1" fill="#D9D9D9"/>
<circle cx="193" cy="252" r="1" fill="#D9D9D9"/>
<circle cx="203" cy="252" r="1" fill="#D9D9D9"/>
<circle cx="213" cy="252" r="1" fill="#D9D9D9"/>
<circle cx="223" cy="252" r="1" fill="#D9D9D9"/>
<circle cx="233" cy="252" r="1" fill="#D9D9D9"/>
<circle cx="243" cy="252" r="1" fill="#D9D9D9"/>
<circle cx="253" cy="252" r="1" fill="#D9D9D9"/>
<circle cx="263" cy="252" r="1" fill="#D9D9D9"/>
<circle cx="273" cy="252" r="1" fill="#D9D9D9"/>
<circle cx="283" cy="252" r="1" fill="#D9D9D9"/>
<circle cx="293" cy="252" r="1" fill="#D9D9D9"/>
<circle cx="303" cy="252" r="1" fill="#D9D9D9"/>
<circle cx="313" cy="252" r="1" fill="#D9D9D9"/>
<circle cx="323" cy="252" r="1" fill="#D9D9D9"/>
<circle cx="333" cy="252" r="1" fill="#D9D9D9"/>
<circle cx="343" cy="252" r="1" fill="#D9D9D9"/>
<circle cx="353" cy="252" r="1" fill="#D9D9D9"/>
<circle cx="3" cy="262" r="1" fill="#D9D9D9"/>
<circle cx="13" cy="262" r="1" fill="#D9D9D9"/>
<circle cx="23" cy="262" r="1" fill="#D9D9D9"/>
<circle cx="33" cy="262" r="1" fill="#D9D9D9"/>
<circle cx="43" cy="262" r="1" fill="#D9D9D9"/>
<circle cx="53" cy="262" r="1" fill="#D9D9D9"/>
<circle cx="63" cy="262" r="1" fill="#D9D9D9"/>
<circle cx="73" cy="262" r="1" fill="#D9D9D9"/>
<circle cx="83" cy="262" r="1" fill="#D9D9D9"/>
<circle cx="93" cy="262" r="1" fill="#D9D9D9"/>
<circle cx="103" cy="262" r="1" fill="#D9D9D9"/>
<circle cx="113" cy="262" r="1" fill="#D9D9D9"/>
<circle cx="123" cy="262" r="1" fill="#D9D9D9"/>
<circle cx="133" cy="262" r="1" fill="#D9D9D9"/>
<circle cx="143" cy="262" r="1" fill="#D9D9D9"/>
<circle cx="153" cy="262" r="1" fill="#D9D9D9"/>
<circle cx="163" cy="262" r="1" fill="#D9D9D9"/>
<circle cx="173" cy="262" r="1" fill="#D9D9D9"/>
<circle cx="183" cy="262" r="1" fill="#D9D9D9"/>
<circle cx="193" cy="262" r="1" fill="#D9D9D9"/>
<circle cx="203" cy="262" r="1" fill="#D9D9D9"/>
<circle cx="213" cy="262" r="1" fill="#D9D9D9"/>
<circle cx="223" cy="262" r="1" fill="#D9D9D9"/>
<circle cx="233" cy="262" r="1" fill="#D9D9D9"/>
<circle cx="243" cy="262" r="1" fill="#D9D9D9"/>
<circle cx="253" cy="262" r="1" fill="#D9D9D9"/>
<circle cx="263" cy="262" r="1" fill="#D9D9D9"/>
<circle cx="273" cy="262" r="1" fill="#D9D9D9"/>
<circle cx="283" cy="262" r="1" fill="#D9D9D9"/>
<circle cx="293" cy="262" r="1" fill="#D9D9D9"/>
<circle cx="303" cy="262" r="1" fill="#D9D9D9"/>
<circle cx="313" cy="262" r="1" fill="#D9D9D9"/>
<circle cx="323" cy="262" r="1" fill="#D9D9D9"/>
<circle cx="333" cy="262" r="1" fill="#D9D9D9"/>
<circle cx="343" cy="262" r="1" fill="#D9D9D9"/>
<circle cx="353" cy="262" r="1" fill="#D9D9D9"/>
<circle cx="3" cy="272" r="1" fill="#D9D9D9"/>
<circle cx="13" cy="272" r="1" fill="#D9D9D9"/>
<circle cx="23" cy="272" r="1" fill="#D9D9D9"/>
<circle cx="33" cy="272" r="1" fill="#D9D9D9"/>
<circle cx="43" cy="272" r="1" fill="#D9D9D9"/>
<circle cx="53" cy="272" r="1" fill="#D9D9D9"/>
<circle cx="63" cy="272" r="1" fill="#D9D9D9"/>
<circle cx="73" cy="272" r="1" fill="#D9D9D9"/>
<circle cx="83" cy="272" r="1" fill="#D9D9D9"/>
<circle cx="93" cy="272" r="1" fill="#D9D9D9"/>
<circle cx="103" cy="272" r="1" fill="#D9D9D9"/>
<circle cx="113" cy="272" r="1" fill="#D9D9D9"/>
<circle cx="123" cy="272" r="1" fill="#D9D9D9"/>
<circle cx="133" cy="272" r="1" fill="#D9D9D9"/>
<circle cx="143" cy="272" r="1" fill="#D9D9D9"/>
<circle cx="153" cy="272" r="1" fill="#D9D9D9"/>
<circle cx="163" cy="272" r="1" fill="#D9D9D9"/>
<circle cx="173" cy="272" r="1" fill="#D9D9D9"/>
<circle cx="183" cy="272" r="1" fill="#D9D9D9"/>
<circle cx="193" cy="272" r="1" fill="#D9D9D9"/>
<circle cx="203" cy="272" r="1" fill="#D9D9D9"/>
<circle cx="213" cy="272" r="1" fill="#D9D9D9"/>
<circle cx="223" cy="272" r="1" fill="#D9D9D9"/>
<circle cx="233" cy="272" r="1" fill="#D9D9D9"/>
<circle cx="243" cy="272" r="1" fill="#D9D9D9"/>
<circle cx="253" cy="272" r="1" fill="#D9D9D9"/>
<circle cx="263" cy="272" r="1" fill="#D9D9D9"/>
<circle cx="273" cy="272" r="1" fill="#D9D9D9"/>
<circle cx="283" cy="272" r="1" fill="#D9D9D9"/>
<circle cx="293" cy="272" r="1" fill="#D9D9D9"/>
<circle cx="303" cy="272" r="1" fill="#D9D9D9"/>
<circle cx="313" cy="272" r="1" fill="#D9D9D9"/>
<circle cx="323" cy="272" r="1" fill="#D9D9D9"/>
<circle cx="333" cy="272" r="1" fill="#D9D9D9"/>
<circle cx="343" cy="272" r="1" fill="#D9D9D9"/>
<circle cx="353" cy="272" r="1" fill="#D9D9D9"/>
</g>
<g clip-path="url(#clip1_322_6662)">
<mask id="mask0_322_6662" style="mask-type:luminance" maskUnits="userSpaceOnUse" x="98" y="56" width="145" height="163">
<path d="M242.512 56H98.7056V218.687H242.512V56Z" fill="white"/>
</mask>
<g mask="url(#mask0_322_6662)">
<path d="M170.853 56.773L99.2209 94.3926L103.344 172.982L170.853 218.331L238.62 172.982L241.969 94.135L170.853 56.773Z" fill="#282823"/>
<path d="M170.595 218.331V137.166L241.712 94.135L238.362 172.724L170.595 218.331Z" fill="#363631"/>
<path d="M125.194 187.765C125.04 187.765 124.914 187.644 124.906 187.489L121.613 107.783L193.384 68.2789C193.522 68.2021 193.699 68.2539 193.776 68.3921C193.853 68.5322 193.803 68.7068 193.663 68.7836L122.202 108.115L125.48 187.464C125.486 187.623 125.363 187.757 125.204 187.763C125.2 187.763 125.196 187.763 125.192 187.763L125.194 187.765Z" fill="white" fill-opacity="0.4"/>
<path d="M194.254 202.681H194.25C194.09 202.679 193.964 202.549 193.966 202.389L195.046 122.204L123.887 81.4848C123.749 81.4061 123.701 81.2296 123.78 81.0914C123.858 80.9532 124.035 80.9053 124.173 80.9839L195.626 121.87L194.542 202.395C194.54 202.552 194.411 202.679 194.254 202.679V202.681Z" fill="white" fill-opacity="0.4"/>
<path d="M216.708 187.6C216.708 187.6 216.702 187.6 216.699 187.6C216.54 187.594 216.415 187.462 216.421 187.302L218.888 107.906L147.716 68.8911C147.576 68.8144 147.526 68.6397 147.602 68.4996C147.679 68.3595 147.854 68.3096 147.994 68.3864L219.476 107.572L216.998 187.322C216.993 187.477 216.866 187.6 216.71 187.6H216.708Z" fill="white" fill-opacity="0.4"/>
<path d="M170.713 192.546L102.129 148.119C101.995 148.033 101.959 147.854 102.045 147.721C102.131 147.589 102.31 147.551 102.442 147.637L170.713 191.86L239.312 147.366C239.447 147.28 239.623 147.318 239.71 147.451C239.796 147.585 239.757 147.762 239.625 147.85L170.713 192.547V192.546Z" fill="white" fill-opacity="0.4"/>
<path d="M170.569 165.524L170.417 165.428L100.623 121.903C100.488 121.818 100.446 121.642 100.531 121.506C100.615 121.371 100.792 121.329 100.928 121.413L170.569 164.844L240.566 121.12C240.7 121.035 240.878 121.077 240.963 121.212C241.047 121.346 241.007 121.525 240.871 121.609L170.569 165.524Z" fill="white" fill-opacity="0.4"/>
<path d="M147.545 202.761C147.39 202.761 147.261 202.637 147.257 202.482L145.332 121.98L217.121 80.7747C217.259 80.6941 217.434 80.744 217.514 80.8803C217.593 81.0185 217.545 81.195 217.409 81.2737L145.917 122.307L147.835 202.468C147.838 202.627 147.712 202.76 147.554 202.763H147.547L147.545 202.761Z" fill="white" fill-opacity="0.4"/>
<path opacity="0.6" d="M170.851 218.589C170.586 218.589 170.373 218.376 170.371 218.111L169.938 136.707L241.771 93.6312C241.997 93.495 242.293 93.5679 242.429 93.7963C242.566 94.0227 242.492 94.3183 242.264 94.4546L170.899 137.249L171.331 218.105C171.331 218.37 171.118 218.587 170.853 218.587H170.851V218.589Z" fill="white"/>
<path d="M170.419 137.459C170.335 137.459 170.251 137.438 170.174 137.392L98.9551 94.775C98.7286 94.6388 98.6538 94.3451 98.79 94.1168C98.9263 93.8903 99.2199 93.8155 99.4483 93.9517L170.665 136.569C170.891 136.705 170.967 136.999 170.83 137.227C170.74 137.377 170.581 137.461 170.418 137.461L170.419 137.459Z" fill="url(#paint0_linear_322_6662)"/>
<path opacity="0.2" d="M170.851 218.687L103.275 173.348L98.7056 94.0822L170.732 56L170.957 56.1171L242.514 93.7618L238.738 173.095L170.853 218.687H170.851ZM104.204 172.817L170.851 217.534L237.8 172.569L241.523 94.3279L170.734 57.0843L99.6997 94.6427L104.206 172.817H104.204Z" fill="white"/>
<path d="M170.851 218.687L103.275 173.348L98.7056 94.0822L170.732 56L170.957 56.1171L242.514 93.7618L238.738 173.095L170.853 218.687H170.851ZM104.204 172.817L170.851 217.534L237.8 172.569L241.523 94.3279L170.734 57.0843L99.6997 94.6427L104.206 172.817H104.204Z" fill="url(#paint1_linear_322_6662)"/>
<path opacity="0.6" d="M221.871 134.331C225.286 134.331 228.055 131.563 228.055 128.147C228.055 124.732 225.286 121.963 221.871 121.963C218.456 121.963 215.687 124.732 215.687 128.147C215.687 131.563 218.456 134.331 221.871 134.331Z" fill="#FAFF69"/>
</g>
<mask id="mask1_322_6662" style="mask-type:alpha" maskUnits="userSpaceOnUse" x="100" y="56" width="143" height="162">
<g opacity="0.2">
<mask id="mask2_322_6662" style="mask-type:luminance" maskUnits="userSpaceOnUse" x="100" y="56" width="143" height="163">
<g opacity="0.2">
<path d="M242.485 56H100.251V218.847H242.485V56Z" fill="white"/>
</g>
</mask>
<g mask="url(#mask2_322_6662)">
<path d="M245.041 141.332C246.826 141.332 248.274 139.885 248.274 138.099C248.274 136.314 246.826 134.867 245.041 134.867C243.256 134.867 241.809 136.314 241.809 138.099C241.809 139.885 243.256 141.332 245.041 141.332Z" fill="#FAFF69"/>
<path d="M233.642 79.099C235.204 79.099 236.471 77.8325 236.471 76.2703C236.471 74.708 235.204 73.4415 233.642 73.4415C232.08 73.4415 230.813 74.708 230.813 76.2703C230.813 77.8325 232.08 79.099 233.642 79.099Z" fill="#FAFF69"/>
<path d="M245.93 157.417C245.93 158.953 244.718 160.165 243.182 160.165C241.646 160.165 240.434 158.953 240.434 157.417C240.434 155.882 241.646 154.67 243.182 154.67C244.718 154.67 245.93 155.882 245.93 157.417Z" fill="#FAFF69"/>
<path d="M241.723 179.318C243.062 179.318 244.148 178.232 244.148 176.893C244.148 175.554 243.062 174.468 241.723 174.468C240.384 174.468 239.298 175.554 239.298 176.893C239.298 178.232 240.384 179.318 241.723 179.318Z" fill="#FAFF69"/>
<path d="M232.108 96.0747C232.108 96.8829 231.462 97.6103 230.573 97.6103C229.684 97.6103 229.037 96.9637 229.037 96.0747C229.037 95.1857 229.684 94.5391 230.573 94.5391C231.462 94.5391 232.108 95.1857 232.108 96.0747Z" fill="#FAFF69"/>
<mask id="mask3_322_6662" style="mask-type:luminance" maskUnits="userSpaceOnUse" x="230" y="192" width="268" height="261">
<g opacity="0.2">
<path d="M497.768 192.654H230.814V452.819H497.768V192.654Z" fill="white"/>
</g>
</mask>
<g mask="url(#mask3_322_6662)">
<path d="M240.596 206.152C240.596 207.445 239.546 208.415 238.333 208.415C237.121 208.415 236.07 207.364 236.07 206.152C236.07 204.939 237.121 203.889 238.333 203.889C239.546 203.889 240.596 204.939 240.596 206.152Z" fill="#FAFF69"/>
</g>
<path d="M137.709 104.882C138.78 104.882 139.649 104.014 139.649 102.943C139.649 101.871 138.78 101.003 137.709 101.003C136.638 101.003 135.769 101.871 135.769 102.943C135.769 104.014 136.638 104.882 137.709 104.882Z" fill="#FAFF69"/>
<path d="M210.524 70.4536C211.73 70.4536 212.707 69.4766 212.707 68.2714C212.707 67.0662 211.73 66.0892 210.524 66.0892C209.319 66.0892 208.343 67.0662 208.343 68.2714C208.343 69.4766 209.319 70.4536 210.524 70.4536Z" fill="#FAFF69"/>
<path d="M187.492 167.519C188.653 167.519 189.593 166.579 189.593 165.418C189.593 164.257 188.653 163.316 187.492 163.316C186.332 163.316 185.391 164.257 185.391 165.418C185.391 166.579 186.332 167.519 187.492 167.519Z" fill="#FAFF69"/>
<path d="M169.147 181.825C169.147 182.956 168.258 183.845 167.126 183.845C165.995 183.845 165.106 182.956 165.106 181.825C165.106 180.693 165.995 179.804 167.126 179.804C168.258 179.804 169.147 180.693 169.147 181.825Z" fill="#FAFF69"/>
<path d="M115.64 192.008C117.425 192.008 118.872 190.561 118.872 188.775C118.872 186.99 117.425 185.542 115.64 185.542C113.854 185.542 112.407 186.99 112.407 188.775C112.407 190.561 113.854 192.008 115.64 192.008Z" fill="#FAFF69"/>
<path d="M182.401 114.825C184.096 114.825 185.472 113.45 185.472 111.754C185.472 110.058 184.096 108.683 182.401 108.683C180.704 108.683 179.329 110.058 179.329 111.754C179.329 113.45 180.704 114.825 182.401 114.825Z" fill="#FAFF69"/>
<path d="M223.375 184.653C223.375 185.542 222.647 186.27 221.758 186.27C220.869 186.27 220.142 185.542 220.142 184.653C220.142 183.764 220.869 183.036 221.758 183.036C222.647 183.036 223.375 183.764 223.375 184.653Z" fill="#FAFF69"/>
<path d="M228.467 168.891C228.467 170.669 227.013 172.043 225.316 172.043C223.618 172.043 222.163 170.588 222.163 168.891C222.163 167.194 223.618 165.739 225.316 165.739C227.013 165.739 228.467 167.194 228.467 168.891Z" fill="#FAFF69"/>
<path d="M218.772 166.226C218.772 166.226 218.448 166.953 218.044 166.953C217.64 166.953 217.317 166.63 217.317 166.226C217.317 165.822 217.64 165.498 218.044 165.498C218.448 165.498 218.772 165.822 218.772 166.226Z" fill="#FAFF69"/>
<path d="M154.521 175.603C155.235 175.603 155.814 175.024 155.814 174.31C155.814 173.596 155.235 173.017 154.521 173.017C153.807 173.017 153.228 173.596 153.228 174.31C153.228 175.024 153.807 175.603 154.521 175.603Z" fill="#FAFF69"/>
<path d="M129.704 176.894C129.704 177.783 128.977 178.511 128.088 178.511C127.199 178.511 126.471 177.783 126.471 176.894C126.471 176.005 127.199 175.277 128.088 175.277C128.977 175.277 129.704 176.005 129.704 176.894Z" fill="#FAFF69"/>
<path d="M104.168 179.32C104.168 181.017 102.794 182.391 101.097 182.391C99.3998 182.391 98.0259 181.017 98.0259 179.32C98.0259 177.623 99.3998 176.248 101.097 176.248C102.794 176.248 104.168 177.623 104.168 179.32Z" fill="#FAFF69"/>
<path d="M146.273 189.259C146.273 190.714 145.06 191.926 143.605 191.926C142.151 191.926 140.938 190.714 140.938 189.259C140.938 187.804 142.151 186.592 143.605 186.592C145.06 186.592 146.273 187.804 146.273 189.259Z" fill="#FAFF69"/>
<path d="M182.567 179.884C182.567 180.531 182.002 181.097 181.355 181.097C180.708 181.097 180.142 180.531 180.142 179.884C180.142 179.238 180.708 178.672 181.355 178.672C182.002 178.672 182.567 179.238 182.567 179.884Z" fill="#FAFF69"/>
<path d="M203.575 179.966C203.575 181.34 202.443 182.471 201.069 182.471C199.695 182.471 198.563 181.34 198.563 179.966C198.563 178.592 199.695 177.46 201.069 177.46C202.443 177.46 203.575 178.592 203.575 179.966Z" fill="#FAFF69"/>
<path d="M213.921 160.974C213.921 161.783 213.274 162.429 212.466 162.429C211.657 162.429 211.011 161.783 211.011 160.974C211.011 160.166 211.657 159.519 212.466 159.519C213.274 159.519 213.921 160.166 213.921 160.974Z" fill="#FAFF69"/>
<path d="M217.4 151.033C217.4 152.165 216.43 153.134 215.299 153.134C214.167 153.134 213.197 152.165 213.197 151.033C213.197 149.901 214.167 148.931 215.299 148.931C216.43 148.931 217.4 149.901 217.4 151.033Z" fill="#FAFF69"/>
<path d="M224.506 139.638C224.506 141.012 223.375 142.143 222 142.143C220.626 142.143 219.495 141.012 219.495 139.638C219.495 138.264 220.626 137.132 222 137.132C223.375 137.132 224.506 138.264 224.506 139.638Z" fill="#FAFF69"/>
<path d="M205.924 129.046C206.95 129.046 207.782 128.214 207.782 127.188C207.782 126.161 206.95 125.329 205.924 125.329C204.897 125.329 204.065 126.161 204.065 127.188C204.065 128.214 204.897 129.046 205.924 129.046Z" fill="#FAFF69"/>
<path d="M140.535 164.851C140.535 166.144 139.485 167.195 138.191 167.195C136.898 167.195 135.847 166.144 135.847 164.851C135.847 163.558 136.898 162.507 138.191 162.507C139.485 162.507 140.535 163.558 140.535 164.851Z" fill="#FAFF69"/>
<path d="M103.115 163.722C103.115 165.338 101.741 166.712 100.125 166.712C98.5082 166.712 97.1343 165.338 97.1343 163.722C97.1343 162.105 98.5082 160.732 100.125 160.732C101.741 160.732 103.115 162.105 103.115 163.722Z" fill="#FAFF69"/>
<path d="M100.853 120.724C100.853 122.421 99.4795 123.795 97.7822 123.795C96.0849 123.795 94.7109 122.421 94.7109 120.724C94.7109 119.027 96.0849 117.653 97.7822 117.653C99.4795 117.653 100.853 119.027 100.853 120.724Z" fill="#FAFF69"/>
<path d="M126.065 125.007C126.065 125.896 125.338 126.624 124.449 126.624C123.56 126.624 122.833 125.896 122.833 125.007C122.833 124.118 123.56 123.391 124.449 123.391C125.338 123.391 126.065 124.118 126.065 125.007Z" fill="#FAFF69"/>
<path d="M134.801 143.598C134.801 143.598 134.478 144.325 134.074 144.325C133.67 144.325 133.346 144.002 133.346 143.598C133.346 143.194 133.67 142.87 134.074 142.87C134.478 142.87 134.801 143.194 134.801 143.598Z" fill="#FAFF69"/>
<path d="M121.785 155.637C121.785 156.122 121.381 156.526 120.896 156.526C120.411 156.526 120.007 156.122 120.007 155.637C120.007 155.152 120.411 154.748 120.896 154.748C121.381 154.748 121.785 155.152 121.785 155.637Z" fill="#FAFF69"/>
<path d="M109.825 149.657C109.825 150.951 108.774 152.001 107.481 152.001C106.188 152.001 105.137 150.951 105.137 149.657C105.137 148.364 106.188 147.314 107.481 147.314C108.774 147.314 109.825 148.364 109.825 149.657Z" fill="#FAFF69"/>
<path d="M119.44 144.646C119.44 145.536 118.713 146.182 117.905 146.182C117.096 146.182 116.369 145.455 116.369 144.646C116.369 143.838 117.096 143.111 117.905 143.111C118.713 143.111 119.44 143.838 119.44 144.646Z" fill="#FAFF69"/>
<path d="M178.035 135.109C178.035 135.674 177.55 136.159 176.984 136.159C176.418 136.159 176.014 135.674 176.014 135.109C176.014 134.543 176.499 134.058 176.984 134.058C177.469 134.058 178.035 134.543 178.035 135.109Z" fill="#FAFF69"/>
<path d="M197.193 123.794C198.175 123.794 198.971 122.998 198.971 122.016C198.971 121.034 198.175 120.238 197.193 120.238C196.211 120.238 195.415 121.034 195.415 122.016C195.415 122.998 196.211 123.794 197.193 123.794Z" fill="#FAFF69"/>
<path d="M222.571 111.59C222.571 113.207 221.197 114.58 219.58 114.58C217.964 114.58 216.59 113.207 216.59 111.59C216.59 109.974 217.964 108.6 219.58 108.6C221.197 108.6 222.571 109.974 222.571 111.59Z" fill="#FAFF69"/>
<path d="M232.108 96.0747C232.108 96.8829 231.462 97.6103 230.573 97.6103C229.684 97.6103 229.037 96.9637 229.037 96.0747C229.037 95.1857 229.684 94.5391 230.573 94.5391C231.462 94.5391 232.108 95.1857 232.108 96.0747Z" fill="#FAFF69"/>
<path d="M222.489 87.5075C222.489 87.9925 222.085 88.3965 221.6 88.3965C221.115 88.3965 220.711 87.9925 220.711 87.5075C220.711 87.0226 221.115 86.6185 221.6 86.6185C222.085 86.6185 222.489 87.0226 222.489 87.5075Z" fill="#FAFF69"/>
<path d="M200.993 81.7676C200.993 82.4142 200.508 82.8991 199.861 82.8991C199.215 82.8991 198.73 82.4142 198.73 81.7676C198.73 81.121 199.215 80.6361 199.861 80.6361C200.508 80.6361 200.993 81.121 200.993 81.7676Z" fill="#FAFF69"/>
<path d="M188.136 89.8497C188.136 91.3853 186.843 92.6785 185.307 92.6785C183.771 92.6785 182.478 91.3853 182.478 89.8497C182.478 88.3141 183.771 87.0209 185.307 87.0209C186.843 87.0209 188.136 88.3141 188.136 89.8497Z" fill="#FAFF69"/>
<path d="M182.242 97.6888C182.242 98.5778 181.515 99.386 180.545 99.386C179.576 99.386 178.848 98.6586 178.848 97.6888C178.848 96.7189 179.576 95.9915 180.545 95.9915C181.515 95.9915 182.242 96.7189 182.242 97.6888Z" fill="#FAFF69"/>
<path d="M164.861 88.0709C164.861 89.2833 163.891 90.2531 162.679 90.2531C161.466 90.2531 160.497 89.2833 160.497 88.0709C160.497 86.8586 161.466 85.8887 162.679 85.8887C163.891 85.8887 164.861 86.8586 164.861 88.0709Z" fill="#FAFF69"/>
<path d="M122.029 64.7963C122.788 64.7963 123.403 64.1811 123.403 63.4223C123.403 62.6635 122.788 62.0483 122.029 62.0483C121.27 62.0483 120.655 62.6635 120.655 63.4223C120.655 64.1811 121.27 64.7963 122.029 64.7963Z" fill="#FAFF69"/>
<path d="M109.259 85.2439C110.776 85.2439 112.007 84.0136 112.007 82.496C112.007 80.9783 110.776 79.748 109.259 79.748C107.741 79.748 106.511 80.9783 106.511 82.496C106.511 84.0136 107.741 85.2439 109.259 85.2439Z" fill="#FAFF69"/>
<path d="M122.112 91.0613C123.541 91.0613 124.698 89.9034 124.698 88.4751C124.698 87.0466 123.541 85.8887 122.112 85.8887C120.684 85.8887 119.526 87.0466 119.526 88.4751C119.526 89.9034 120.684 91.0613 122.112 91.0613Z" fill="#FAFF69"/>
<path d="M173.353 57.8448C173.353 58.4913 172.868 58.9763 172.221 58.9763C171.574 58.9763 171.089 58.4913 171.089 57.8448C171.089 57.1982 171.574 56.7133 172.221 56.7133C172.868 56.7133 173.353 57.1982 173.353 57.8448Z" fill="#FAFF69"/>
<path d="M166.073 59.785C166.073 60.9165 165.104 61.8864 163.972 61.8864C162.84 61.8864 161.87 60.9165 161.87 59.785C161.87 58.6535 162.84 57.6837 163.972 57.6837C165.104 57.6837 166.073 58.6535 166.073 59.785Z" fill="#FAFF69"/>
<path d="M102.309 106.258C102.309 107.066 101.662 107.713 100.854 107.713C100.046 107.713 99.3992 107.066 99.3992 106.258C99.3992 105.45 100.046 104.803 100.854 104.803C101.662 104.803 102.309 105.45 102.309 106.258Z" fill="#FAFF69"/>
<path d="M122.031 106.822C122.031 108.115 120.981 109.246 119.607 109.246C118.233 109.246 117.182 108.195 117.182 106.822C117.182 105.448 118.233 104.397 119.607 104.397C120.981 104.397 122.031 105.448 122.031 106.822Z" fill="#FAFF69"/>
<path d="M144.011 113.692C144.011 115.389 142.638 116.762 140.94 116.762C139.243 116.762 137.869 115.389 137.869 113.692C137.869 111.994 139.243 110.62 140.94 110.62C142.638 110.62 144.011 111.994 144.011 113.692Z" fill="#FAFF69"/>
<path d="M149.829 121.371C149.829 121.937 149.344 122.422 148.778 122.422C148.212 122.422 147.727 121.937 147.727 121.371C147.727 120.805 148.212 120.32 148.778 120.32C149.344 120.32 149.829 120.805 149.829 121.371Z" fill="#FAFF69"/>
<path d="M163.006 115.47C163.006 115.47 162.683 116.117 162.36 116.117C162.036 116.117 161.713 115.794 161.713 115.47C161.713 115.147 162.036 114.824 162.36 114.824C162.683 114.824 163.006 115.147 163.006 115.47Z" fill="#FAFF69"/>
<path opacity="0.2" d="M172.3 126.056C172.3 127.511 171.169 128.643 169.714 128.643C168.259 128.643 167.127 127.511 167.127 126.056C167.127 124.601 168.259 123.47 169.714 123.47C171.169 123.47 172.3 124.601 172.3 126.056Z" fill="#FAFF69"/>
<path opacity="0.2" d="M172.457 134.221C172.457 135.837 171.164 137.13 169.548 137.13C167.931 137.13 166.638 135.837 166.638 134.221C166.638 132.604 167.931 131.311 169.548 131.311C171.164 131.311 172.457 132.604 172.457 134.221Z" fill="#FAFF69"/>
<path d="M152.823 68.835C154.251 68.835 155.409 67.677 155.409 66.2487C155.409 64.8203 154.251 63.6624 152.823 63.6624C151.395 63.6624 150.237 64.8203 150.237 66.2487C150.237 67.677 151.395 68.835 152.823 68.835Z" fill="#FAFF69"/>
<path d="M155.163 78.3711C155.163 79.0177 154.597 79.5835 153.951 79.5835C153.304 79.5835 152.738 79.0177 152.738 78.3711C152.738 77.7246 153.304 77.1588 153.951 77.1588C154.597 77.1588 155.163 77.7246 155.163 78.3711Z" fill="#FAFF69"/>
<path d="M147.969 93.7291C147.969 95.4264 146.595 96.8811 144.817 96.8811C143.039 96.8811 141.665 95.5072 141.665 93.7291C141.665 91.951 143.039 90.577 144.817 90.577C146.595 90.577 147.969 91.951 147.969 93.7291Z" fill="#FAFF69"/>
<path d="M143.933 87.0219C143.933 87.5069 143.529 87.911 143.044 87.911C142.559 87.911 142.155 87.5069 142.155 87.0219C142.155 86.537 142.559 86.1329 143.044 86.1329C143.529 86.1329 143.933 86.537 143.933 87.0219Z" fill="#FAFF69"/>
<path d="M138.031 63.5026C138.7 63.5026 139.243 62.9598 139.243 62.2903C139.243 61.6207 138.7 61.0779 138.031 61.0779C137.361 61.0779 136.819 61.6207 136.819 62.2903C136.819 62.9598 137.361 63.5026 138.031 63.5026Z" fill="#FAFF69"/>
<path d="M197.114 73.8453C197.114 73.8453 196.791 74.5727 196.387 74.5727C195.983 74.5727 195.659 74.2494 195.659 73.8453C195.659 73.4411 195.983 73.1179 196.387 73.1179C196.791 73.1179 197.114 73.4411 197.114 73.8453Z" fill="#FAFF69"/>
<path d="M183.126 72.8774C183.126 74.0897 182.156 75.0596 180.944 75.0596C179.731 75.0596 178.761 74.0897 178.761 72.8774C178.761 71.6651 179.731 70.6952 180.944 70.6952C182.156 70.6952 183.126 71.6651 183.126 72.8774Z" fill="#FAFF69"/>
<path d="M202.445 157.415C202.445 157.981 201.96 158.547 201.313 158.547C200.667 158.547 200.182 158.062 200.182 157.415C200.182 156.769 200.667 156.284 201.313 156.284C201.96 156.284 202.445 156.769 202.445 157.415Z" fill="#FAFF69"/>
<path d="M197.998 146.507C199.561 146.507 200.827 145.24 200.827 143.679C200.827 142.116 199.561 140.849 197.998 140.849C196.436 140.849 195.169 142.116 195.169 143.679C195.169 145.24 196.436 146.507 197.998 146.507Z" fill="#FAFF69"/>
<path d="M209.799 102.296C209.799 103.104 209.153 103.751 208.345 103.751C207.537 103.751 206.89 103.104 206.89 102.296C206.89 101.488 207.537 100.841 208.345 100.841C209.153 100.841 209.799 101.488 209.799 102.296Z" fill="#FAFF69"/>
<mask id="mask4_322_6662" style="mask-type:luminance" maskUnits="userSpaceOnUse" x="-37" y="192" width="268" height="261">
<g opacity="0.2">
<path d="M230.811 192.654H-36.1428V452.819H230.811V192.654Z" fill="white"/>
</g>
</mask>
<g mask="url(#mask4_322_6662)">
<path d="M178.847 208.656C179.963 208.656 180.867 207.751 180.867 206.635C180.867 205.52 179.963 204.615 178.847 204.615C177.731 204.615 176.827 205.52 176.827 206.635C176.827 207.751 177.731 208.656 178.847 208.656Z" fill="#FAFF69"/>
<path d="M117.741 209.141C117.741 210.757 116.448 211.97 114.912 211.97C113.376 211.97 112.083 210.677 112.083 209.141C112.083 207.605 113.376 206.312 114.912 206.312C116.448 206.312 117.741 207.605 117.741 209.141Z" fill="#FAFF69"/>
<path d="M140.453 209.708C140.453 211.001 139.402 212.132 138.028 212.132C136.654 212.132 135.604 211.082 135.604 209.708C135.604 208.334 136.654 207.283 138.028 207.283C139.402 207.283 140.453 208.334 140.453 209.708Z" fill="#FAFF69"/>
<path d="M140.615 214.88C140.615 216.092 139.645 217.062 138.433 217.062C137.22 217.062 136.25 216.092 136.25 214.88C136.25 213.668 137.22 212.698 138.433 212.698C139.645 212.698 140.615 213.668 140.615 214.88Z" fill="#FAFF69"/>
<path d="M124.612 212.292C124.612 213.747 123.4 214.878 122.026 214.878C120.652 214.878 119.439 213.666 119.439 212.292C119.439 210.918 120.652 209.706 122.026 209.706C123.4 209.706 124.612 210.918 124.612 212.292Z" fill="#FAFF69"/>
<path d="M220.875 204.697C220.875 205.101 220.552 205.505 220.067 205.505C219.582 205.505 219.259 205.182 219.259 204.697C219.259 204.212 219.582 203.889 220.067 203.889C220.552 203.889 220.875 204.212 220.875 204.697Z" fill="#FAFF69"/>
<path d="M209.636 204.618C209.993 204.618 210.283 204.328 210.283 203.971C210.283 203.614 209.993 203.324 209.636 203.324C209.279 203.324 208.989 203.614 208.989 203.971C208.989 204.328 209.279 204.618 209.636 204.618Z" fill="#FAFF69"/>
<path d="M204.63 215.931C204.63 216.821 203.903 217.548 203.014 217.548C202.124 217.548 201.397 216.821 201.397 215.931C201.397 215.042 202.124 214.315 203.014 214.315C203.903 214.315 204.63 215.042 204.63 215.931Z" fill="#FAFF69"/>
<path d="M193.714 196.372C194.384 196.372 194.927 195.83 194.927 195.16C194.927 194.491 194.384 193.948 193.714 193.948C193.045 193.948 192.502 194.491 192.502 195.16C192.502 195.83 193.045 196.372 193.714 196.372Z" fill="#FAFF69"/>
<path d="M164.055 195.159C164.055 196.533 162.924 197.665 161.55 197.665C160.176 197.665 159.044 196.533 159.044 195.159C159.044 193.785 160.176 192.654 161.55 192.654C162.924 192.654 164.055 193.785 164.055 195.159Z" fill="#FAFF69"/>
<path d="M168.093 211.242C168.093 212.536 167.042 213.506 165.83 213.506C164.618 213.506 163.567 212.455 163.567 211.242C163.567 210.03 164.618 208.979 165.83 208.979C167.042 208.979 168.093 210.03 168.093 211.242Z" fill="#FAFF69"/>
</g>
</g>
</g>
</mask>
<g mask="url(#mask1_322_6662)">
<path d="M170.595 56.5154L99.2209 94.6503L103.601 172.724L170.595 217.816L238.362 172.724L242.227 94.6503L170.595 56.5154Z" fill="#FAFF69"/>
</g>
<path d="M230.632 149.791C232.909 149.791 234.755 147.946 234.755 145.669C234.755 143.392 232.909 141.546 230.632 141.546C228.355 141.546 226.509 143.392 226.509 145.669C226.509 147.946 228.355 149.791 230.632 149.791Z" fill="#FAFF69"/>
<path d="M222.386 161.129C224.094 161.129 225.478 159.745 225.478 158.037C225.478 156.329 224.094 154.945 222.386 154.945C220.679 154.945 219.294 156.329 219.294 158.037C219.294 159.745 220.679 161.129 222.386 161.129Z" fill="#FAFF69"/>
<path opacity="0.4" d="M213.626 145.669C214.48 145.669 215.172 144.977 215.172 144.123C215.172 143.269 214.48 142.577 213.626 142.577C212.772 142.577 212.08 143.269 212.08 144.123C212.08 144.977 212.772 145.669 213.626 145.669Z" fill="#FAFF69"/>
<path d="M201.258 168.344C205.811 168.344 209.503 164.652 209.503 160.098C209.503 155.544 205.811 151.853 201.258 151.853C196.704 151.853 193.012 155.544 193.012 160.098C193.012 164.652 196.704 168.344 201.258 168.344Z" fill="#FAFF69"/>
<path d="M161.061 73.5215C163.338 73.5215 165.184 71.6757 165.184 69.3988C165.184 67.1219 163.338 65.2761 161.061 65.2761C158.785 65.2761 156.939 67.1219 156.939 69.3988C156.939 71.6757 158.785 73.5215 161.061 73.5215Z" fill="#FAFF69"/>
<path d="M161.061 84.3436C162.769 84.3436 164.153 82.9592 164.153 81.2516C164.153 79.5439 162.769 78.1595 161.061 78.1595C159.354 78.1595 157.969 79.5439 157.969 81.2516C157.969 82.9592 159.354 84.3436 161.061 84.3436Z" fill="#FAFF69"/>
<path d="M151.27 95.681C154.401 95.681 156.939 93.143 156.939 90.0123C156.939 86.8815 154.401 84.3436 151.27 84.3436C148.139 84.3436 145.601 86.8815 145.601 90.0123C145.601 93.143 148.139 95.681 151.27 95.681Z" fill="#FAFF69"/>
<path opacity="0.4" d="M155.393 76.6135C156.247 76.6135 156.939 75.9213 156.939 75.0675C156.939 74.2137 156.247 73.5215 155.393 73.5215C154.539 73.5215 153.847 74.2137 153.847 75.0675C153.847 75.9213 154.539 76.6135 155.393 76.6135Z" fill="#FAFF69"/>
<path d="M144.571 81.2516C146.278 81.2516 147.663 79.8672 147.663 78.1595C147.663 76.4519 146.278 75.0675 144.571 75.0675C142.863 75.0675 141.479 76.4519 141.479 78.1595C141.479 79.8672 142.863 81.2516 144.571 81.2516Z" fill="#FAFF69"/>
<path d="M125.503 160.614C127.78 160.614 129.626 158.768 129.626 156.491C129.626 154.214 127.78 152.368 125.503 152.368C123.226 152.368 121.38 154.214 121.38 156.491C121.38 158.768 123.226 160.614 125.503 160.614Z" fill="#FAFF69"/>
<path d="M117.258 171.951C118.965 171.951 120.35 170.567 120.35 168.859C120.35 167.151 118.965 165.767 117.258 165.767C115.55 165.767 114.166 167.151 114.166 168.859C114.166 170.567 115.55 171.951 117.258 171.951Z" fill="#FAFF69"/>
<path d="M109.27 199.779C112.258 199.779 114.681 197.357 114.681 194.368C114.681 191.38 112.258 188.957 109.27 188.957C106.281 188.957 103.859 191.38 103.859 194.368C103.859 197.357 106.281 199.779 109.27 199.779Z" fill="#FAFF69"/>
<path opacity="0.6" d="M93.5522 189.988C95.2599 189.988 96.6443 188.603 96.6443 186.896C96.6443 185.188 95.2599 183.804 93.5522 183.804C91.8446 183.804 90.4602 185.188 90.4602 186.896C90.4602 188.603 91.8446 189.988 93.5522 189.988Z" fill="#FAFF69"/>
<path opacity="0.5" d="M78.092 161.129C79.7997 161.129 81.184 159.745 81.184 158.037C81.184 156.329 79.7997 154.945 78.092 154.945C76.3843 154.945 75 156.329 75 158.037C75 159.745 76.3843 161.129 78.092 161.129Z" fill="#FAFF69"/>
<path opacity="0.4" d="M108.497 156.491C109.351 156.491 110.043 155.799 110.043 154.945C110.043 154.091 109.351 153.399 108.497 153.399C107.643 153.399 106.951 154.091 106.951 154.945C106.951 155.799 107.643 156.491 108.497 156.491Z" fill="#FAFF69"/>
<path d="M98.7056 178.65C103.259 178.65 106.951 174.959 106.951 170.405C106.951 165.851 103.259 162.16 98.7056 162.16C94.1518 162.16 90.4602 165.851 90.4602 170.405C90.4602 174.959 94.1518 178.65 98.7056 178.65Z" fill="#FAFF69"/>
</g>
</g>
<defs>
<linearGradient id="paint0_linear_322_6662" x1="100.252" y1="94.9077" x2="170.08" y2="136.65" gradientUnits="userSpaceOnUse">
<stop stop-color="white"/>
<stop offset="1" stop-color="white" stop-opacity="0"/>
</linearGradient>
<linearGradient id="paint1_linear_322_6662" x1="98.7056" y1="93.6196" x2="231.92" y2="173.497" gradientUnits="userSpaceOnUse">
<stop stop-color="white"/>
<stop offset="1" stop-color="white" stop-opacity="0"/>
</linearGradient>
<clipPath id="clip0_322_6662">
<rect width="355" height="274" fill="white"/>
</clipPath>
<clipPath id="clip1_322_6662">
<rect width="168" height="162.847" fill="white" transform="translate(75 56)"/>
</clipPath>
</defs>
</svg>
