<svg width="355" height="274" viewBox="0 0 355 274" fill="none" xmlns="http://www.w3.org/2000/svg">
<g clip-path="url(#clip0_322_776)">
<g opacity="0.1">
<circle cx="3" cy="2" r="1" fill="#D9D9D9"/>
<circle cx="13" cy="2" r="1" fill="#D9D9D9"/>
<circle cx="23" cy="2" r="1" fill="#D9D9D9"/>
<circle cx="33" cy="2" r="1" fill="#D9D9D9"/>
<circle cx="43" cy="2" r="1" fill="#D9D9D9"/>
<circle cx="53" cy="2" r="1" fill="#D9D9D9"/>
<circle cx="63" cy="2" r="1" fill="#D9D9D9"/>
<circle cx="73" cy="2" r="1" fill="#D9D9D9"/>
<circle cx="83" cy="2" r="1" fill="#D9D9D9"/>
<circle cx="93" cy="2" r="1" fill="#D9D9D9"/>
<circle cx="103" cy="2" r="1" fill="#D9D9D9"/>
<circle cx="113" cy="2" r="1" fill="#D9D9D9"/>
<circle cx="123" cy="2" r="1" fill="#D9D9D9"/>
<circle cx="133" cy="2" r="1" fill="#D9D9D9"/>
<circle cx="143" cy="2" r="1" fill="#D9D9D9"/>
<circle cx="153" cy="2" r="1" fill="#D9D9D9"/>
<circle cx="163" cy="2" r="1" fill="#D9D9D9"/>
<circle cx="173" cy="2" r="1" fill="#D9D9D9"/>
<circle cx="183" cy="2" r="1" fill="#D9D9D9"/>
<circle cx="193" cy="2" r="1" fill="#D9D9D9"/>
<circle cx="203" cy="2" r="1" fill="#D9D9D9"/>
<circle cx="213" cy="2" r="1" fill="#D9D9D9"/>
<circle cx="223" cy="2" r="1" fill="#D9D9D9"/>
<circle cx="233" cy="2" r="1" fill="#D9D9D9"/>
<circle cx="243" cy="2" r="1" fill="#D9D9D9"/>
<circle cx="253" cy="2" r="1" fill="#D9D9D9"/>
<circle cx="263" cy="2" r="1" fill="#D9D9D9"/>
<circle cx="273" cy="2" r="1" fill="#D9D9D9"/>
<circle cx="283" cy="2" r="1" fill="#D9D9D9"/>
<circle cx="293" cy="2" r="1" fill="#D9D9D9"/>
<circle cx="303" cy="2" r="1" fill="#D9D9D9"/>
<circle cx="313" cy="2" r="1" fill="#D9D9D9"/>
<circle cx="323" cy="2" r="1" fill="#D9D9D9"/>
<circle cx="333" cy="2" r="1" fill="#D9D9D9"/>
<circle cx="343" cy="2" r="1" fill="#D9D9D9"/>
<circle cx="353" cy="2" r="1" fill="#D9D9D9"/>
<circle cx="3" cy="12" r="1" fill="#D9D9D9"/>
<circle cx="13" cy="12" r="1" fill="#D9D9D9"/>
<circle cx="23" cy="12" r="1" fill="#D9D9D9"/>
<circle cx="33" cy="12" r="1" fill="#D9D9D9"/>
<circle cx="43" cy="12" r="1" fill="#D9D9D9"/>
<circle cx="53" cy="12" r="1" fill="#D9D9D9"/>
<circle cx="63" cy="12" r="1" fill="#D9D9D9"/>
<circle cx="73" cy="12" r="1" fill="#D9D9D9"/>
<circle cx="83" cy="12" r="1" fill="#D9D9D9"/>
<circle cx="93" cy="12" r="1" fill="#D9D9D9"/>
<circle cx="103" cy="12" r="1" fill="#D9D9D9"/>
<circle cx="113" cy="12" r="1" fill="#D9D9D9"/>
<circle cx="123" cy="12" r="1" fill="#D9D9D9"/>
<circle cx="133" cy="12" r="1" fill="#D9D9D9"/>
<circle cx="143" cy="12" r="1" fill="#D9D9D9"/>
<circle cx="153" cy="12" r="1" fill="#D9D9D9"/>
<circle cx="163" cy="12" r="1" fill="#D9D9D9"/>
<circle cx="173" cy="12" r="1" fill="#D9D9D9"/>
<circle cx="183" cy="12" r="1" fill="#D9D9D9"/>
<circle cx="193" cy="12" r="1" fill="#D9D9D9"/>
<circle cx="203" cy="12" r="1" fill="#D9D9D9"/>
<circle cx="213" cy="12" r="1" fill="#D9D9D9"/>
<circle cx="223" cy="12" r="1" fill="#D9D9D9"/>
<circle cx="233" cy="12" r="1" fill="#D9D9D9"/>
<circle cx="243" cy="12" r="1" fill="#D9D9D9"/>
<circle cx="253" cy="12" r="1" fill="#D9D9D9"/>
<circle cx="263" cy="12" r="1" fill="#D9D9D9"/>
<circle cx="273" cy="12" r="1" fill="#D9D9D9"/>
<circle cx="283" cy="12" r="1" fill="#D9D9D9"/>
<circle cx="293" cy="12" r="1" fill="#D9D9D9"/>
<circle cx="303" cy="12" r="1" fill="#D9D9D9"/>
<circle cx="313" cy="12" r="1" fill="#D9D9D9"/>
<circle cx="323" cy="12" r="1" fill="#D9D9D9"/>
<circle cx="333" cy="12" r="1" fill="#D9D9D9"/>
<circle cx="343" cy="12" r="1" fill="#D9D9D9"/>
<circle cx="353" cy="12" r="1" fill="#D9D9D9"/>
<circle cx="3" cy="22" r="1" fill="#D9D9D9"/>
<circle cx="13" cy="22" r="1" fill="#D9D9D9"/>
<circle cx="23" cy="22" r="1" fill="#D9D9D9"/>
<circle cx="33" cy="22" r="1" fill="#D9D9D9"/>
<circle cx="43" cy="22" r="1" fill="#D9D9D9"/>
<circle cx="53" cy="22" r="1" fill="#D9D9D9"/>
<circle cx="63" cy="22" r="1" fill="#D9D9D9"/>
<circle cx="73" cy="22" r="1" fill="#D9D9D9"/>
<circle cx="83" cy="22" r="1" fill="#D9D9D9"/>
<circle cx="93" cy="22" r="1" fill="#D9D9D9"/>
<circle cx="103" cy="22" r="1" fill="#D9D9D9"/>
<circle cx="113" cy="22" r="1" fill="#D9D9D9"/>
<circle cx="123" cy="22" r="1" fill="#D9D9D9"/>
<circle cx="133" cy="22" r="1" fill="#D9D9D9"/>
<circle cx="143" cy="22" r="1" fill="#D9D9D9"/>
<circle cx="153" cy="22" r="1" fill="#D9D9D9"/>
<circle cx="163" cy="22" r="1" fill="#D9D9D9"/>
<circle cx="173" cy="22" r="1" fill="#D9D9D9"/>
<circle cx="183" cy="22" r="1" fill="#D9D9D9"/>
<circle cx="193" cy="22" r="1" fill="#D9D9D9"/>
<circle cx="203" cy="22" r="1" fill="#D9D9D9"/>
<circle cx="213" cy="22" r="1" fill="#D9D9D9"/>
<circle cx="223" cy="22" r="1" fill="#D9D9D9"/>
<circle cx="233" cy="22" r="1" fill="#D9D9D9"/>
<circle cx="243" cy="22" r="1" fill="#D9D9D9"/>
<circle cx="253" cy="22" r="1" fill="#D9D9D9"/>
<circle cx="263" cy="22" r="1" fill="#D9D9D9"/>
<circle cx="273" cy="22" r="1" fill="#D9D9D9"/>
<circle cx="283" cy="22" r="1" fill="#D9D9D9"/>
<circle cx="293" cy="22" r="1" fill="#D9D9D9"/>
<circle cx="303" cy="22" r="1" fill="#D9D9D9"/>
<circle cx="313" cy="22" r="1" fill="#D9D9D9"/>
<circle cx="323" cy="22" r="1" fill="#D9D9D9"/>
<circle cx="333" cy="22" r="1" fill="#D9D9D9"/>
<circle cx="343" cy="22" r="1" fill="#D9D9D9"/>
<circle cx="353" cy="22" r="1" fill="#D9D9D9"/>
<circle cx="3" cy="32" r="1" fill="#D9D9D9"/>
<circle cx="13" cy="32" r="1" fill="#D9D9D9"/>
<circle cx="23" cy="32" r="1" fill="#D9D9D9"/>
<circle cx="33" cy="32" r="1" fill="#D9D9D9"/>
<circle cx="43" cy="32" r="1" fill="#D9D9D9"/>
<circle cx="53" cy="32" r="1" fill="#D9D9D9"/>
<circle cx="63" cy="32" r="1" fill="#D9D9D9"/>
<circle cx="73" cy="32" r="1" fill="#D9D9D9"/>
<circle cx="83" cy="32" r="1" fill="#D9D9D9"/>
<circle cx="93" cy="32" r="1" fill="#D9D9D9"/>
<circle cx="103" cy="32" r="1" fill="#D9D9D9"/>
<circle cx="113" cy="32" r="1" fill="#D9D9D9"/>
<circle cx="123" cy="32" r="1" fill="#D9D9D9"/>
<circle cx="133" cy="32" r="1" fill="#D9D9D9"/>
<circle cx="143" cy="32" r="1" fill="#D9D9D9"/>
<circle cx="153" cy="32" r="1" fill="#D9D9D9"/>
<circle cx="163" cy="32" r="1" fill="#D9D9D9"/>
<circle cx="173" cy="32" r="1" fill="#D9D9D9"/>
<circle cx="183" cy="32" r="1" fill="#D9D9D9"/>
<circle cx="193" cy="32" r="1" fill="#D9D9D9"/>
<circle cx="203" cy="32" r="1" fill="#D9D9D9"/>
<circle cx="213" cy="32" r="1" fill="#D9D9D9"/>
<circle cx="223" cy="32" r="1" fill="#D9D9D9"/>
<circle cx="233" cy="32" r="1" fill="#D9D9D9"/>
<circle cx="243" cy="32" r="1" fill="#D9D9D9"/>
<circle cx="253" cy="32" r="1" fill="#D9D9D9"/>
<circle cx="263" cy="32" r="1" fill="#D9D9D9"/>
<circle cx="273" cy="32" r="1" fill="#D9D9D9"/>
<circle cx="283" cy="32" r="1" fill="#D9D9D9"/>
<circle cx="293" cy="32" r="1" fill="#D9D9D9"/>
<circle cx="303" cy="32" r="1" fill="#D9D9D9"/>
<circle cx="313" cy="32" r="1" fill="#D9D9D9"/>
<circle cx="323" cy="32" r="1" fill="#D9D9D9"/>
<circle cx="333" cy="32" r="1" fill="#D9D9D9"/>
<circle cx="343" cy="32" r="1" fill="#D9D9D9"/>
<circle cx="353" cy="32" r="1" fill="#D9D9D9"/>
<circle cx="3" cy="42" r="1" fill="#D9D9D9"/>
<circle cx="13" cy="42" r="1" fill="#D9D9D9"/>
<circle cx="23" cy="42" r="1" fill="#D9D9D9"/>
<circle cx="33" cy="42" r="1" fill="#D9D9D9"/>
<circle cx="43" cy="42" r="1" fill="#D9D9D9"/>
<circle cx="53" cy="42" r="1" fill="#D9D9D9"/>
<circle cx="63" cy="42" r="1" fill="#D9D9D9"/>
<circle cx="73" cy="42" r="1" fill="#D9D9D9"/>
<circle cx="83" cy="42" r="1" fill="#D9D9D9"/>
<circle cx="93" cy="42" r="1" fill="#D9D9D9"/>
<circle cx="103" cy="42" r="1" fill="#D9D9D9"/>
<circle cx="113" cy="42" r="1" fill="#D9D9D9"/>
<circle cx="123" cy="42" r="1" fill="#D9D9D9"/>
<circle cx="133" cy="42" r="1" fill="#D9D9D9"/>
<circle cx="143" cy="42" r="1" fill="#D9D9D9"/>
<circle cx="153" cy="42" r="1" fill="#D9D9D9"/>
<circle cx="163" cy="42" r="1" fill="#D9D9D9"/>
<circle cx="173" cy="42" r="1" fill="#D9D9D9"/>
<circle cx="183" cy="42" r="1" fill="#D9D9D9"/>
<circle cx="193" cy="42" r="1" fill="#D9D9D9"/>
<circle cx="203" cy="42" r="1" fill="#D9D9D9"/>
<circle cx="213" cy="42" r="1" fill="#D9D9D9"/>
<circle cx="223" cy="42" r="1" fill="#D9D9D9"/>
<circle cx="233" cy="42" r="1" fill="#D9D9D9"/>
<circle cx="243" cy="42" r="1" fill="#D9D9D9"/>
<circle cx="253" cy="42" r="1" fill="#D9D9D9"/>
<circle cx="263" cy="42" r="1" fill="#D9D9D9"/>
<circle cx="273" cy="42" r="1" fill="#D9D9D9"/>
<circle cx="283" cy="42" r="1" fill="#D9D9D9"/>
<circle cx="293" cy="42" r="1" fill="#D9D9D9"/>
<circle cx="303" cy="42" r="1" fill="#D9D9D9"/>
<circle cx="313" cy="42" r="1" fill="#D9D9D9"/>
<circle cx="323" cy="42" r="1" fill="#D9D9D9"/>
<circle cx="333" cy="42" r="1" fill="#D9D9D9"/>
<circle cx="343" cy="42" r="1" fill="#D9D9D9"/>
<circle cx="353" cy="42" r="1" fill="#D9D9D9"/>
<circle cx="3" cy="52" r="1" fill="#D9D9D9"/>
<circle cx="13" cy="52" r="1" fill="#D9D9D9"/>
<circle cx="23" cy="52" r="1" fill="#D9D9D9"/>
<circle cx="33" cy="52" r="1" fill="#D9D9D9"/>
<circle cx="43" cy="52" r="1" fill="#D9D9D9"/>
<circle cx="53" cy="52" r="1" fill="#D9D9D9"/>
<circle cx="63" cy="52" r="1" fill="#D9D9D9"/>
<circle cx="73" cy="52" r="1" fill="#D9D9D9"/>
<circle cx="83" cy="52" r="1" fill="#D9D9D9"/>
<circle cx="93" cy="52" r="1" fill="#D9D9D9"/>
<circle cx="103" cy="52" r="1" fill="#D9D9D9"/>
<circle cx="113" cy="52" r="1" fill="#D9D9D9"/>
<circle cx="123" cy="52" r="1" fill="#D9D9D9"/>
<circle cx="133" cy="52" r="1" fill="#D9D9D9"/>
<circle cx="143" cy="52" r="1" fill="#D9D9D9"/>
<circle cx="153" cy="52" r="1" fill="#D9D9D9"/>
<circle cx="163" cy="52" r="1" fill="#D9D9D9"/>
<circle cx="173" cy="52" r="1" fill="#D9D9D9"/>
<circle cx="183" cy="52" r="1" fill="#D9D9D9"/>
<circle cx="193" cy="52" r="1" fill="#D9D9D9"/>
<circle cx="203" cy="52" r="1" fill="#D9D9D9"/>
<circle cx="213" cy="52" r="1" fill="#D9D9D9"/>
<circle cx="223" cy="52" r="1" fill="#D9D9D9"/>
<circle cx="233" cy="52" r="1" fill="#D9D9D9"/>
<circle cx="243" cy="52" r="1" fill="#D9D9D9"/>
<circle cx="253" cy="52" r="1" fill="#D9D9D9"/>
<circle cx="263" cy="52" r="1" fill="#D9D9D9"/>
<circle cx="273" cy="52" r="1" fill="#D9D9D9"/>
<circle cx="283" cy="52" r="1" fill="#D9D9D9"/>
<circle cx="293" cy="52" r="1" fill="#D9D9D9"/>
<circle cx="303" cy="52" r="1" fill="#D9D9D9"/>
<circle cx="313" cy="52" r="1" fill="#D9D9D9"/>
<circle cx="323" cy="52" r="1" fill="#D9D9D9"/>
<circle cx="333" cy="52" r="1" fill="#D9D9D9"/>
<circle cx="343" cy="52" r="1" fill="#D9D9D9"/>
<circle cx="353" cy="52" r="1" fill="#D9D9D9"/>
<circle cx="3" cy="62" r="1" fill="#D9D9D9"/>
<circle cx="13" cy="62" r="1" fill="#D9D9D9"/>
<circle cx="23" cy="62" r="1" fill="#D9D9D9"/>
<circle cx="33" cy="62" r="1" fill="#D9D9D9"/>
<circle cx="43" cy="62" r="1" fill="#D9D9D9"/>
<circle cx="53" cy="62" r="1" fill="#D9D9D9"/>
<circle cx="63" cy="62" r="1" fill="#D9D9D9"/>
<circle cx="73" cy="62" r="1" fill="#D9D9D9"/>
<circle cx="83" cy="62" r="1" fill="#D9D9D9"/>
<circle cx="93" cy="62" r="1" fill="#D9D9D9"/>
<circle cx="103" cy="62" r="1" fill="#D9D9D9"/>
<circle cx="113" cy="62" r="1" fill="#D9D9D9"/>
<circle cx="123" cy="62" r="1" fill="#D9D9D9"/>
<circle cx="133" cy="62" r="1" fill="#D9D9D9"/>
<circle cx="143" cy="62" r="1" fill="#D9D9D9"/>
<circle cx="153" cy="62" r="1" fill="#D9D9D9"/>
<circle cx="163" cy="62" r="1" fill="#D9D9D9"/>
<circle cx="173" cy="62" r="1" fill="#D9D9D9"/>
<circle cx="183" cy="62" r="1" fill="#D9D9D9"/>
<circle cx="193" cy="62" r="1" fill="#D9D9D9"/>
<circle cx="203" cy="62" r="1" fill="#D9D9D9"/>
<circle cx="213" cy="62" r="1" fill="#D9D9D9"/>
<circle cx="223" cy="62" r="1" fill="#D9D9D9"/>
<circle cx="233" cy="62" r="1" fill="#D9D9D9"/>
<circle cx="243" cy="62" r="1" fill="#D9D9D9"/>
<circle cx="253" cy="62" r="1" fill="#D9D9D9"/>
<circle cx="263" cy="62" r="1" fill="#D9D9D9"/>
<circle cx="273" cy="62" r="1" fill="#D9D9D9"/>
<circle cx="283" cy="62" r="1" fill="#D9D9D9"/>
<circle cx="293" cy="62" r="1" fill="#D9D9D9"/>
<circle cx="303" cy="62" r="1" fill="#D9D9D9"/>
<circle cx="313" cy="62" r="1" fill="#D9D9D9"/>
<circle cx="323" cy="62" r="1" fill="#D9D9D9"/>
<circle cx="333" cy="62" r="1" fill="#D9D9D9"/>
<circle cx="343" cy="62" r="1" fill="#D9D9D9"/>
<circle cx="353" cy="62" r="1" fill="#D9D9D9"/>
<circle cx="3" cy="72" r="1" fill="#D9D9D9"/>
<circle cx="13" cy="72" r="1" fill="#D9D9D9"/>
<circle cx="23" cy="72" r="1" fill="#D9D9D9"/>
<circle cx="33" cy="72" r="1" fill="#D9D9D9"/>
<circle cx="43" cy="72" r="1" fill="#D9D9D9"/>
<circle cx="53" cy="72" r="1" fill="#D9D9D9"/>
<circle cx="63" cy="72" r="1" fill="#D9D9D9"/>
<circle cx="73" cy="72" r="1" fill="#D9D9D9"/>
<circle cx="83" cy="72" r="1" fill="#D9D9D9"/>
<circle cx="93" cy="72" r="1" fill="#D9D9D9"/>
<circle cx="103" cy="72" r="1" fill="#D9D9D9"/>
<circle cx="113" cy="72" r="1" fill="#D9D9D9"/>
<circle cx="123" cy="72" r="1" fill="#D9D9D9"/>
<circle cx="133" cy="72" r="1" fill="#D9D9D9"/>
<circle cx="143" cy="72" r="1" fill="#D9D9D9"/>
<circle cx="153" cy="72" r="1" fill="#D9D9D9"/>
<circle cx="163" cy="72" r="1" fill="#D9D9D9"/>
<circle cx="173" cy="72" r="1" fill="#D9D9D9"/>
<circle cx="183" cy="72" r="1" fill="#D9D9D9"/>
<circle cx="193" cy="72" r="1" fill="#D9D9D9"/>
<circle cx="203" cy="72" r="1" fill="#D9D9D9"/>
<circle cx="213" cy="72" r="1" fill="#D9D9D9"/>
<circle cx="223" cy="72" r="1" fill="#D9D9D9"/>
<circle cx="233" cy="72" r="1" fill="#D9D9D9"/>
<circle cx="243" cy="72" r="1" fill="#D9D9D9"/>
<circle cx="253" cy="72" r="1" fill="#D9D9D9"/>
<circle cx="263" cy="72" r="1" fill="#D9D9D9"/>
<circle cx="273" cy="72" r="1" fill="#D9D9D9"/>
<circle cx="283" cy="72" r="1" fill="#D9D9D9"/>
<circle cx="293" cy="72" r="1" fill="#D9D9D9"/>
<circle cx="303" cy="72" r="1" fill="#D9D9D9"/>
<circle cx="313" cy="72" r="1" fill="#D9D9D9"/>
<circle cx="323" cy="72" r="1" fill="#D9D9D9"/>
<circle cx="333" cy="72" r="1" fill="#D9D9D9"/>
<circle cx="343" cy="72" r="1" fill="#D9D9D9"/>
<circle cx="353" cy="72" r="1" fill="#D9D9D9"/>
<circle cx="3" cy="82" r="1" fill="#D9D9D9"/>
<circle cx="13" cy="82" r="1" fill="#D9D9D9"/>
<circle cx="23" cy="82" r="1" fill="#D9D9D9"/>
<circle cx="33" cy="82" r="1" fill="#D9D9D9"/>
<circle cx="43" cy="82" r="1" fill="#D9D9D9"/>
<circle cx="53" cy="82" r="1" fill="#D9D9D9"/>
<circle cx="63" cy="82" r="1" fill="#D9D9D9"/>
<circle cx="73" cy="82" r="1" fill="#D9D9D9"/>
<circle cx="83" cy="82" r="1" fill="#D9D9D9"/>
<circle cx="93" cy="82" r="1" fill="#D9D9D9"/>
<circle cx="103" cy="82" r="1" fill="#D9D9D9"/>
<circle cx="113" cy="82" r="1" fill="#D9D9D9"/>
<circle cx="123" cy="82" r="1" fill="#D9D9D9"/>
<circle cx="133" cy="82" r="1" fill="#D9D9D9"/>
<circle cx="143" cy="82" r="1" fill="#D9D9D9"/>
<circle cx="153" cy="82" r="1" fill="#D9D9D9"/>
<circle cx="163" cy="82" r="1" fill="#D9D9D9"/>
<circle cx="173" cy="82" r="1" fill="#D9D9D9"/>
<circle cx="183" cy="82" r="1" fill="#D9D9D9"/>
<circle cx="193" cy="82" r="1" fill="#D9D9D9"/>
<circle cx="203" cy="82" r="1" fill="#D9D9D9"/>
<circle cx="213" cy="82" r="1" fill="#D9D9D9"/>
<circle cx="223" cy="82" r="1" fill="#D9D9D9"/>
<circle cx="233" cy="82" r="1" fill="#D9D9D9"/>
<circle cx="243" cy="82" r="1" fill="#D9D9D9"/>
<circle cx="253" cy="82" r="1" fill="#D9D9D9"/>
<circle cx="263" cy="82" r="1" fill="#D9D9D9"/>
<circle cx="273" cy="82" r="1" fill="#D9D9D9"/>
<circle cx="283" cy="82" r="1" fill="#D9D9D9"/>
<circle cx="293" cy="82" r="1" fill="#D9D9D9"/>
<circle cx="303" cy="82" r="1" fill="#D9D9D9"/>
<circle cx="313" cy="82" r="1" fill="#D9D9D9"/>
<circle cx="323" cy="82" r="1" fill="#D9D9D9"/>
<circle cx="333" cy="82" r="1" fill="#D9D9D9"/>
<circle cx="343" cy="82" r="1" fill="#D9D9D9"/>
<circle cx="353" cy="82" r="1" fill="#D9D9D9"/>
<circle cx="3" cy="92" r="1" fill="#D9D9D9"/>
<circle cx="13" cy="92" r="1" fill="#D9D9D9"/>
<circle cx="23" cy="92" r="1" fill="#D9D9D9"/>
<circle cx="33" cy="92" r="1" fill="#D9D9D9"/>
<circle cx="43" cy="92" r="1" fill="#D9D9D9"/>
<circle cx="53" cy="92" r="1" fill="#D9D9D9"/>
<circle cx="63" cy="92" r="1" fill="#D9D9D9"/>
<circle cx="73" cy="92" r="1" fill="#D9D9D9"/>
<circle cx="83" cy="92" r="1" fill="#D9D9D9"/>
<circle cx="93" cy="92" r="1" fill="#D9D9D9"/>
<circle cx="103" cy="92" r="1" fill="#D9D9D9"/>
<circle cx="113" cy="92" r="1" fill="#D9D9D9"/>
<circle cx="123" cy="92" r="1" fill="#D9D9D9"/>
<circle cx="133" cy="92" r="1" fill="#D9D9D9"/>
<circle cx="143" cy="92" r="1" fill="#D9D9D9"/>
<circle cx="153" cy="92" r="1" fill="#D9D9D9"/>
<circle cx="163" cy="92" r="1" fill="#D9D9D9"/>
<circle cx="173" cy="92" r="1" fill="#D9D9D9"/>
<circle cx="183" cy="92" r="1" fill="#D9D9D9"/>
<circle cx="193" cy="92" r="1" fill="#D9D9D9"/>
<circle cx="203" cy="92" r="1" fill="#D9D9D9"/>
<circle cx="213" cy="92" r="1" fill="#D9D9D9"/>
<circle cx="223" cy="92" r="1" fill="#D9D9D9"/>
<circle cx="233" cy="92" r="1" fill="#D9D9D9"/>
<circle cx="243" cy="92" r="1" fill="#D9D9D9"/>
<circle cx="253" cy="92" r="1" fill="#D9D9D9"/>
<circle cx="263" cy="92" r="1" fill="#D9D9D9"/>
<circle cx="273" cy="92" r="1" fill="#D9D9D9"/>
<circle cx="283" cy="92" r="1" fill="#D9D9D9"/>
<circle cx="293" cy="92" r="1" fill="#D9D9D9"/>
<circle cx="303" cy="92" r="1" fill="#D9D9D9"/>
<circle cx="313" cy="92" r="1" fill="#D9D9D9"/>
<circle cx="323" cy="92" r="1" fill="#D9D9D9"/>
<circle cx="333" cy="92" r="1" fill="#D9D9D9"/>
<circle cx="343" cy="92" r="1" fill="#D9D9D9"/>
<circle cx="353" cy="92" r="1" fill="#D9D9D9"/>
<circle cx="3" cy="102" r="1" fill="#D9D9D9"/>
<circle cx="13" cy="102" r="1" fill="#D9D9D9"/>
<circle cx="23" cy="102" r="1" fill="#D9D9D9"/>
<circle cx="33" cy="102" r="1" fill="#D9D9D9"/>
<circle cx="43" cy="102" r="1" fill="#D9D9D9"/>
<circle cx="53" cy="102" r="1" fill="#D9D9D9"/>
<circle cx="63" cy="102" r="1" fill="#D9D9D9"/>
<circle cx="73" cy="102" r="1" fill="#D9D9D9"/>
<circle cx="83" cy="102" r="1" fill="#D9D9D9"/>
<circle cx="93" cy="102" r="1" fill="#D9D9D9"/>
<circle cx="103" cy="102" r="1" fill="#D9D9D9"/>
<circle cx="113" cy="102" r="1" fill="#D9D9D9"/>
<circle cx="123" cy="102" r="1" fill="#D9D9D9"/>
<circle cx="133" cy="102" r="1" fill="#D9D9D9"/>
<circle cx="143" cy="102" r="1" fill="#D9D9D9"/>
<circle cx="153" cy="102" r="1" fill="#D9D9D9"/>
<circle cx="163" cy="102" r="1" fill="#D9D9D9"/>
<circle cx="173" cy="102" r="1" fill="#D9D9D9"/>
<circle cx="183" cy="102" r="1" fill="#D9D9D9"/>
<circle cx="193" cy="102" r="1" fill="#D9D9D9"/>
<circle cx="203" cy="102" r="1" fill="#D9D9D9"/>
<circle cx="213" cy="102" r="1" fill="#D9D9D9"/>
<circle cx="223" cy="102" r="1" fill="#D9D9D9"/>
<circle cx="233" cy="102" r="1" fill="#D9D9D9"/>
<circle cx="243" cy="102" r="1" fill="#D9D9D9"/>
<circle cx="253" cy="102" r="1" fill="#D9D9D9"/>
<circle cx="263" cy="102" r="1" fill="#D9D9D9"/>
<circle cx="273" cy="102" r="1" fill="#D9D9D9"/>
<circle cx="283" cy="102" r="1" fill="#D9D9D9"/>
<circle cx="293" cy="102" r="1" fill="#D9D9D9"/>
<circle cx="303" cy="102" r="1" fill="#D9D9D9"/>
<circle cx="313" cy="102" r="1" fill="#D9D9D9"/>
<circle cx="323" cy="102" r="1" fill="#D9D9D9"/>
<circle cx="333" cy="102" r="1" fill="#D9D9D9"/>
<circle cx="343" cy="102" r="1" fill="#D9D9D9"/>
<circle cx="353" cy="102" r="1" fill="#D9D9D9"/>
<circle cx="3" cy="112" r="1" fill="#D9D9D9"/>
<circle cx="13" cy="112" r="1" fill="#D9D9D9"/>
<circle cx="23" cy="112" r="1" fill="#D9D9D9"/>
<circle cx="33" cy="112" r="1" fill="#D9D9D9"/>
<circle cx="43" cy="112" r="1" fill="#D9D9D9"/>
<circle cx="53" cy="112" r="1" fill="#D9D9D9"/>
<circle cx="63" cy="112" r="1" fill="#D9D9D9"/>
<circle cx="73" cy="112" r="1" fill="#D9D9D9"/>
<circle cx="83" cy="112" r="1" fill="#D9D9D9"/>
<circle cx="93" cy="112" r="1" fill="#D9D9D9"/>
<circle cx="103" cy="112" r="1" fill="#D9D9D9"/>
<circle cx="113" cy="112" r="1" fill="#D9D9D9"/>
<circle cx="123" cy="112" r="1" fill="#D9D9D9"/>
<circle cx="133" cy="112" r="1" fill="#D9D9D9"/>
<circle cx="143" cy="112" r="1" fill="#D9D9D9"/>
<circle cx="153" cy="112" r="1" fill="#D9D9D9"/>
<circle cx="163" cy="112" r="1" fill="#D9D9D9"/>
<circle cx="173" cy="112" r="1" fill="#D9D9D9"/>
<circle cx="183" cy="112" r="1" fill="#D9D9D9"/>
<circle cx="193" cy="112" r="1" fill="#D9D9D9"/>
<circle cx="203" cy="112" r="1" fill="#D9D9D9"/>
<circle cx="213" cy="112" r="1" fill="#D9D9D9"/>
<circle cx="223" cy="112" r="1" fill="#D9D9D9"/>
<circle cx="233" cy="112" r="1" fill="#D9D9D9"/>
<circle cx="243" cy="112" r="1" fill="#D9D9D9"/>
<circle cx="253" cy="112" r="1" fill="#D9D9D9"/>
<circle cx="263" cy="112" r="1" fill="#D9D9D9"/>
<circle cx="273" cy="112" r="1" fill="#D9D9D9"/>
<circle cx="283" cy="112" r="1" fill="#D9D9D9"/>
<circle cx="293" cy="112" r="1" fill="#D9D9D9"/>
<circle cx="303" cy="112" r="1" fill="#D9D9D9"/>
<circle cx="313" cy="112" r="1" fill="#D9D9D9"/>
<circle cx="323" cy="112" r="1" fill="#D9D9D9"/>
<circle cx="333" cy="112" r="1" fill="#D9D9D9"/>
<circle cx="343" cy="112" r="1" fill="#D9D9D9"/>
<circle cx="353" cy="112" r="1" fill="#D9D9D9"/>
<circle cx="3" cy="122" r="1" fill="#D9D9D9"/>
<circle cx="13" cy="122" r="1" fill="#D9D9D9"/>
<circle cx="23" cy="122" r="1" fill="#D9D9D9"/>
<circle cx="33" cy="122" r="1" fill="#D9D9D9"/>
<circle cx="43" cy="122" r="1" fill="#D9D9D9"/>
<circle cx="53" cy="122" r="1" fill="#D9D9D9"/>
<circle cx="63" cy="122" r="1" fill="#D9D9D9"/>
<circle cx="73" cy="122" r="1" fill="#D9D9D9"/>
<circle cx="83" cy="122" r="1" fill="#D9D9D9"/>
<circle cx="93" cy="122" r="1" fill="#D9D9D9"/>
<circle cx="103" cy="122" r="1" fill="#D9D9D9"/>
<circle cx="113" cy="122" r="1" fill="#D9D9D9"/>
<circle cx="123" cy="122" r="1" fill="#D9D9D9"/>
<circle cx="133" cy="122" r="1" fill="#D9D9D9"/>
<circle cx="143" cy="122" r="1" fill="#D9D9D9"/>
<circle cx="153" cy="122" r="1" fill="#D9D9D9"/>
<circle cx="163" cy="122" r="1" fill="#D9D9D9"/>
<circle cx="173" cy="122" r="1" fill="#D9D9D9"/>
<circle cx="183" cy="122" r="1" fill="#D9D9D9"/>
<circle cx="193" cy="122" r="1" fill="#D9D9D9"/>
<circle cx="203" cy="122" r="1" fill="#D9D9D9"/>
<circle cx="213" cy="122" r="1" fill="#D9D9D9"/>
<circle cx="223" cy="122" r="1" fill="#D9D9D9"/>
<circle cx="233" cy="122" r="1" fill="#D9D9D9"/>
<circle cx="243" cy="122" r="1" fill="#D9D9D9"/>
<circle cx="253" cy="122" r="1" fill="#D9D9D9"/>
<circle cx="263" cy="122" r="1" fill="#D9D9D9"/>
<circle cx="273" cy="122" r="1" fill="#D9D9D9"/>
<circle cx="283" cy="122" r="1" fill="#D9D9D9"/>
<circle cx="293" cy="122" r="1" fill="#D9D9D9"/>
<circle cx="303" cy="122" r="1" fill="#D9D9D9"/>
<circle cx="313" cy="122" r="1" fill="#D9D9D9"/>
<circle cx="323" cy="122" r="1" fill="#D9D9D9"/>
<circle cx="333" cy="122" r="1" fill="#D9D9D9"/>
<circle cx="343" cy="122" r="1" fill="#D9D9D9"/>
<circle cx="353" cy="122" r="1" fill="#D9D9D9"/>
<circle cx="3" cy="132" r="1" fill="#D9D9D9"/>
<circle cx="13" cy="132" r="1" fill="#D9D9D9"/>
<circle cx="23" cy="132" r="1" fill="#D9D9D9"/>
<circle cx="33" cy="132" r="1" fill="#D9D9D9"/>
<circle cx="43" cy="132" r="1" fill="#D9D9D9"/>
<circle cx="53" cy="132" r="1" fill="#D9D9D9"/>
<circle cx="63" cy="132" r="1" fill="#D9D9D9"/>
<circle cx="73" cy="132" r="1" fill="#D9D9D9"/>
<circle cx="83" cy="132" r="1" fill="#D9D9D9"/>
<circle cx="93" cy="132" r="1" fill="#D9D9D9"/>
<circle cx="103" cy="132" r="1" fill="#D9D9D9"/>
<circle cx="113" cy="132" r="1" fill="#D9D9D9"/>
<circle cx="123" cy="132" r="1" fill="#D9D9D9"/>
<circle cx="133" cy="132" r="1" fill="#D9D9D9"/>
<circle cx="143" cy="132" r="1" fill="#D9D9D9"/>
<circle cx="153" cy="132" r="1" fill="#D9D9D9"/>
<circle cx="163" cy="132" r="1" fill="#D9D9D9"/>
<circle cx="173" cy="132" r="1" fill="#D9D9D9"/>
<circle cx="183" cy="132" r="1" fill="#D9D9D9"/>
<circle cx="193" cy="132" r="1" fill="#D9D9D9"/>
<circle cx="203" cy="132" r="1" fill="#D9D9D9"/>
<circle cx="213" cy="132" r="1" fill="#D9D9D9"/>
<circle cx="223" cy="132" r="1" fill="#D9D9D9"/>
<circle cx="233" cy="132" r="1" fill="#D9D9D9"/>
<circle cx="243" cy="132" r="1" fill="#D9D9D9"/>
<circle cx="253" cy="132" r="1" fill="#D9D9D9"/>
<circle cx="263" cy="132" r="1" fill="#D9D9D9"/>
<circle cx="273" cy="132" r="1" fill="#D9D9D9"/>
<circle cx="283" cy="132" r="1" fill="#D9D9D9"/>
<circle cx="293" cy="132" r="1" fill="#D9D9D9"/>
<circle cx="303" cy="132" r="1" fill="#D9D9D9"/>
<circle cx="313" cy="132" r="1" fill="#D9D9D9"/>
<circle cx="323" cy="132" r="1" fill="#D9D9D9"/>
<circle cx="333" cy="132" r="1" fill="#D9D9D9"/>
<circle cx="343" cy="132" r="1" fill="#D9D9D9"/>
<circle cx="353" cy="132" r="1" fill="#D9D9D9"/>
<circle cx="3" cy="142" r="1" fill="#D9D9D9"/>
<circle cx="13" cy="142" r="1" fill="#D9D9D9"/>
<circle cx="23" cy="142" r="1" fill="#D9D9D9"/>
<circle cx="33" cy="142" r="1" fill="#D9D9D9"/>
<circle cx="43" cy="142" r="1" fill="#D9D9D9"/>
<circle cx="53" cy="142" r="1" fill="#D9D9D9"/>
<circle cx="63" cy="142" r="1" fill="#D9D9D9"/>
<circle cx="73" cy="142" r="1" fill="#D9D9D9"/>
<circle cx="83" cy="142" r="1" fill="#D9D9D9"/>
<circle cx="93" cy="142" r="1" fill="#D9D9D9"/>
<circle cx="103" cy="142" r="1" fill="#D9D9D9"/>
<circle cx="113" cy="142" r="1" fill="#D9D9D9"/>
<circle cx="123" cy="142" r="1" fill="#D9D9D9"/>
<circle cx="133" cy="142" r="1" fill="#D9D9D9"/>
<circle cx="143" cy="142" r="1" fill="#D9D9D9"/>
<circle cx="153" cy="142" r="1" fill="#D9D9D9"/>
<circle cx="163" cy="142" r="1" fill="#D9D9D9"/>
<circle cx="173" cy="142" r="1" fill="#D9D9D9"/>
<circle cx="183" cy="142" r="1" fill="#D9D9D9"/>
<circle cx="193" cy="142" r="1" fill="#D9D9D9"/>
<circle cx="203" cy="142" r="1" fill="#D9D9D9"/>
<circle cx="213" cy="142" r="1" fill="#D9D9D9"/>
<circle cx="223" cy="142" r="1" fill="#D9D9D9"/>
<circle cx="233" cy="142" r="1" fill="#D9D9D9"/>
<circle cx="243" cy="142" r="1" fill="#D9D9D9"/>
<circle cx="253" cy="142" r="1" fill="#D9D9D9"/>
<circle cx="263" cy="142" r="1" fill="#D9D9D9"/>
<circle cx="273" cy="142" r="1" fill="#D9D9D9"/>
<circle cx="283" cy="142" r="1" fill="#D9D9D9"/>
<circle cx="293" cy="142" r="1" fill="#D9D9D9"/>
<circle cx="303" cy="142" r="1" fill="#D9D9D9"/>
<circle cx="313" cy="142" r="1" fill="#D9D9D9"/>
<circle cx="323" cy="142" r="1" fill="#D9D9D9"/>
<circle cx="333" cy="142" r="1" fill="#D9D9D9"/>
<circle cx="343" cy="142" r="1" fill="#D9D9D9"/>
<circle cx="353" cy="142" r="1" fill="#D9D9D9"/>
<circle cx="3" cy="152" r="1" fill="#D9D9D9"/>
<circle cx="13" cy="152" r="1" fill="#D9D9D9"/>
<circle cx="23" cy="152" r="1" fill="#D9D9D9"/>
<circle cx="33" cy="152" r="1" fill="#D9D9D9"/>
<circle cx="43" cy="152" r="1" fill="#D9D9D9"/>
<circle cx="53" cy="152" r="1" fill="#D9D9D9"/>
<circle cx="63" cy="152" r="1" fill="#D9D9D9"/>
<circle cx="73" cy="152" r="1" fill="#D9D9D9"/>
<circle cx="83" cy="152" r="1" fill="#D9D9D9"/>
<circle cx="93" cy="152" r="1" fill="#D9D9D9"/>
<circle cx="103" cy="152" r="1" fill="#D9D9D9"/>
<circle cx="113" cy="152" r="1" fill="#D9D9D9"/>
<circle cx="123" cy="152" r="1" fill="#D9D9D9"/>
<circle cx="133" cy="152" r="1" fill="#D9D9D9"/>
<circle cx="143" cy="152" r="1" fill="#D9D9D9"/>
<circle cx="153" cy="152" r="1" fill="#D9D9D9"/>
<circle cx="163" cy="152" r="1" fill="#D9D9D9"/>
<circle cx="173" cy="152" r="1" fill="#D9D9D9"/>
<circle cx="183" cy="152" r="1" fill="#D9D9D9"/>
<circle cx="193" cy="152" r="1" fill="#D9D9D9"/>
<circle cx="203" cy="152" r="1" fill="#D9D9D9"/>
<circle cx="213" cy="152" r="1" fill="#D9D9D9"/>
<circle cx="223" cy="152" r="1" fill="#D9D9D9"/>
<circle cx="233" cy="152" r="1" fill="#D9D9D9"/>
<circle cx="243" cy="152" r="1" fill="#D9D9D9"/>
<circle cx="253" cy="152" r="1" fill="#D9D9D9"/>
<circle cx="263" cy="152" r="1" fill="#D9D9D9"/>
<circle cx="273" cy="152" r="1" fill="#D9D9D9"/>
<circle cx="283" cy="152" r="1" fill="#D9D9D9"/>
<circle cx="293" cy="152" r="1" fill="#D9D9D9"/>
<circle cx="303" cy="152" r="1" fill="#D9D9D9"/>
<circle cx="313" cy="152" r="1" fill="#D9D9D9"/>
<circle cx="323" cy="152" r="1" fill="#D9D9D9"/>
<circle cx="333" cy="152" r="1" fill="#D9D9D9"/>
<circle cx="343" cy="152" r="1" fill="#D9D9D9"/>
<circle cx="353" cy="152" r="1" fill="#D9D9D9"/>
<circle cx="3" cy="162" r="1" fill="#D9D9D9"/>
<circle cx="13" cy="162" r="1" fill="#D9D9D9"/>
<circle cx="23" cy="162" r="1" fill="#D9D9D9"/>
<circle cx="33" cy="162" r="1" fill="#D9D9D9"/>
<circle cx="43" cy="162" r="1" fill="#D9D9D9"/>
<circle cx="53" cy="162" r="1" fill="#D9D9D9"/>
<circle cx="63" cy="162" r="1" fill="#D9D9D9"/>
<circle cx="73" cy="162" r="1" fill="#D9D9D9"/>
<circle cx="83" cy="162" r="1" fill="#D9D9D9"/>
<circle cx="93" cy="162" r="1" fill="#D9D9D9"/>
<circle cx="103" cy="162" r="1" fill="#D9D9D9"/>
<circle cx="113" cy="162" r="1" fill="#D9D9D9"/>
<circle cx="123" cy="162" r="1" fill="#D9D9D9"/>
<circle cx="133" cy="162" r="1" fill="#D9D9D9"/>
<circle cx="143" cy="162" r="1" fill="#D9D9D9"/>
<circle cx="153" cy="162" r="1" fill="#D9D9D9"/>
<circle cx="163" cy="162" r="1" fill="#D9D9D9"/>
<circle cx="173" cy="162" r="1" fill="#D9D9D9"/>
<circle cx="183" cy="162" r="1" fill="#D9D9D9"/>
<circle cx="193" cy="162" r="1" fill="#D9D9D9"/>
<circle cx="203" cy="162" r="1" fill="#D9D9D9"/>
<circle cx="213" cy="162" r="1" fill="#D9D9D9"/>
<circle cx="223" cy="162" r="1" fill="#D9D9D9"/>
<circle cx="233" cy="162" r="1" fill="#D9D9D9"/>
<circle cx="243" cy="162" r="1" fill="#D9D9D9"/>
<circle cx="253" cy="162" r="1" fill="#D9D9D9"/>
<circle cx="263" cy="162" r="1" fill="#D9D9D9"/>
<circle cx="273" cy="162" r="1" fill="#D9D9D9"/>
<circle cx="283" cy="162" r="1" fill="#D9D9D9"/>
<circle cx="293" cy="162" r="1" fill="#D9D9D9"/>
<circle cx="303" cy="162" r="1" fill="#D9D9D9"/>
<circle cx="313" cy="162" r="1" fill="#D9D9D9"/>
<circle cx="323" cy="162" r="1" fill="#D9D9D9"/>
<circle cx="333" cy="162" r="1" fill="#D9D9D9"/>
<circle cx="343" cy="162" r="1" fill="#D9D9D9"/>
<circle cx="353" cy="162" r="1" fill="#D9D9D9"/>
<circle cx="3" cy="172" r="1" fill="#D9D9D9"/>
<circle cx="13" cy="172" r="1" fill="#D9D9D9"/>
<circle cx="23" cy="172" r="1" fill="#D9D9D9"/>
<circle cx="33" cy="172" r="1" fill="#D9D9D9"/>
<circle cx="43" cy="172" r="1" fill="#D9D9D9"/>
<circle cx="53" cy="172" r="1" fill="#D9D9D9"/>
<circle cx="63" cy="172" r="1" fill="#D9D9D9"/>
<circle cx="73" cy="172" r="1" fill="#D9D9D9"/>
<circle cx="83" cy="172" r="1" fill="#D9D9D9"/>
<circle cx="93" cy="172" r="1" fill="#D9D9D9"/>
<circle cx="103" cy="172" r="1" fill="#D9D9D9"/>
<circle cx="113" cy="172" r="1" fill="#D9D9D9"/>
<circle cx="123" cy="172" r="1" fill="#D9D9D9"/>
<circle cx="133" cy="172" r="1" fill="#D9D9D9"/>
<circle cx="143" cy="172" r="1" fill="#D9D9D9"/>
<circle cx="153" cy="172" r="1" fill="#D9D9D9"/>
<circle cx="163" cy="172" r="1" fill="#D9D9D9"/>
<circle cx="173" cy="172" r="1" fill="#D9D9D9"/>
<circle cx="183" cy="172" r="1" fill="#D9D9D9"/>
<circle cx="193" cy="172" r="1" fill="#D9D9D9"/>
<circle cx="203" cy="172" r="1" fill="#D9D9D9"/>
<circle cx="213" cy="172" r="1" fill="#D9D9D9"/>
<circle cx="223" cy="172" r="1" fill="#D9D9D9"/>
<circle cx="233" cy="172" r="1" fill="#D9D9D9"/>
<circle cx="243" cy="172" r="1" fill="#D9D9D9"/>
<circle cx="253" cy="172" r="1" fill="#D9D9D9"/>
<circle cx="263" cy="172" r="1" fill="#D9D9D9"/>
<circle cx="273" cy="172" r="1" fill="#D9D9D9"/>
<circle cx="283" cy="172" r="1" fill="#D9D9D9"/>
<circle cx="293" cy="172" r="1" fill="#D9D9D9"/>
<circle cx="303" cy="172" r="1" fill="#D9D9D9"/>
<circle cx="313" cy="172" r="1" fill="#D9D9D9"/>
<circle cx="323" cy="172" r="1" fill="#D9D9D9"/>
<circle cx="333" cy="172" r="1" fill="#D9D9D9"/>
<circle cx="343" cy="172" r="1" fill="#D9D9D9"/>
<circle cx="353" cy="172" r="1" fill="#D9D9D9"/>
<circle cx="3" cy="182" r="1" fill="#D9D9D9"/>
<circle cx="13" cy="182" r="1" fill="#D9D9D9"/>
<circle cx="23" cy="182" r="1" fill="#D9D9D9"/>
<circle cx="33" cy="182" r="1" fill="#D9D9D9"/>
<circle cx="43" cy="182" r="1" fill="#D9D9D9"/>
<circle cx="53" cy="182" r="1" fill="#D9D9D9"/>
<circle cx="63" cy="182" r="1" fill="#D9D9D9"/>
<circle cx="73" cy="182" r="1" fill="#D9D9D9"/>
<circle cx="83" cy="182" r="1" fill="#D9D9D9"/>
<circle cx="93" cy="182" r="1" fill="#D9D9D9"/>
<circle cx="103" cy="182" r="1" fill="#D9D9D9"/>
<circle cx="113" cy="182" r="1" fill="#D9D9D9"/>
<circle cx="123" cy="182" r="1" fill="#D9D9D9"/>
<circle cx="133" cy="182" r="1" fill="#D9D9D9"/>
<circle cx="143" cy="182" r="1" fill="#D9D9D9"/>
<circle cx="153" cy="182" r="1" fill="#D9D9D9"/>
<circle cx="163" cy="182" r="1" fill="#D9D9D9"/>
<circle cx="173" cy="182" r="1" fill="#D9D9D9"/>
<circle cx="183" cy="182" r="1" fill="#D9D9D9"/>
<circle cx="193" cy="182" r="1" fill="#D9D9D9"/>
<circle cx="203" cy="182" r="1" fill="#D9D9D9"/>
<circle cx="213" cy="182" r="1" fill="#D9D9D9"/>
<circle cx="223" cy="182" r="1" fill="#D9D9D9"/>
<circle cx="233" cy="182" r="1" fill="#D9D9D9"/>
<circle cx="243" cy="182" r="1" fill="#D9D9D9"/>
<circle cx="253" cy="182" r="1" fill="#D9D9D9"/>
<circle cx="263" cy="182" r="1" fill="#D9D9D9"/>
<circle cx="273" cy="182" r="1" fill="#D9D9D9"/>
<circle cx="283" cy="182" r="1" fill="#D9D9D9"/>
<circle cx="293" cy="182" r="1" fill="#D9D9D9"/>
<circle cx="303" cy="182" r="1" fill="#D9D9D9"/>
<circle cx="313" cy="182" r="1" fill="#D9D9D9"/>
<circle cx="323" cy="182" r="1" fill="#D9D9D9"/>
<circle cx="333" cy="182" r="1" fill="#D9D9D9"/>
<circle cx="343" cy="182" r="1" fill="#D9D9D9"/>
<circle cx="353" cy="182" r="1" fill="#D9D9D9"/>
<circle cx="3" cy="192" r="1" fill="#D9D9D9"/>
<circle cx="13" cy="192" r="1" fill="#D9D9D9"/>
<circle cx="23" cy="192" r="1" fill="#D9D9D9"/>
<circle cx="33" cy="192" r="1" fill="#D9D9D9"/>
<circle cx="43" cy="192" r="1" fill="#D9D9D9"/>
<circle cx="53" cy="192" r="1" fill="#D9D9D9"/>
<circle cx="63" cy="192" r="1" fill="#D9D9D9"/>
<circle cx="73" cy="192" r="1" fill="#D9D9D9"/>
<circle cx="83" cy="192" r="1" fill="#D9D9D9"/>
<circle cx="93" cy="192" r="1" fill="#D9D9D9"/>
<circle cx="103" cy="192" r="1" fill="#D9D9D9"/>
<circle cx="113" cy="192" r="1" fill="#D9D9D9"/>
<circle cx="123" cy="192" r="1" fill="#D9D9D9"/>
<circle cx="133" cy="192" r="1" fill="#D9D9D9"/>
<circle cx="143" cy="192" r="1" fill="#D9D9D9"/>
<circle cx="153" cy="192" r="1" fill="#D9D9D9"/>
<circle cx="163" cy="192" r="1" fill="#D9D9D9"/>
<circle cx="173" cy="192" r="1" fill="#D9D9D9"/>
<circle cx="183" cy="192" r="1" fill="#D9D9D9"/>
<circle cx="193" cy="192" r="1" fill="#D9D9D9"/>
<circle cx="203" cy="192" r="1" fill="#D9D9D9"/>
<circle cx="213" cy="192" r="1" fill="#D9D9D9"/>
<circle cx="223" cy="192" r="1" fill="#D9D9D9"/>
<circle cx="233" cy="192" r="1" fill="#D9D9D9"/>
<circle cx="243" cy="192" r="1" fill="#D9D9D9"/>
<circle cx="253" cy="192" r="1" fill="#D9D9D9"/>
<circle cx="263" cy="192" r="1" fill="#D9D9D9"/>
<circle cx="273" cy="192" r="1" fill="#D9D9D9"/>
<circle cx="283" cy="192" r="1" fill="#D9D9D9"/>
<circle cx="293" cy="192" r="1" fill="#D9D9D9"/>
<circle cx="303" cy="192" r="1" fill="#D9D9D9"/>
<circle cx="313" cy="192" r="1" fill="#D9D9D9"/>
<circle cx="323" cy="192" r="1" fill="#D9D9D9"/>
<circle cx="333" cy="192" r="1" fill="#D9D9D9"/>
<circle cx="343" cy="192" r="1" fill="#D9D9D9"/>
<circle cx="353" cy="192" r="1" fill="#D9D9D9"/>
<circle cx="3" cy="202" r="1" fill="#D9D9D9"/>
<circle cx="13" cy="202" r="1" fill="#D9D9D9"/>
<circle cx="23" cy="202" r="1" fill="#D9D9D9"/>
<circle cx="33" cy="202" r="1" fill="#D9D9D9"/>
<circle cx="43" cy="202" r="1" fill="#D9D9D9"/>
<circle cx="53" cy="202" r="1" fill="#D9D9D9"/>
<circle cx="63" cy="202" r="1" fill="#D9D9D9"/>
<circle cx="73" cy="202" r="1" fill="#D9D9D9"/>
<circle cx="83" cy="202" r="1" fill="#D9D9D9"/>
<circle cx="93" cy="202" r="1" fill="#D9D9D9"/>
<circle cx="103" cy="202" r="1" fill="#D9D9D9"/>
<circle cx="113" cy="202" r="1" fill="#D9D9D9"/>
<circle cx="123" cy="202" r="1" fill="#D9D9D9"/>
<circle cx="133" cy="202" r="1" fill="#D9D9D9"/>
<circle cx="143" cy="202" r="1" fill="#D9D9D9"/>
<circle cx="153" cy="202" r="1" fill="#D9D9D9"/>
<circle cx="163" cy="202" r="1" fill="#D9D9D9"/>
<circle cx="173" cy="202" r="1" fill="#D9D9D9"/>
<circle cx="183" cy="202" r="1" fill="#D9D9D9"/>
<circle cx="193" cy="202" r="1" fill="#D9D9D9"/>
<circle cx="203" cy="202" r="1" fill="#D9D9D9"/>
<circle cx="213" cy="202" r="1" fill="#D9D9D9"/>
<circle cx="223" cy="202" r="1" fill="#D9D9D9"/>
<circle cx="233" cy="202" r="1" fill="#D9D9D9"/>
<circle cx="243" cy="202" r="1" fill="#D9D9D9"/>
<circle cx="253" cy="202" r="1" fill="#D9D9D9"/>
<circle cx="263" cy="202" r="1" fill="#D9D9D9"/>
<circle cx="273" cy="202" r="1" fill="#D9D9D9"/>
<circle cx="283" cy="202" r="1" fill="#D9D9D9"/>
<circle cx="293" cy="202" r="1" fill="#D9D9D9"/>
<circle cx="303" cy="202" r="1" fill="#D9D9D9"/>
<circle cx="313" cy="202" r="1" fill="#D9D9D9"/>
<circle cx="323" cy="202" r="1" fill="#D9D9D9"/>
<circle cx="333" cy="202" r="1" fill="#D9D9D9"/>
<circle cx="343" cy="202" r="1" fill="#D9D9D9"/>
<circle cx="353" cy="202" r="1" fill="#D9D9D9"/>
<circle cx="3" cy="212" r="1" fill="#D9D9D9"/>
<circle cx="13" cy="212" r="1" fill="#D9D9D9"/>
<circle cx="23" cy="212" r="1" fill="#D9D9D9"/>
<circle cx="33" cy="212" r="1" fill="#D9D9D9"/>
<circle cx="43" cy="212" r="1" fill="#D9D9D9"/>
<circle cx="53" cy="212" r="1" fill="#D9D9D9"/>
<circle cx="63" cy="212" r="1" fill="#D9D9D9"/>
<circle cx="73" cy="212" r="1" fill="#D9D9D9"/>
<circle cx="83" cy="212" r="1" fill="#D9D9D9"/>
<circle cx="93" cy="212" r="1" fill="#D9D9D9"/>
<circle cx="103" cy="212" r="1" fill="#D9D9D9"/>
<circle cx="113" cy="212" r="1" fill="#D9D9D9"/>
<circle cx="123" cy="212" r="1" fill="#D9D9D9"/>
<circle cx="133" cy="212" r="1" fill="#D9D9D9"/>
<circle cx="143" cy="212" r="1" fill="#D9D9D9"/>
<circle cx="153" cy="212" r="1" fill="#D9D9D9"/>
<circle cx="163" cy="212" r="1" fill="#D9D9D9"/>
<circle cx="173" cy="212" r="1" fill="#D9D9D9"/>
<circle cx="183" cy="212" r="1" fill="#D9D9D9"/>
<circle cx="193" cy="212" r="1" fill="#D9D9D9"/>
<circle cx="203" cy="212" r="1" fill="#D9D9D9"/>
<circle cx="213" cy="212" r="1" fill="#D9D9D9"/>
<circle cx="223" cy="212" r="1" fill="#D9D9D9"/>
<circle cx="233" cy="212" r="1" fill="#D9D9D9"/>
<circle cx="243" cy="212" r="1" fill="#D9D9D9"/>
<circle cx="253" cy="212" r="1" fill="#D9D9D9"/>
<circle cx="263" cy="212" r="1" fill="#D9D9D9"/>
<circle cx="273" cy="212" r="1" fill="#D9D9D9"/>
<circle cx="283" cy="212" r="1" fill="#D9D9D9"/>
<circle cx="293" cy="212" r="1" fill="#D9D9D9"/>
<circle cx="303" cy="212" r="1" fill="#D9D9D9"/>
<circle cx="313" cy="212" r="1" fill="#D9D9D9"/>
<circle cx="323" cy="212" r="1" fill="#D9D9D9"/>
<circle cx="333" cy="212" r="1" fill="#D9D9D9"/>
<circle cx="343" cy="212" r="1" fill="#D9D9D9"/>
<circle cx="353" cy="212" r="1" fill="#D9D9D9"/>
<circle cx="3" cy="222" r="1" fill="#D9D9D9"/>
<circle cx="13" cy="222" r="1" fill="#D9D9D9"/>
<circle cx="23" cy="222" r="1" fill="#D9D9D9"/>
<circle cx="33" cy="222" r="1" fill="#D9D9D9"/>
<circle cx="43" cy="222" r="1" fill="#D9D9D9"/>
<circle cx="53" cy="222" r="1" fill="#D9D9D9"/>
<circle cx="63" cy="222" r="1" fill="#D9D9D9"/>
<circle cx="73" cy="222" r="1" fill="#D9D9D9"/>
<circle cx="83" cy="222" r="1" fill="#D9D9D9"/>
<circle cx="93" cy="222" r="1" fill="#D9D9D9"/>
<circle cx="103" cy="222" r="1" fill="#D9D9D9"/>
<circle cx="113" cy="222" r="1" fill="#D9D9D9"/>
<circle cx="123" cy="222" r="1" fill="#D9D9D9"/>
<circle cx="133" cy="222" r="1" fill="#D9D9D9"/>
<circle cx="143" cy="222" r="1" fill="#D9D9D9"/>
<circle cx="153" cy="222" r="1" fill="#D9D9D9"/>
<circle cx="163" cy="222" r="1" fill="#D9D9D9"/>
<circle cx="173" cy="222" r="1" fill="#D9D9D9"/>
<circle cx="183" cy="222" r="1" fill="#D9D9D9"/>
<circle cx="193" cy="222" r="1" fill="#D9D9D9"/>
<circle cx="203" cy="222" r="1" fill="#D9D9D9"/>
<circle cx="213" cy="222" r="1" fill="#D9D9D9"/>
<circle cx="223" cy="222" r="1" fill="#D9D9D9"/>
<circle cx="233" cy="222" r="1" fill="#D9D9D9"/>
<circle cx="243" cy="222" r="1" fill="#D9D9D9"/>
<circle cx="253" cy="222" r="1" fill="#D9D9D9"/>
<circle cx="263" cy="222" r="1" fill="#D9D9D9"/>
<circle cx="273" cy="222" r="1" fill="#D9D9D9"/>
<circle cx="283" cy="222" r="1" fill="#D9D9D9"/>
<circle cx="293" cy="222" r="1" fill="#D9D9D9"/>
<circle cx="303" cy="222" r="1" fill="#D9D9D9"/>
<circle cx="313" cy="222" r="1" fill="#D9D9D9"/>
<circle cx="323" cy="222" r="1" fill="#D9D9D9"/>
<circle cx="333" cy="222" r="1" fill="#D9D9D9"/>
<circle cx="343" cy="222" r="1" fill="#D9D9D9"/>
<circle cx="353" cy="222" r="1" fill="#D9D9D9"/>
<circle cx="3" cy="232" r="1" fill="#D9D9D9"/>
<circle cx="13" cy="232" r="1" fill="#D9D9D9"/>
<circle cx="23" cy="232" r="1" fill="#D9D9D9"/>
<circle cx="33" cy="232" r="1" fill="#D9D9D9"/>
<circle cx="43" cy="232" r="1" fill="#D9D9D9"/>
<circle cx="53" cy="232" r="1" fill="#D9D9D9"/>
<circle cx="63" cy="232" r="1" fill="#D9D9D9"/>
<circle cx="73" cy="232" r="1" fill="#D9D9D9"/>
<circle cx="83" cy="232" r="1" fill="#D9D9D9"/>
<circle cx="93" cy="232" r="1" fill="#D9D9D9"/>
<circle cx="103" cy="232" r="1" fill="#D9D9D9"/>
<circle cx="113" cy="232" r="1" fill="#D9D9D9"/>
<circle cx="123" cy="232" r="1" fill="#D9D9D9"/>
<circle cx="133" cy="232" r="1" fill="#D9D9D9"/>
<circle cx="143" cy="232" r="1" fill="#D9D9D9"/>
<circle cx="153" cy="232" r="1" fill="#D9D9D9"/>
<circle cx="163" cy="232" r="1" fill="#D9D9D9"/>
<circle cx="173" cy="232" r="1" fill="#D9D9D9"/>
<circle cx="183" cy="232" r="1" fill="#D9D9D9"/>
<circle cx="193" cy="232" r="1" fill="#D9D9D9"/>
<circle cx="203" cy="232" r="1" fill="#D9D9D9"/>
<circle cx="213" cy="232" r="1" fill="#D9D9D9"/>
<circle cx="223" cy="232" r="1" fill="#D9D9D9"/>
<circle cx="233" cy="232" r="1" fill="#D9D9D9"/>
<circle cx="243" cy="232" r="1" fill="#D9D9D9"/>
<circle cx="253" cy="232" r="1" fill="#D9D9D9"/>
<circle cx="263" cy="232" r="1" fill="#D9D9D9"/>
<circle cx="273" cy="232" r="1" fill="#D9D9D9"/>
<circle cx="283" cy="232" r="1" fill="#D9D9D9"/>
<circle cx="293" cy="232" r="1" fill="#D9D9D9"/>
<circle cx="303" cy="232" r="1" fill="#D9D9D9"/>
<circle cx="313" cy="232" r="1" fill="#D9D9D9"/>
<circle cx="323" cy="232" r="1" fill="#D9D9D9"/>
<circle cx="333" cy="232" r="1" fill="#D9D9D9"/>
<circle cx="343" cy="232" r="1" fill="#D9D9D9"/>
<circle cx="353" cy="232" r="1" fill="#D9D9D9"/>
<circle cx="3" cy="242" r="1" fill="#D9D9D9"/>
<circle cx="13" cy="242" r="1" fill="#D9D9D9"/>
<circle cx="23" cy="242" r="1" fill="#D9D9D9"/>
<circle cx="33" cy="242" r="1" fill="#D9D9D9"/>
<circle cx="43" cy="242" r="1" fill="#D9D9D9"/>
<circle cx="53" cy="242" r="1" fill="#D9D9D9"/>
<circle cx="63" cy="242" r="1" fill="#D9D9D9"/>
<circle cx="73" cy="242" r="1" fill="#D9D9D9"/>
<circle cx="83" cy="242" r="1" fill="#D9D9D9"/>
<circle cx="93" cy="242" r="1" fill="#D9D9D9"/>
<circle cx="103" cy="242" r="1" fill="#D9D9D9"/>
<circle cx="113" cy="242" r="1" fill="#D9D9D9"/>
<circle cx="123" cy="242" r="1" fill="#D9D9D9"/>
<circle cx="133" cy="242" r="1" fill="#D9D9D9"/>
<circle cx="143" cy="242" r="1" fill="#D9D9D9"/>
<circle cx="153" cy="242" r="1" fill="#D9D9D9"/>
<circle cx="163" cy="242" r="1" fill="#D9D9D9"/>
<circle cx="173" cy="242" r="1" fill="#D9D9D9"/>
<circle cx="183" cy="242" r="1" fill="#D9D9D9"/>
<circle cx="193" cy="242" r="1" fill="#D9D9D9"/>
<circle cx="203" cy="242" r="1" fill="#D9D9D9"/>
<circle cx="213" cy="242" r="1" fill="#D9D9D9"/>
<circle cx="223" cy="242" r="1" fill="#D9D9D9"/>
<circle cx="233" cy="242" r="1" fill="#D9D9D9"/>
<circle cx="243" cy="242" r="1" fill="#D9D9D9"/>
<circle cx="253" cy="242" r="1" fill="#D9D9D9"/>
<circle cx="263" cy="242" r="1" fill="#D9D9D9"/>
<circle cx="273" cy="242" r="1" fill="#D9D9D9"/>
<circle cx="283" cy="242" r="1" fill="#D9D9D9"/>
<circle cx="293" cy="242" r="1" fill="#D9D9D9"/>
<circle cx="303" cy="242" r="1" fill="#D9D9D9"/>
<circle cx="313" cy="242" r="1" fill="#D9D9D9"/>
<circle cx="323" cy="242" r="1" fill="#D9D9D9"/>
<circle cx="333" cy="242" r="1" fill="#D9D9D9"/>
<circle cx="343" cy="242" r="1" fill="#D9D9D9"/>
<circle cx="353" cy="242" r="1" fill="#D9D9D9"/>
<circle cx="3" cy="252" r="1" fill="#D9D9D9"/>
<circle cx="13" cy="252" r="1" fill="#D9D9D9"/>
<circle cx="23" cy="252" r="1" fill="#D9D9D9"/>
<circle cx="33" cy="252" r="1" fill="#D9D9D9"/>
<circle cx="43" cy="252" r="1" fill="#D9D9D9"/>
<circle cx="53" cy="252" r="1" fill="#D9D9D9"/>
<circle cx="63" cy="252" r="1" fill="#D9D9D9"/>
<circle cx="73" cy="252" r="1" fill="#D9D9D9"/>
<circle cx="83" cy="252" r="1" fill="#D9D9D9"/>
<circle cx="93" cy="252" r="1" fill="#D9D9D9"/>
<circle cx="103" cy="252" r="1" fill="#D9D9D9"/>
<circle cx="113" cy="252" r="1" fill="#D9D9D9"/>
<circle cx="123" cy="252" r="1" fill="#D9D9D9"/>
<circle cx="133" cy="252" r="1" fill="#D9D9D9"/>
<circle cx="143" cy="252" r="1" fill="#D9D9D9"/>
<circle cx="153" cy="252" r="1" fill="#D9D9D9"/>
<circle cx="163" cy="252" r="1" fill="#D9D9D9"/>
<circle cx="173" cy="252" r="1" fill="#D9D9D9"/>
<circle cx="183" cy="252" r="1" fill="#D9D9D9"/>
<circle cx="193" cy="252" r="1" fill="#D9D9D9"/>
<circle cx="203" cy="252" r="1" fill="#D9D9D9"/>
<circle cx="213" cy="252" r="1" fill="#D9D9D9"/>
<circle cx="223" cy="252" r="1" fill="#D9D9D9"/>
<circle cx="233" cy="252" r="1" fill="#D9D9D9"/>
<circle cx="243" cy="252" r="1" fill="#D9D9D9"/>
<circle cx="253" cy="252" r="1" fill="#D9D9D9"/>
<circle cx="263" cy="252" r="1" fill="#D9D9D9"/>
<circle cx="273" cy="252" r="1" fill="#D9D9D9"/>
<circle cx="283" cy="252" r="1" fill="#D9D9D9"/>
<circle cx="293" cy="252" r="1" fill="#D9D9D9"/>
<circle cx="303" cy="252" r="1" fill="#D9D9D9"/>
<circle cx="313" cy="252" r="1" fill="#D9D9D9"/>
<circle cx="323" cy="252" r="1" fill="#D9D9D9"/>
<circle cx="333" cy="252" r="1" fill="#D9D9D9"/>
<circle cx="343" cy="252" r="1" fill="#D9D9D9"/>
<circle cx="353" cy="252" r="1" fill="#D9D9D9"/>
<circle cx="3" cy="262" r="1" fill="#D9D9D9"/>
<circle cx="13" cy="262" r="1" fill="#D9D9D9"/>
<circle cx="23" cy="262" r="1" fill="#D9D9D9"/>
<circle cx="33" cy="262" r="1" fill="#D9D9D9"/>
<circle cx="43" cy="262" r="1" fill="#D9D9D9"/>
<circle cx="53" cy="262" r="1" fill="#D9D9D9"/>
<circle cx="63" cy="262" r="1" fill="#D9D9D9"/>
<circle cx="73" cy="262" r="1" fill="#D9D9D9"/>
<circle cx="83" cy="262" r="1" fill="#D9D9D9"/>
<circle cx="93" cy="262" r="1" fill="#D9D9D9"/>
<circle cx="103" cy="262" r="1" fill="#D9D9D9"/>
<circle cx="113" cy="262" r="1" fill="#D9D9D9"/>
<circle cx="123" cy="262" r="1" fill="#D9D9D9"/>
<circle cx="133" cy="262" r="1" fill="#D9D9D9"/>
<circle cx="143" cy="262" r="1" fill="#D9D9D9"/>
<circle cx="153" cy="262" r="1" fill="#D9D9D9"/>
<circle cx="163" cy="262" r="1" fill="#D9D9D9"/>
<circle cx="173" cy="262" r="1" fill="#D9D9D9"/>
<circle cx="183" cy="262" r="1" fill="#D9D9D9"/>
<circle cx="193" cy="262" r="1" fill="#D9D9D9"/>
<circle cx="203" cy="262" r="1" fill="#D9D9D9"/>
<circle cx="213" cy="262" r="1" fill="#D9D9D9"/>
<circle cx="223" cy="262" r="1" fill="#D9D9D9"/>
<circle cx="233" cy="262" r="1" fill="#D9D9D9"/>
<circle cx="243" cy="262" r="1" fill="#D9D9D9"/>
<circle cx="253" cy="262" r="1" fill="#D9D9D9"/>
<circle cx="263" cy="262" r="1" fill="#D9D9D9"/>
<circle cx="273" cy="262" r="1" fill="#D9D9D9"/>
<circle cx="283" cy="262" r="1" fill="#D9D9D9"/>
<circle cx="293" cy="262" r="1" fill="#D9D9D9"/>
<circle cx="303" cy="262" r="1" fill="#D9D9D9"/>
<circle cx="313" cy="262" r="1" fill="#D9D9D9"/>
<circle cx="323" cy="262" r="1" fill="#D9D9D9"/>
<circle cx="333" cy="262" r="1" fill="#D9D9D9"/>
<circle cx="343" cy="262" r="1" fill="#D9D9D9"/>
<circle cx="353" cy="262" r="1" fill="#D9D9D9"/>
<circle cx="3" cy="272" r="1" fill="#D9D9D9"/>
<circle cx="13" cy="272" r="1" fill="#D9D9D9"/>
<circle cx="23" cy="272" r="1" fill="#D9D9D9"/>
<circle cx="33" cy="272" r="1" fill="#D9D9D9"/>
<circle cx="43" cy="272" r="1" fill="#D9D9D9"/>
<circle cx="53" cy="272" r="1" fill="#D9D9D9"/>
<circle cx="63" cy="272" r="1" fill="#D9D9D9"/>
<circle cx="73" cy="272" r="1" fill="#D9D9D9"/>
<circle cx="83" cy="272" r="1" fill="#D9D9D9"/>
<circle cx="93" cy="272" r="1" fill="#D9D9D9"/>
<circle cx="103" cy="272" r="1" fill="#D9D9D9"/>
<circle cx="113" cy="272" r="1" fill="#D9D9D9"/>
<circle cx="123" cy="272" r="1" fill="#D9D9D9"/>
<circle cx="133" cy="272" r="1" fill="#D9D9D9"/>
<circle cx="143" cy="272" r="1" fill="#D9D9D9"/>
<circle cx="153" cy="272" r="1" fill="#D9D9D9"/>
<circle cx="163" cy="272" r="1" fill="#D9D9D9"/>
<circle cx="173" cy="272" r="1" fill="#D9D9D9"/>
<circle cx="183" cy="272" r="1" fill="#D9D9D9"/>
<circle cx="193" cy="272" r="1" fill="#D9D9D9"/>
<circle cx="203" cy="272" r="1" fill="#D9D9D9"/>
<circle cx="213" cy="272" r="1" fill="#D9D9D9"/>
<circle cx="223" cy="272" r="1" fill="#D9D9D9"/>
<circle cx="233" cy="272" r="1" fill="#D9D9D9"/>
<circle cx="243" cy="272" r="1" fill="#D9D9D9"/>
<circle cx="253" cy="272" r="1" fill="#D9D9D9"/>
<circle cx="263" cy="272" r="1" fill="#D9D9D9"/>
<circle cx="273" cy="272" r="1" fill="#D9D9D9"/>
<circle cx="283" cy="272" r="1" fill="#D9D9D9"/>
<circle cx="293" cy="272" r="1" fill="#D9D9D9"/>
<circle cx="303" cy="272" r="1" fill="#D9D9D9"/>
<circle cx="313" cy="272" r="1" fill="#D9D9D9"/>
<circle cx="323" cy="272" r="1" fill="#D9D9D9"/>
<circle cx="333" cy="272" r="1" fill="#D9D9D9"/>
<circle cx="343" cy="272" r="1" fill="#D9D9D9"/>
<circle cx="353" cy="272" r="1" fill="#D9D9D9"/>
</g>
<g clip-path="url(#clip1_322_776)">
<g filter="url(#filter0_d_322_776)">
<path d="M280.169 58.9686H120.927C119.899 58.9686 119.065 59.8024 119.065 60.831V168.855C119.065 169.883 119.899 170.717 120.927 170.717H280.169C281.198 170.717 282.031 169.883 282.031 168.855V60.831C282.031 59.8024 281.198 58.9686 280.169 58.9686Z" fill="#222222"/>
<path d="M280.169 59.2014H120.927C120.027 59.2014 119.298 59.931 119.298 60.831V168.855C119.298 169.755 120.027 170.484 120.927 170.484H280.169C281.069 170.484 281.799 169.755 281.799 168.855V60.831C281.799 59.931 281.069 59.2014 280.169 59.2014Z" stroke="#404040" stroke-width="0.465619"/>
</g>
<path opacity="0.2" d="M280.169 59.2014H120.927C120.027 59.2014 119.298 59.931 119.298 60.8311V168.855C119.298 169.755 120.027 170.484 120.927 170.484H280.169C281.069 170.484 281.799 169.755 281.799 168.855V60.8311C281.799 59.931 281.069 59.2014 280.169 59.2014Z" stroke="url(#paint0_linear_322_776)" stroke-width="0.465619"/>
<g opacity="0.56">
<path opacity="0.2" d="M267.597 154.35L133.965 154.35" stroke="white" stroke-width="0.14171"/>
<path opacity="0.2" d="M267.597 149.228L133.965 149.228" stroke="white" stroke-width="0.14171"/>
<path opacity="0.2" d="M267.597 143.64L133.965 143.64" stroke="white" stroke-width="0.14171"/>
<path opacity="0.2" d="M267.597 138.519L133.965 138.519" stroke="white" stroke-width="0.14171"/>
<path opacity="0.2" d="M267.597 132.931L133.965 132.931" stroke="white" stroke-width="0.14171"/>
<path opacity="0.2" d="M267.597 127.344L133.965 127.344" stroke="white" stroke-width="0.14171"/>
<path d="M134.896 153.955H139.358L143.887 153.524L148.417 153.716L152.632 153.938C152.84 153.949 153.049 153.927 153.251 153.873L157.409 152.758L161.67 151.56C161.892 151.498 162.123 151.475 162.353 151.492L165.827 151.749C166.285 151.782 166.74 151.657 167.116 151.392L170.339 149.122C170.761 148.825 171.282 148.704 171.792 148.784L175.527 149.376L179.168 149.53C179.733 149.554 180.281 149.335 180.675 148.93L183.677 145.839C184.194 145.307 184.964 145.107 185.674 145.322L187.436 145.854C188.395 146.143 189.419 145.672 189.824 144.756L191.874 140.117C192.552 138.582 194.712 138.53 195.463 140.031L197.809 144.721C198.043 145.189 198.452 145.545 198.948 145.712L201.563 146.595C202.191 146.808 202.884 146.692 203.409 146.287L206.423 143.962C206.854 143.629 207.403 143.489 207.941 143.572L211.333 144.102C211.573 144.14 211.803 144.221 212.013 144.341L215.956 146.599C216.179 146.726 216.423 146.809 216.676 146.843L220.578 147.371C220.784 147.399 220.986 147.46 221.173 147.55L223.886 148.859C224.825 149.312 225.955 148.96 226.471 148.055L228.86 143.865C229.488 142.763 230.975 142.525 231.915 143.377L234.07 145.329C234.461 145.683 234.977 145.867 235.504 145.84L239.346 145.643L243.875 145.403L248.085 144.928C248.384 144.894 248.672 144.793 248.926 144.631L252.794 142.175C253.021 142.031 253.216 141.843 253.367 141.622L254.225 140.369C254.826 139.491 256.013 139.244 256.915 139.809L262.332 143.202L267.132 145.403" stroke="#181818" stroke-width="0.42513" stroke-linecap="round" stroke-linejoin="round"/>
<path d="M134.896 153.955H139.358L143.688 153.346C143.82 153.328 143.954 153.323 144.088 153.331L148.417 153.601L152.488 153.919C152.79 153.943 153.093 153.897 153.373 153.785L157.409 152.187L161.535 150.472C161.844 150.344 162.18 150.296 162.512 150.332L166.24 150.74C166.436 150.761 166.633 150.753 166.827 150.717L170.584 150.002C170.856 149.95 171.136 149.956 171.407 150.019L175.364 150.946C175.472 150.972 175.582 150.988 175.693 150.995L178.907 151.196C179.618 151.24 180.297 150.9 180.689 150.305L183.592 145.887C184.126 145.074 185.17 144.768 186.058 145.164L187.053 145.609C188.146 146.096 189.419 145.512 189.762 144.365L191.794 137.57C192.348 135.718 194.954 135.671 195.573 137.503L197.912 144.411C198.08 144.906 198.437 145.316 198.905 145.549L201.2 146.694C202.006 147.097 202.983 146.905 203.577 146.227L206.316 143.105C206.798 142.557 207.542 142.317 208.254 142.481L211.227 143.167C211.535 143.238 211.821 143.382 212.062 143.586L215.902 146.835C216.158 147.051 216.465 147.2 216.794 147.265L220.473 148.001C220.748 148.056 221.007 148.169 221.236 148.331L223.472 149.925C224.528 150.677 226.008 150.232 226.475 149.023L228.792 143.017C229.354 141.561 231.299 141.294 232.232 142.543L234.028 144.948C234.435 145.492 235.091 145.79 235.768 145.739L239.346 145.468L243.875 145.114L247.947 144.435C248.334 144.371 248.693 144.193 248.979 143.924L252.857 140.285C253.042 140.111 253.192 139.903 253.299 139.672L254.154 137.828C254.721 136.606 256.313 136.291 257.302 137.206L262.221 141.758C262.295 141.826 262.373 141.889 262.456 141.945L267.132 145.114" stroke="#FAFF69" stroke-width="0.42513" stroke-linecap="round" stroke-linejoin="round"/>
<g style="mix-blend-mode:multiply">
<path d="M139.358 153.721H135.246C135.052 153.721 134.896 153.877 134.896 154.07C134.896 154.264 135.052 154.42 135.246 154.42H265.148C266.243 154.42 267.132 153.532 267.132 152.436V146.03C267.132 145.369 266.802 144.751 266.253 144.383L262.456 141.837C262.373 141.781 262.295 141.719 262.221 141.652L257.292 137.138C256.305 136.234 254.723 136.547 254.155 137.76L253.301 139.584C253.193 139.815 253.041 140.023 252.854 140.196L248.978 143.796C248.692 144.061 248.335 144.236 247.951 144.3L243.875 144.973L239.346 145.322L235.761 145.591C235.088 145.642 234.435 145.347 234.029 144.808L232.225 142.419C231.289 141.18 229.357 141.447 228.793 142.894L226.475 148.84C226.007 150.04 224.536 150.483 223.483 149.741L221.234 148.155C221.007 147.994 220.749 147.884 220.476 147.83L216.791 147.1C216.464 147.036 216.158 146.89 215.903 146.676L212.061 143.459C211.821 143.258 211.536 143.116 211.229 143.046L208.244 142.365C207.538 142.204 206.799 142.44 206.318 142.983L203.573 146.078C202.98 146.748 202.013 146.937 201.211 146.541L198.908 145.405C198.438 145.173 198.079 144.764 197.909 144.268L195.572 137.434C194.948 135.611 192.353 135.658 191.795 137.503L189.764 144.225C189.419 145.366 188.154 145.948 187.063 145.466L186.047 145.018C185.164 144.628 184.128 144.93 183.593 145.735L180.689 150.108C180.297 150.698 179.621 151.034 178.914 150.991L175.691 150.791C175.582 150.784 175.473 150.769 175.366 150.744L171.403 149.825C171.135 149.763 170.857 149.758 170.588 149.808L166.823 150.517C166.632 150.553 166.437 150.56 166.243 150.54L162.507 150.135C162.178 150.1 161.845 150.147 161.539 150.273L157.409 151.971L153.37 153.554C153.091 153.664 152.791 153.709 152.493 153.686L148.417 153.37L144.086 153.103C143.954 153.095 143.821 153.1 143.69 153.118L139.358 153.721Z" fill="url(#paint1_linear_322_776)"/>
</g>
<g filter="url(#filter1_d_322_776)">
<path d="M193.635 137.375C194.278 137.375 194.799 136.853 194.799 136.211C194.799 135.568 194.278 135.047 193.635 135.047C192.992 135.047 192.471 135.568 192.471 136.211C192.471 136.853 192.992 137.375 193.635 137.375Z" fill="white"/>
</g>
<path d="M193.69 154.42V136.727" stroke="white" stroke-width="0.212565"/>
<path fill-rule="evenodd" clip-rule="evenodd" d="M186.681 125.086C186.368 125.086 186.114 125.34 186.114 125.653V131.747C186.114 132.06 186.368 132.314 186.681 132.314H192.167L193.464 133.611C193.575 133.722 193.755 133.722 193.865 133.611L195.162 132.314H200.568C200.881 132.314 201.135 132.06 201.135 131.747V125.653C201.135 125.34 200.881 125.086 200.568 125.086H186.681Z" fill="#3F3F3F"/>
<mask id="mask0_322_776" style="mask-type:luminance" maskUnits="userSpaceOnUse" x="186" y="125" width="16" height="9">
<g opacity="0.56">
<path fill-rule="evenodd" clip-rule="evenodd" d="M186.681 125.086C186.368 125.086 186.114 125.34 186.114 125.653V131.747C186.114 132.06 186.368 132.314 186.681 132.314H192.167L193.464 133.611C193.575 133.722 193.755 133.722 193.865 133.611L195.162 132.314H200.568C200.881 132.314 201.135 132.06 201.135 131.747V125.653C201.135 125.34 200.881 125.086 200.568 125.086H186.681Z" fill="white"/>
</g>
</mask>
<g mask="url(#mask0_322_776)">
<path d="M192.167 132.314L192.268 132.214L192.226 132.172H192.167V132.314ZM195.162 132.314V132.172H195.104L195.062 132.214L195.162 132.314ZM186.255 125.653C186.255 125.418 186.446 125.228 186.681 125.228V124.945C186.289 124.945 185.972 125.262 185.972 125.653H186.255ZM186.255 131.747V125.653H185.972V131.747H186.255ZM186.681 132.172C186.446 132.172 186.255 131.982 186.255 131.747H185.972C185.972 132.138 186.289 132.455 186.681 132.455V132.172ZM192.167 132.172H186.681V132.455H192.167V132.172ZM193.565 133.511L192.268 132.214L192.067 132.414L193.364 133.711L193.565 133.511ZM193.765 133.511C193.71 133.566 193.62 133.566 193.565 133.511L193.364 133.711C193.53 133.877 193.799 133.877 193.965 133.711L193.765 133.511ZM195.062 132.214L193.765 133.511L193.965 133.711L195.263 132.414L195.062 132.214ZM200.568 132.172H195.162V132.455H200.568V132.172ZM200.993 131.747C200.993 131.982 200.803 132.172 200.568 132.172V132.455C200.96 132.455 201.277 132.138 201.277 131.747H200.993ZM200.993 125.653V131.747H201.277V125.653H200.993ZM200.568 125.228C200.803 125.228 200.993 125.418 200.993 125.653H201.277C201.277 125.262 200.96 124.945 200.568 124.945V125.228ZM186.681 125.228H200.568V124.945H186.681V125.228Z" fill="#626262"/>
</g>
<path d="M190.474 129.108V128.834L191.162 127.749H191.399V128.13H191.259L190.825 128.817V128.829H191.803V129.108H190.474ZM191.266 129.399V129.025L191.272 128.903V127.749H191.598V129.399H191.266ZM192.208 129.42C192.155 129.42 192.109 129.401 192.072 129.363C192.034 129.325 192.015 129.279 192.015 129.226C192.015 129.174 192.034 129.129 192.072 129.091C192.109 129.054 192.155 129.034 192.208 129.034C192.26 129.034 192.305 129.054 192.343 129.091C192.382 129.129 192.402 129.174 192.402 129.226C192.402 129.262 192.392 129.294 192.374 129.324C192.356 129.352 192.333 129.376 192.304 129.394C192.275 129.411 192.243 129.42 192.208 129.42ZM193.269 129.421C193.155 129.421 193.054 129.4 192.965 129.359C192.876 129.317 192.805 129.259 192.754 129.185C192.702 129.112 192.675 129.027 192.672 128.932H193.01C193.014 128.996 193.041 129.048 193.091 129.088C193.141 129.128 193.2 129.147 193.269 129.147C193.324 129.147 193.372 129.135 193.414 129.111C193.456 129.087 193.489 129.052 193.513 129.009C193.537 128.965 193.549 128.914 193.549 128.858C193.549 128.799 193.537 128.749 193.512 128.704C193.488 128.661 193.454 128.626 193.411 128.601C193.368 128.577 193.319 128.564 193.264 128.564C193.216 128.564 193.169 128.573 193.123 128.594C193.078 128.613 193.043 128.641 193.018 128.675L192.708 128.619L192.786 127.749H193.794V128.035H193.073L193.031 128.448H193.04C193.069 128.407 193.113 128.373 193.171 128.346C193.23 128.319 193.295 128.306 193.368 128.306C193.467 128.306 193.556 128.329 193.634 128.376C193.711 128.423 193.773 128.487 193.818 128.568C193.863 128.649 193.885 128.743 193.885 128.849C193.885 128.96 193.86 129.059 193.807 129.145C193.756 129.231 193.684 129.298 193.591 129.348C193.499 129.397 193.391 129.421 193.269 129.421ZM194.128 129.399V129.147L194.715 128.604C194.765 128.555 194.807 128.512 194.841 128.473C194.875 128.435 194.901 128.397 194.919 128.36C194.936 128.323 194.945 128.282 194.945 128.238C194.945 128.19 194.934 128.148 194.912 128.113C194.89 128.078 194.86 128.051 194.822 128.032C194.784 128.013 194.74 128.003 194.693 128.003C194.642 128.003 194.598 128.013 194.56 128.034C194.523 128.054 194.494 128.084 194.473 128.121C194.453 128.16 194.443 128.205 194.443 128.258H194.112C194.112 128.15 194.136 128.056 194.185 127.977C194.234 127.897 194.302 127.836 194.39 127.792C194.478 127.749 194.58 127.727 194.695 127.727C194.813 127.727 194.916 127.748 195.003 127.79C195.091 127.831 195.16 127.889 195.208 127.962C195.257 128.036 195.282 128.12 195.282 128.215C195.282 128.277 195.269 128.339 195.245 128.399C195.221 128.46 195.177 128.527 195.115 128.601C195.053 128.675 194.965 128.763 194.852 128.866L194.611 129.102V129.114H195.303V129.399H194.128ZM195.556 129.399V129.147L196.143 128.604C196.193 128.555 196.235 128.512 196.269 128.473C196.303 128.435 196.329 128.397 196.347 128.36C196.365 128.323 196.373 128.282 196.373 128.238C196.373 128.19 196.362 128.148 196.34 128.113C196.318 128.078 196.288 128.051 196.25 128.032C196.212 128.013 196.169 128.003 196.121 128.003C196.07 128.003 196.026 128.013 195.988 128.034C195.951 128.054 195.922 128.084 195.902 128.121C195.881 128.16 195.871 128.205 195.871 128.258H195.54C195.54 128.15 195.565 128.056 195.613 127.977C195.662 127.897 195.73 127.836 195.818 127.792C195.907 127.749 196.008 127.727 196.123 127.727C196.241 127.727 196.344 127.748 196.431 127.79C196.52 127.831 196.588 127.889 196.636 127.962C196.685 128.036 196.71 128.12 196.71 128.215C196.71 128.277 196.697 128.339 196.673 128.399C196.649 128.46 196.606 128.527 196.543 128.601C196.481 128.675 196.393 128.763 196.28 128.866L196.039 129.102V129.114H196.731V129.399H195.556Z" fill="#FAFF69"/>
<path d="M220.104 77.5933H197.289C196.26 77.5933 195.426 78.4272 195.426 79.4558C195.426 80.4844 196.26 81.3183 197.289 81.3183H220.104C221.133 81.3183 221.967 80.4844 221.967 79.4558C221.967 78.4272 221.133 77.5933 220.104 77.5933Z" fill="#4B4B4B"/>
<path d="M248.041 85.5089H197.289C196.26 85.5089 195.426 86.3427 195.426 87.3713C195.426 88.3999 196.26 89.2338 197.289 89.2338H248.041C249.07 89.2338 249.904 88.3999 249.904 87.3713C249.904 86.3427 249.07 85.5089 248.041 85.5089Z" fill="#4B4B4B"/>
<path d="M265.735 93.4244H197.289C196.26 93.4244 195.426 94.2582 195.426 95.2869C195.426 96.3155 196.26 97.1493 197.289 97.1493H265.735C266.763 97.1493 267.597 96.3155 267.597 95.2869C267.597 94.2582 266.763 93.4244 265.735 93.4244Z" fill="#FAFF69"/>
<path d="M227.554 101.34H197.289C196.26 101.34 195.426 102.174 195.426 103.202C195.426 104.231 196.26 105.065 197.289 105.065H227.554C228.583 105.065 229.416 104.231 229.416 103.202C229.416 102.174 228.583 101.34 227.554 101.34Z" fill="#4B4B4B"/>
<path d="M258.285 109.255H197.289C196.26 109.255 195.426 110.089 195.426 111.118C195.426 112.147 196.26 112.98 197.289 112.98H258.285C259.313 112.98 260.147 112.147 260.147 111.118C260.147 110.089 259.313 109.255 258.285 109.255Z" fill="#FAFF69"/>
<path opacity="0.45" d="M179.409 99.3023C179.409 110.096 169.249 118.847 156.715 118.847C144.182 118.847 134.021 110.096 134.021 99.3023C134.021 88.5079 144.182 79.7574 156.715 79.7574C169.249 79.7574 179.409 88.5079 179.409 99.3023ZM141.531 99.3023C141.531 106.525 148.329 112.379 156.715 112.379C165.101 112.379 171.899 106.525 171.899 99.3023C171.899 92.0797 165.101 86.225 156.715 86.225C148.329 86.225 141.531 92.0797 141.531 99.3023Z" fill="#151515"/>
<mask id="mask1_322_776" style="mask-type:luminance" maskUnits="userSpaceOnUse" x="134" y="73" width="46" height="46">
<g opacity="0.56">
<path d="M138.312 83.0537C145.599 72.8377 159.788 70.4633 170.004 77.7502C180.22 85.0373 182.595 99.2265 175.307 109.442C168.02 119.658 153.832 122.032 143.616 114.746C133.399 107.459 131.025 93.2698 138.312 83.0537ZM169.186 105.076C174.062 98.2407 172.473 88.747 165.638 83.8714C158.803 78.9958 149.309 80.5845 144.433 87.4199C139.558 94.255 141.146 103.749 147.982 108.625C154.817 113.5 164.311 111.911 169.186 105.076Z" fill="white"/>
</g>
</mask>
<g mask="url(#mask1_322_776)">
<path d="M138.312 83.0537C145.599 72.8377 159.788 70.4633 170.004 77.7502C180.22 85.0373 182.595 99.2265 175.307 109.442C168.02 119.658 153.832 122.032 143.616 114.746C133.399 107.459 131.025 93.2698 138.312 83.0537ZM169.186 105.076C174.062 98.2407 172.473 88.747 165.638 83.8714C158.803 78.9958 149.309 80.5845 144.433 87.4199C139.558 94.255 141.146 103.749 147.982 108.625C154.817 113.5 164.311 111.911 169.186 105.076Z" fill="#262626" stroke="white" stroke-opacity="0.1" stroke-width="0.352259"/>
</g>
<path d="M149.785 116.649C138.519 112.769 132.53 100.491 136.41 89.2237C140.289 77.9569 152.567 71.9683 163.834 75.8477C175.101 79.7272 181.09 92.0057 177.21 103.273C173.331 114.539 161.052 120.528 149.785 116.649ZM162.076 80.9525C153.629 78.0437 144.423 82.5338 141.514 90.9814C138.605 99.429 143.095 108.635 151.543 111.544C159.991 114.453 169.197 109.962 172.105 101.515C175.014 93.0673 170.524 83.8612 162.076 80.9525Z" fill="url(#paint2_linear_322_776)"/>
<g filter="url(#filter2_d_322_776)">
<path d="M178.386 96.2479C178.386 99.4462 177.675 102.604 176.304 105.494C174.933 108.384 172.937 110.933 170.461 112.957C167.984 114.98 165.088 116.428 161.983 117.195C158.878 117.962 155.641 118.028 152.507 117.391C149.373 116.753 146.42 115.426 143.862 113.507C141.304 111.588 139.204 109.124 137.715 106.293C136.226 103.463 135.385 100.336 135.252 97.1409C135.12 93.9454 135.7 90.7602 136.95 87.8163L141.919 89.9261C140.982 92.1336 140.547 94.5213 140.647 96.9174C140.746 99.3135 141.377 101.657 142.493 103.78C143.609 105.902 145.184 107.749 147.102 109.188C149.02 110.628 151.234 111.622 153.584 112.1C155.934 112.579 158.361 112.528 160.689 111.953C163.017 111.378 165.188 110.293 167.045 108.775C168.902 107.258 170.398 105.347 171.426 103.18C172.454 101.014 172.987 98.6458 172.987 96.2479H178.386Z" fill="#FAFF69"/>
</g>
<path d="M162.938 75.5605C167.393 76.8802 171.304 79.6031 174.087 83.324C176.87 87.0449 178.378 91.5652 178.386 96.2116L172.987 96.2209C172.981 92.7367 171.851 89.3477 169.764 86.5579C167.677 83.768 164.745 81.7265 161.405 80.737L162.938 75.5605Z" fill="#FC74FF"/>
<path d="M150.682 75.5606C155.224 74.2151 160.083 74.402 164.508 76.0922L162.582 81.1357C159.264 79.8684 155.621 79.7283 152.216 80.7371L150.682 75.5606Z" fill="#74ACFF"/>
<path d="M143.976 78.9039C146.673 76.9086 149.797 75.5695 153.102 74.993L154.03 80.3115C151.552 80.7438 149.21 81.7478 147.187 83.2438L143.976 78.9039Z" fill="#74FFD5"/>
<path d="M139.925 82.8166C141.161 81.2616 142.607 79.8849 144.221 78.7256L147.371 83.1101C146.161 83.9793 145.077 85.0116 144.15 86.1774L139.925 82.8166Z" fill="#74FF9B"/>
<path d="M137.849 85.9528C138.58 84.6052 139.453 83.3396 140.454 82.1772L144.546 85.6981C143.797 86.5696 143.142 87.5186 142.594 88.5289L137.849 85.9528Z" fill="#FFE074"/>
<path d="M137.024 87.6445C137.274 87.0684 137.549 86.5035 137.849 85.9514L142.594 88.5279C142.369 88.9418 142.162 89.3653 141.975 89.7973L137.024 87.6445Z" fill="#FF7C74"/>
<path d="M137.024 87.6445C136.914 87.8973 136.809 88.1522 136.709 88.409L141.738 90.3705C141.814 90.1779 141.892 89.9868 141.975 89.7973L137.024 87.6445Z" fill="#CF4B4B"/>
</g>
<path opacity="0.2" d="M120.153 59.4938L59.6985 118.102H220.554C221.589 118.102 222.425 118.945 222.416 119.98L221.501 228.919L281.932 170.565C282.293 170.216 282.499 169.735 282.5 169.233L282.955 60.8389C282.959 59.8072 282.124 58.9686 281.092 58.9686H121.449C120.965 58.9686 120.5 59.157 120.153 59.4938Z" fill="url(#paint3_linear_322_776)"/>
<mask id="mask2_322_776" style="mask-type:luminance" maskUnits="userSpaceOnUse" x="59" y="117" width="163" height="113">
<path d="M221.967 117.637H59V229.691H221.967V117.637Z" fill="white"/>
</mask>
<g mask="url(#mask2_322_776)">
<path d="M220.104 117.637C221.133 117.637 221.967 118.47 221.967 119.499V128.457H59V122.853V119.499C59 118.47 59.8339 117.637 60.8625 117.637H216.75H220.104Z" fill="#494949"/>
<path d="M221.967 128.457V176.466V224.474V227.829C221.967 228.857 221.133 229.691 220.104 229.691H178.617H140.483H60.8625C59.8339 229.691 59 228.857 59 227.829V224.474V128.457H221.967Z" fill="#373737"/>
<path d="M141.446 138.589H70.1748V171.106H141.446V138.589Z" fill="#494949"/>
<path d="M100.906 140.452H72.0374V169.32H100.906V140.452Z" fill="#3F3F3F"/>
<path d="M131.171 140.452H102.303V169.32H131.171V140.452Z" fill="#3F3F3F"/>
<mask id="mask3_322_776" style="mask-type:luminance" maskUnits="userSpaceOnUse" x="111" y="149" width="12" height="13">
<path d="M122.79 149.299H111.615V161.677H122.79V149.299Z" fill="white"/>
</mask>
<g mask="url(#mask3_322_776)">
<path d="M120.37 149.299C120.58 149.386 120.677 149.542 120.669 149.771C120.662 149.956 120.66 150.142 120.67 150.326C120.677 150.453 120.625 150.483 120.509 150.483C119.673 150.479 118.836 150.481 117.999 150.481C117.749 150.481 117.5 150.479 117.251 150.482C117.146 150.484 117.097 150.45 117.102 150.336C117.109 150.163 117.11 149.99 117.102 149.817C117.092 149.58 117.178 149.402 117.397 149.299H120.369L120.37 149.299Z" fill="#FAFF69"/>
<path d="M114.886 149.299C115.11 149.398 115.195 149.575 115.184 149.813C115.176 149.966 115.182 150.119 115.182 150.272C115.182 150.411 115.111 150.481 114.967 150.481C114.705 150.481 114.444 150.481 114.183 150.481C113.386 150.481 112.589 150.481 111.793 150.481C111.619 150.481 111.619 150.48 111.619 150.307C111.619 150.141 111.625 149.976 111.617 149.812C111.605 149.573 111.69 149.396 111.915 149.299H114.886Z" fill="#FAFF69"/>
<path d="M117.105 154.578C117.105 153.891 117.106 153.202 117.102 152.514C117.102 152.395 117.134 152.354 117.259 152.354C118.341 152.358 119.424 152.356 120.507 152.356C120.667 152.356 120.668 152.357 120.668 152.516C120.668 153.671 120.669 154.826 120.666 155.982C120.666 156.086 120.691 156.174 120.749 156.262C121.291 157.081 121.831 157.901 122.37 158.722C122.393 158.757 122.446 158.795 122.422 158.835C122.398 158.877 122.341 158.848 122.3 158.842C121.014 158.627 119.841 159.397 119.435 160.511C119.422 160.548 119.422 160.603 119.378 160.61C119.326 160.618 119.314 160.558 119.291 160.524C118.673 159.586 118.057 158.647 117.438 157.711C117.208 157.364 117.103 156.985 117.104 156.571C117.105 155.907 117.104 155.243 117.104 154.579L117.105 154.578Z" fill="#FAFF69"/>
<path d="M111.618 154.623C111.618 153.922 111.618 153.222 111.618 152.522C111.618 152.358 111.619 152.357 111.776 152.357C112.858 152.357 113.941 152.357 115.023 152.357C115.181 152.357 115.183 152.358 115.183 152.521C115.183 153.672 115.184 154.823 115.18 155.974C115.18 156.092 115.21 156.19 115.276 156.288C115.805 157.086 116.33 157.887 116.857 158.687C116.873 158.71 116.889 158.733 116.903 158.758C116.917 158.781 116.945 158.805 116.93 158.833C116.91 158.868 116.872 158.849 116.842 158.847C116.75 158.839 116.658 158.826 116.567 158.818C115.383 158.718 114.327 159.473 113.948 160.503C113.933 160.543 113.933 160.606 113.885 160.611C113.838 160.616 113.822 160.556 113.798 160.521C113.18 159.583 112.563 158.645 111.947 157.707C111.726 157.372 111.615 157.006 111.617 156.603C111.621 155.943 111.618 155.283 111.618 154.623Z" fill="#FAFF69"/>
<path d="M120.975 161.676C120.624 161.681 120.282 161.557 119.969 161.342C119.896 161.292 119.874 161.233 119.884 161.148C119.998 160.236 120.766 159.495 121.678 159.41C122.009 159.379 122.326 159.431 122.636 159.546C122.738 159.584 122.781 159.646 122.787 159.75C122.819 160.347 122.622 160.852 122.171 161.245C121.841 161.533 121.45 161.678 120.975 161.676Z" fill="#FAFF69"/>
<path d="M115.629 161.677C115.147 161.678 114.814 161.566 114.507 161.364C114.414 161.302 114.384 161.232 114.398 161.123C114.503 160.307 115.178 159.593 115.994 159.437C116.4 159.36 116.792 159.403 117.174 159.561C117.244 159.59 117.28 159.627 117.288 159.709C117.409 160.771 116.549 161.689 115.629 161.677Z" fill="#FAFF69"/>
<path d="M113.4 151.763C112.857 151.763 112.314 151.761 111.771 151.765C111.659 151.765 111.609 151.734 111.616 151.614C111.625 151.482 111.626 151.348 111.616 151.216C111.607 151.088 111.662 151.057 111.778 151.06C112.019 151.066 112.26 151.061 112.502 151.061C113.339 151.061 114.176 151.061 115.013 151.061C115.18 151.061 115.183 151.064 115.183 151.228C115.183 151.353 115.183 151.478 115.183 151.603C115.183 151.758 115.179 151.762 115.018 151.762C114.479 151.762 113.939 151.762 113.401 151.762L113.4 151.763Z" fill="#FAFF69"/>
<path d="M118.893 151.062C119.432 151.062 119.971 151.064 120.509 151.061C120.625 151.059 120.68 151.089 120.67 151.216C120.66 151.352 120.661 151.489 120.67 151.626C120.676 151.735 120.63 151.765 120.529 151.765C120.026 151.761 119.523 151.763 119.021 151.763C118.434 151.763 117.847 151.761 117.26 151.765C117.137 151.766 117.095 151.725 117.102 151.604C117.111 151.476 117.104 151.347 117.105 151.219C117.106 151.074 117.115 151.063 117.264 151.063C117.808 151.062 118.35 151.063 118.893 151.063V151.062Z" fill="#FAFF69"/>
</g>
<mask id="mask4_322_776" style="mask-type:luminance" maskUnits="userSpaceOnUse" x="132" y="140" width="10" height="30">
<path d="M141.415 140.452H132.568V169.32H141.415V140.452Z" fill="white"/>
</mask>
<g mask="url(#mask4_322_776)">
<path d="M161.436 140.452H132.568V169.32H161.436V140.452Z" fill="#3F3F3F"/>
<mask id="mask5_322_776" style="mask-type:luminance" maskUnits="userSpaceOnUse" x="140" y="146" width="14" height="18">
<path d="M153.912 146.505H140.018V163.621H153.912V146.505Z" fill="white"/>
</mask>
<g mask="url(#mask5_322_776)">
<path d="M140.348 159.362C140.348 159.362 145.26 158.524 144.321 163.335C144.321 163.335 139.409 165.217 140.348 159.362Z" fill="#FAFF69"/>
<path d="M145.051 150.581L144.11 154.554C144.11 154.554 139.721 157.689 140.034 160.825C140.034 160.825 140.765 164.588 144.321 163.335C144.321 163.335 151.22 159.99 151.742 157.482C151.742 157.482 151.22 153.614 152.161 152.673C152.161 152.673 151.429 151.627 150.593 152.673C150.593 152.673 149.86 154.973 150.279 157.272C150.279 157.272 148.083 161.453 143.38 162.186C143.38 162.186 140.975 162.394 141.081 160.512C141.081 160.512 140.245 158.421 145.262 155.389L146.308 150.79C146.308 150.79 145.786 150.059 145.053 150.581H145.051Z" fill="#FAFF69"/>
</g>
</g>
<mask id="mask6_322_776" style="mask-type:luminance" maskUnits="userSpaceOnUse" x="79" y="150" width="14" height="10">
<path d="M92.7321 150.23H79.953V159.903H92.7321V150.23Z" fill="white"/>
</mask>
<g mask="url(#mask6_322_776)">
<path d="M81.8068 150.231C80.3261 150.695 79.1602 154.551 80.6326 155.447C81.084 155.722 81.6173 155.496 82.1377 155.598C82.6465 155.697 83.1821 156.083 83.6136 156.375C84.327 156.856 85.3585 157.643 85.8661 158.362C86.148 158.761 86.1959 159.399 86.7116 159.637C87.1525 159.841 92.6013 159.938 92.7252 159.56C92.8211 159.268 92.0025 159.014 91.8925 158.58C91.7463 158.008 91.7487 157.381 91.1838 156.988C90.8236 156.738 90.5628 156.629 90.157 156.525C89.1617 156.269 88.1548 157.091 87.1081 157.056C86.0871 157.022 85.0275 156.41 84.3937 155.663C83.7224 154.873 83.4487 153.618 83.1517 152.668C82.9213 151.939 82.5798 150.515 81.8079 150.23" fill="#FAFF69"/>
<path d="M80.5682 155.379C80.5682 155.379 81.3448 158.578 80.815 159.903H81.6769C81.6769 159.903 81.2138 155.994 82.4722 155.199" fill="#FAFF69"/>
</g>
<path d="M88.6518 174.24H71.6439C70.8325 174.24 70.1748 174.898 70.1748 175.709C70.1748 176.52 70.8325 177.178 71.6439 177.178H88.6518C89.4632 177.178 90.1209 176.52 90.1209 175.709C90.1209 174.898 89.4632 174.24 88.6518 174.24Z" fill="#C4C74B"/>
<path d="M97.1654 179.481H71.6439C70.8325 179.481 70.1748 180.138 70.1748 180.95C70.1748 181.761 70.8325 182.419 71.6439 182.419H97.1654C97.9768 182.419 98.6345 181.761 98.6345 180.95C98.6345 180.138 97.9768 179.481 97.1654 179.481Z" fill="#494949"/>
<path d="M132.922 189.005H71.6439C70.8325 189.005 70.1748 189.663 70.1748 190.474C70.1748 191.285 70.8325 191.943 71.6439 191.943H132.922C133.734 191.943 134.392 191.285 134.392 190.474C134.392 189.663 133.734 189.005 132.922 189.005Z" fill="#494949"/>
<path d="M192.275 140.548H156.537C155.726 140.548 155.068 141.206 155.068 142.017C155.068 142.829 155.726 143.486 156.537 143.486H192.275C193.086 143.486 193.744 142.829 193.744 142.017C193.744 141.206 193.086 140.548 192.275 140.548Z" fill="#494949"/>
<path d="M178.653 146.254H156.537C155.726 146.254 155.068 146.912 155.068 147.724C155.068 148.535 155.726 149.193 156.537 149.193H178.653C179.464 149.193 180.122 148.535 180.122 147.724C180.122 146.912 179.464 146.254 178.653 146.254Z" fill="#494949"/>
<path d="M119.787 194.364H71.6439C70.8325 194.364 70.1748 195.022 70.1748 195.833C70.1748 196.644 70.8325 197.302 71.6439 197.302H119.787C120.599 197.302 121.256 196.644 121.256 195.833C121.256 195.022 120.599 194.364 119.787 194.364Z" fill="#494949"/>
<path d="M104.463 199.605H71.6439C70.8325 199.605 70.1748 200.263 70.1748 201.074C70.1748 201.885 70.8325 202.543 71.6439 202.543H104.463C105.274 202.543 105.932 201.885 105.932 201.074C105.932 200.263 105.274 199.605 104.463 199.605Z" fill="#C4C74B"/>
<path d="M137.457 174.442H109.985C107.799 174.442 106.027 176.214 106.027 178.4C106.027 180.586 107.799 182.358 109.985 182.358H137.457C139.643 182.358 141.414 180.586 141.414 178.4C141.414 176.214 139.643 174.442 137.457 174.442Z" fill="#494949"/>
<path d="M211.257 144.177C211.257 141.348 208.964 139.055 206.136 139.055C203.307 139.055 201.014 141.348 201.014 144.177C201.014 147.005 203.307 149.299 206.136 149.299C208.964 149.299 211.257 147.005 211.257 144.177Z" fill="#E3E66E"/>
<path d="M136.758 208.432H74.831C72.2595 208.432 70.1748 210.517 70.1748 213.088C70.1748 215.66 72.2595 217.745 74.831 217.745H136.758C139.33 217.745 141.414 215.66 141.414 213.088C141.414 210.517 139.33 208.432 136.758 208.432Z" fill="#494949"/>
<path d="M211.258 157.002H155.068V217.53H211.258V157.002Z" fill="#5E5E5E"/>
<path d="M211.025 157.235H155.301V217.297H211.025V157.235Z" stroke="white" stroke-opacity="0.2" stroke-width="0.465619"/>
<path d="M85.6469 125.579C86.9523 125.579 88.0105 124.52 88.0105 123.215C88.0105 121.91 86.9523 120.851 85.6469 120.851C84.3415 120.851 83.2832 121.91 83.2832 123.215C83.2832 124.52 84.3415 125.579 85.6469 125.579Z" fill="#222222"/>
<path d="M84.5271 123.215H86.8155" stroke="#808285" stroke-width="0.422537" stroke-linecap="round" stroke-linejoin="round"/>
<path d="M85.6468 124.334L84.5271 123.215L85.6468 122.095" stroke="#808285" stroke-width="0.422537" stroke-linecap="round" stroke-linejoin="round"/>
<path d="M93.2787 125.579C94.5841 125.579 95.6424 124.52 95.6424 123.215C95.6424 121.91 94.5841 120.851 93.2787 120.851C91.9733 120.851 90.915 121.91 90.915 123.215C90.915 124.52 91.9733 125.579 93.2787 125.579Z" fill="#222222"/>
<path d="M94.3985 123.215H92.11" stroke="#808285" stroke-width="0.422537" stroke-linecap="round" stroke-linejoin="round"/>
<path d="M93.2787 124.334L94.3984 123.215L93.2787 122.095" stroke="#808285" stroke-width="0.422537" stroke-linecap="round" stroke-linejoin="round"/>
<path d="M77.1183 124.691C77.9332 124.691 78.5938 124.03 78.5938 123.215C78.5938 122.4 77.9332 121.74 77.1183 121.74C76.3034 121.74 75.6428 122.4 75.6428 123.215C75.6428 124.03 76.3034 124.691 77.1183 124.691Z" fill="#29AB7F"/>
<path d="M71.5813 124.691C72.3963 124.691 73.0568 124.03 73.0568 123.215C73.0568 122.4 72.3963 121.74 71.5813 121.74C70.7665 121.74 70.1058 122.4 70.1058 123.215C70.1058 124.03 70.7665 124.691 71.5813 124.691Z" fill="#F4B11D"/>
<path d="M66.0436 124.691C66.8585 124.691 67.5191 124.03 67.5191 123.215C67.5191 122.4 66.8585 121.74 66.0436 121.74C65.2287 121.74 64.5681 122.4 64.5681 123.215C64.5681 124.03 65.2287 124.691 66.0436 124.691Z" fill="#EB3E56"/>
<path d="M210.735 120.85H99.991C98.9624 120.85 98.1285 121.684 98.1285 122.713V123.214V123.215V123.716C98.1285 124.745 98.9624 125.579 99.991 125.579H210.735C211.764 125.579 212.598 124.745 212.598 123.716V123.215V123.214V122.713C212.598 121.684 211.764 120.85 210.735 120.85Z" fill="#222222"/>
<path d="M210.462 123.061C210.563 122.636 210.3 122.209 209.874 122.109C209.448 122.008 209.022 122.272 208.921 122.698C208.821 123.123 209.084 123.55 209.51 123.65C209.935 123.751 210.362 123.487 210.462 123.061Z" stroke="#808285" stroke-width="0.422537" stroke-linecap="round" stroke-linejoin="round"/>
<path d="M211.074 124.402L210.185 123.511" stroke="#808285" stroke-width="0.422537" stroke-linecap="round" stroke-linejoin="round"/>
<path d="M215.732 122.034C215.961 122.034 216.147 121.849 216.147 121.619C216.147 121.39 215.961 121.205 215.732 121.205C215.503 121.205 215.318 121.39 215.318 121.619C215.318 121.849 215.503 122.034 215.732 122.034Z" fill="#222222"/>
<path d="M215.732 123.641C215.961 123.641 216.147 123.455 216.147 123.226C216.147 122.997 215.961 122.811 215.732 122.811C215.503 122.811 215.318 122.997 215.318 123.226C215.318 123.455 215.503 123.641 215.732 123.641Z" fill="#222222"/>
<path d="M215.732 125.248C215.961 125.248 216.147 125.062 216.147 124.833C216.147 124.604 215.961 124.418 215.732 124.418C215.503 124.418 215.318 124.604 215.318 124.833C215.318 125.062 215.503 125.248 215.732 125.248Z" fill="#222222"/>
<path opacity="0.2" d="M220.104 117.869H60.8625C59.9624 117.869 59.2328 118.599 59.2328 119.499V227.523C59.2328 228.423 59.9624 229.152 60.8625 229.152H220.104C221.004 229.152 221.734 228.423 221.734 227.523V119.499C221.734 118.599 221.004 117.869 220.104 117.869Z" stroke="url(#paint4_linear_322_776)" stroke-width="0.465619"/>
<mask id="mask7_322_776" style="mask-type:luminance" maskUnits="userSpaceOnUse" x="169" y="176" width="28" height="23">
<path d="M196.922 176.77H169.817V198.091H196.922V176.77Z" fill="white"/>
</mask>
<g mask="url(#mask7_322_776)">
<path d="M196.922 183.362L188.514 176.77H187.434C186.919 178.207 185.294 179.258 183.369 179.258C181.443 179.258 179.821 178.207 179.306 176.77H178.427L169.817 183.025L173.315 188.068L176.813 186.185L176.409 198.089H190.399L189.996 185.511L193.023 188.201L196.925 183.36L196.922 183.362ZM185.641 189.88L183.252 188.624L180.864 189.88L181.319 187.218L179.387 185.332L182.058 184.945L183.252 182.524L184.447 184.945L187.118 185.332L185.185 187.218L185.641 189.88Z" fill="#FAFF69"/>
</g>
<g style="mix-blend-mode:luminosity" opacity="0.2" filter="url(#filter3_f_322_776)">
<path d="M204.273 224.729C214.559 224.729 222.898 216.39 222.898 206.104C222.898 195.818 214.559 187.479 204.273 187.479C193.987 187.479 185.648 195.818 185.648 206.104C185.648 216.39 193.987 224.729 204.273 224.729Z" fill="#FFFF00"/>
</g>
<path d="M202.662 204.676L203.693 207.425C203.704 207.452 203.722 207.475 203.746 207.492C203.77 207.508 203.798 207.517 203.827 207.517C203.856 207.516 203.884 207.507 203.908 207.491C203.931 207.474 203.949 207.451 203.959 207.423L204.372 206.288C204.379 206.268 204.39 206.251 204.405 206.236C204.42 206.221 204.437 206.21 204.457 206.203L205.592 205.79C205.62 205.78 205.643 205.762 205.66 205.739C205.676 205.715 205.685 205.687 205.686 205.658C205.686 205.629 205.677 205.601 205.661 205.577C205.644 205.553 205.621 205.535 205.594 205.524L202.845 204.494C202.819 204.484 202.792 204.482 202.765 204.487C202.739 204.494 202.714 204.507 202.695 204.526C202.676 204.545 202.663 204.569 202.657 204.596C202.651 204.623 202.653 204.65 202.662 204.676Z" fill="#111316" stroke="white" stroke-width="0.212565" stroke-linecap="round" stroke-linejoin="round"/>
<path d="M202.662 204.676L203.693 207.425C203.704 207.452 203.722 207.475 203.746 207.492C203.77 207.508 203.798 207.517 203.827 207.517C203.856 207.516 203.884 207.507 203.908 207.491C203.931 207.474 203.949 207.451 203.959 207.423L204.372 206.288C204.379 206.268 204.39 206.251 204.405 206.236C204.42 206.221 204.437 206.21 204.457 206.203L205.593 205.79C205.62 205.78 205.643 205.762 205.66 205.739C205.676 205.715 205.685 205.687 205.686 205.658C205.686 205.629 205.677 205.601 205.661 205.577C205.644 205.553 205.621 205.535 205.594 205.524L202.845 204.494C202.819 204.484 202.792 204.482 202.765 204.487C202.739 204.494 202.714 204.507 202.695 204.526C202.676 204.545 202.663 204.569 202.657 204.596C202.651 204.623 202.653 204.65 202.662 204.676Z" stroke="white" stroke-width="0.212565" stroke-linecap="round" stroke-linejoin="round"/>
</g>
</g>
</g>
<defs>
<filter id="filter0_d_322_776" x="105.096" y="45" width="190.904" height="139.686" filterUnits="userSpaceOnUse" color-interpolation-filters="sRGB">
<feFlood flood-opacity="0" result="BackgroundImageFix"/>
<feColorMatrix in="SourceAlpha" type="matrix" values="0 0 0 0 0 0 0 0 0 0 0 0 0 0 0 0 0 0 127 0" result="hardAlpha"/>
<feOffset/>
<feGaussianBlur stdDeviation="6.98428"/>
<feComposite in2="hardAlpha" operator="out"/>
<feColorMatrix type="matrix" values="0 0 0 0 0 0 0 0 0 0 0 0 0 0 0 0 0 0 0.25 0"/>
<feBlend mode="normal" in2="BackgroundImageFix" result="effect1_dropShadow_322_776"/>
<feBlend mode="normal" in="SourceGraphic" in2="effect1_dropShadow_322_776" result="shape"/>
</filter>
<filter id="filter1_d_322_776" x="190.487" y="133.629" width="6.296" height="6.29594" filterUnits="userSpaceOnUse" color-interpolation-filters="sRGB">
<feFlood flood-opacity="0" result="BackgroundImageFix"/>
<feColorMatrix in="SourceAlpha" type="matrix" values="0 0 0 0 0 0 0 0 0 0 0 0 0 0 0 0 0 0 127 0" result="hardAlpha"/>
<feOffset dy="0.56684"/>
<feGaussianBlur stdDeviation="0.991968"/>
<feComposite in2="hardAlpha" operator="out"/>
<feColorMatrix type="matrix" values="0 0 0 0 0 0 0 0 0 0 0 0 0 0 0 0 0 0 0.25 0"/>
<feBlend mode="normal" in2="BackgroundImageFix" result="effect1_dropShadow_322_776"/>
<feBlend mode="normal" in="SourceGraphic" in2="effect1_dropShadow_322_776" result="shape"/>
</filter>
<filter id="filter2_d_322_776" x="132.845" y="85.4275" width="47.9291" height="34.7852" filterUnits="userSpaceOnUse" color-interpolation-filters="sRGB">
<feFlood flood-opacity="0" result="BackgroundImageFix"/>
<feColorMatrix in="SourceAlpha" type="matrix" values="0 0 0 0 0 0 0 0 0 0 0 0 0 0 0 0 0 0 127 0" result="hardAlpha"/>
<feOffset/>
<feGaussianBlur stdDeviation="1.1944"/>
<feComposite in2="hardAlpha" operator="out"/>
<feColorMatrix type="matrix" values="0 0 0 0 0.988235 0 0 0 0 1 0 0 0 0 0.454902 0 0 0 0.5 0"/>
<feBlend mode="normal" in2="BackgroundImageFix" result="effect1_dropShadow_322_776"/>
<feBlend mode="normal" in="SourceGraphic" in2="effect1_dropShadow_322_776" result="shape"/>
</filter>
<filter id="filter3_f_322_776" x="148.237" y="150.068" width="112.072" height="112.072" filterUnits="userSpaceOnUse" color-interpolation-filters="sRGB">
<feFlood flood-opacity="0" result="BackgroundImageFix"/>
<feBlend mode="normal" in="SourceGraphic" in2="BackgroundImageFix" result="shape"/>
<feGaussianBlur stdDeviation="18.7057" result="effect1_foregroundBlur_322_776"/>
</filter>
<linearGradient id="paint0_linear_322_776" x1="200.548" y1="58.9686" x2="200.548" y2="170.717" gradientUnits="userSpaceOnUse">
<stop stop-color="white"/>
<stop offset="1" stop-color="#C0C0C0" stop-opacity="0"/>
</linearGradient>
<linearGradient id="paint1_linear_322_776" x1="201.014" y1="134.475" x2="201.014" y2="154.42" gradientUnits="userSpaceOnUse">
<stop stop-color="#FAFF69"/>
<stop offset="1" stop-color="#FAFF69" stop-opacity="0"/>
</linearGradient>
<linearGradient id="paint2_linear_322_776" x1="163.415" y1="117.031" x2="151.438" y2="75.0244" gradientUnits="userSpaceOnUse">
<stop stop-color="#404040" stop-opacity="0"/>
<stop offset="1" stop-color="#363636"/>
</linearGradient>
<linearGradient id="paint3_linear_322_776" x1="283.196" y1="60.1326" x2="174.474" y2="153.489" gradientUnits="userSpaceOnUse">
<stop stop-color="#FAFF69" stop-opacity="0"/>
<stop offset="1" stop-color="#FAFF69" stop-opacity="0.7"/>
</linearGradient>
<linearGradient id="paint4_linear_322_776" x1="140.483" y1="117.637" x2="140.483" y2="229.385" gradientUnits="userSpaceOnUse">
<stop stop-color="white"/>
<stop offset="1" stop-color="#C0C0C0" stop-opacity="0"/>
</linearGradient>
<clipPath id="clip0_322_776">
<rect width="355" height="274" fill="white"/>
</clipPath>
<clipPath id="clip1_322_776">
<rect width="237" height="184.851" fill="white" transform="translate(59 45)"/>
</clipPath>
</defs>
</svg>
