<svg width="172" height="160" viewBox="0 0 172 160" fill="none" xmlns="http://www.w3.org/2000/svg">
<style>
  path { fill: rgb(80, 80, 80); }
  @media (prefers-color-scheme: dark) {
    path { fill: rgb(200, 200, 200); }
  }
</style>
<path d="M85.7554 159.082C65.0154 159.082 44.2654 159.092 23.5254 159.082C12.3754 159.082 2.0054 149.482 0.325403 138.452C-1.6246 125.672 5.4854 115.432 13.7454 111.622C17.1754 110.042 20.7154 109.022 24.5654 109.042C37.7254 109.092 50.8954 109.002 64.0554 109.102C66.5354 109.122 67.5454 108.402 67.3954 105.852C67.2454 103.202 67.2854 100.512 67.4654 97.8621C67.6154 95.6421 66.8754 94.1221 65.0954 92.7621C60.5354 89.2821 56.0254 85.7221 51.6354 82.0221C44.3254 75.8721 38.9854 68.4121 36.9554 58.8821C35.4954 52.0221 35.7954 45.1121 36.8154 38.2621C37.7854 31.8121 39.7754 25.6321 43.5454 20.2021C47.6354 14.3021 52.9454 10.1521 60.3154 9.20207C61.1854 9.09207 61.9454 8.81207 62.4954 8.12207C66.9154 2.55207 73.3354 1.15207 79.7954 0.402071C87.4454 -0.487929 95.0754 -0.00792885 102.395 2.93207C104.645 3.84207 106.485 5.14207 107.985 6.95207C109.285 8.51207 110.885 9.49207 112.845 9.72207C122.165 10.8121 128.165 16.5121 131.875 24.4521C137.825 37.1621 139.365 50.4221 134.495 63.9421C131.785 71.4521 126.495 77.0621 120.525 82.1021C115.755 86.1221 110.705 89.7921 106.145 94.0821C104.815 95.3321 104.225 96.6721 104.315 98.4721C104.425 100.552 104.335 102.632 104.345 104.722C104.345 109.032 104.345 109.052 108.805 109.052C121.465 109.052 134.135 108.942 146.795 109.092C157.695 109.222 165.755 114.392 169.805 124.422C175.695 139.012 167.995 153.862 153.875 158.202C151.675 158.882 149.505 159.102 147.245 159.102C126.755 159.082 106.255 159.092 85.7654 159.092L85.7554 159.082ZM73.6254 92.9821C73.6254 92.9821 73.6554 92.9821 73.6754 92.9821C73.6754 103.892 73.5554 114.802 73.7054 125.712C73.8954 140.322 86.5954 152.922 100.915 152.692C115.905 152.452 130.905 152.692 145.905 152.762C148.265 152.772 150.595 152.542 152.815 151.862C161.095 149.322 166.365 140.602 165.295 131.432C164.315 122.982 157.025 115.872 148.355 115.542C134.535 115.022 120.695 115.232 106.865 115.312C104.895 115.322 104.205 116.152 104.305 118.052C104.405 119.892 105.235 121.072 107.035 121.402C108.175 121.612 109.345 121.662 110.505 121.672C117.415 121.712 124.335 121.672 131.245 121.762C134.085 121.792 135.315 123.512 134.455 125.972C133.855 127.702 132.415 127.962 130.825 127.962C123.325 127.942 115.825 127.722 108.335 128.002C102.815 128.212 98.1854 123.922 98.2454 117.912C98.4354 98.6721 98.1854 79.4321 98.0854 60.1921C98.0654 57.0021 97.8954 56.8321 94.6454 56.8321C88.7254 56.8221 82.8154 56.8321 76.8954 56.8321C73.6554 56.8321 73.6054 56.8921 73.6054 60.2421C73.6054 71.1521 73.6054 82.0621 73.6054 92.9721L73.6254 92.9821ZM50.1154 152.692C50.1154 152.692 50.1154 152.712 50.1154 152.722C59.1954 152.722 68.2754 152.732 77.3554 152.702C78.1954 152.702 79.4054 153.172 79.7954 152.082C80.1254 151.172 78.9954 150.742 78.4354 150.182C75.3754 147.102 72.3054 143.942 70.8354 139.802C69.7954 136.892 68.0354 136.082 65.1954 136.102C55.6954 136.182 46.2054 136.102 36.7054 136.082C35.7254 136.082 34.6754 136.272 33.8054 135.602C32.6554 134.702 32.0754 133.532 32.5254 132.092C33.0554 130.402 34.3754 129.942 36.0454 129.952C45.7054 129.962 55.3754 129.892 65.0354 129.942C66.8754 129.942 67.5554 129.382 67.4654 127.502C67.3254 124.672 67.4254 121.842 67.3954 119.012C67.3654 115.632 67.1954 115.442 63.8754 115.452C50.8754 115.482 37.8854 115.532 24.8854 115.562C22.7854 115.562 20.6654 115.692 18.7054 116.332C11.6754 118.622 4.7454 126.742 6.4254 137.342C7.7454 145.702 15.3854 152.632 23.8754 152.702C32.6254 152.772 41.3654 152.722 50.1154 152.722V152.692ZM85.8554 50.1221C85.8554 50.1221 85.8554 50.1221 85.8554 50.1121C91.2654 50.1121 96.6754 50.1421 102.085 50.1021C105.255 50.0821 106.975 48.6021 107.575 45.4621C108.565 40.3121 109.375 35.1321 109.845 29.9221C110.665 21.0221 105.885 12.3721 97.9454 8.66207C92.7254 6.22207 87.0554 6.72207 81.5054 6.81207C79.7054 6.84207 77.8654 7.02207 76.0954 7.63207C67.0554 10.7721 60.8454 19.8921 61.5954 29.7721C61.9954 35.0521 63.0654 40.3021 64.0954 45.5121C64.7754 48.9721 66.3854 50.0921 69.8554 50.1121C75.1854 50.1521 80.5154 50.1221 85.8354 50.1221H85.8554ZM104.405 72.0821H104.345C104.345 76.7421 104.345 81.4021 104.345 86.0521C104.345 86.6021 104.175 87.3321 104.865 87.5621C105.135 87.6521 105.625 87.3221 105.925 87.0721C111.175 82.6021 116.885 78.6821 121.715 73.7221C125.705 69.6221 129.015 65.0421 130.415 59.4221C132.985 49.1121 132.105 38.9421 128.245 29.1121C125.875 23.0721 122.055 18.1221 115.645 15.7721C115.125 15.5821 114.545 15.1421 114.025 15.6121C113.455 16.1421 114.025 16.6821 114.225 17.1821C116.345 22.6721 116.775 28.3021 115.765 34.0921C115.195 37.3621 114.785 40.6621 114.305 43.9521C113.505 49.4821 111.745 54.3121 105.705 56.1721C104.385 56.5821 104.415 57.7421 104.415 58.8521C104.415 63.2621 104.415 67.6721 104.415 72.0721L104.405 72.0821ZM67.4254 71.9121C67.4254 71.9121 67.3954 71.9121 67.3754 71.9121C67.3754 67.6721 67.3254 63.4221 67.3954 59.1821C67.4254 57.4721 66.9254 56.4821 65.1754 55.8421C61.5154 54.5021 59.3154 51.7721 58.1854 47.9721C57.4154 45.3821 57.4054 42.7121 56.8954 40.1021C55.4354 32.6321 54.3754 25.1421 57.3654 17.7521C57.5954 17.1721 57.9454 16.4021 57.3054 15.8921C56.6654 15.3721 56.0054 15.9621 55.4754 16.2521C52.0254 18.1021 49.3354 20.7721 47.3454 24.1421C42.3554 32.6021 40.9954 41.8421 41.3654 51.5021C41.5954 57.5421 43.1654 63.1221 46.3754 68.2321C51.3254 76.1121 58.8954 81.2221 66.0954 86.6921C67.5654 87.8021 67.3954 86.1721 67.3954 85.4121C67.4354 80.9221 67.4154 76.4221 67.4154 71.9321L67.4254 71.9121Z"/>
</svg>
