<svg width="24" height="24" viewBox="0 0 24 24" fill="none" xmlns="http://www.w3.org/2000/svg">
<style>
  path { stroke: rgb(80, 80, 80); fill: none; }
  .eye { fill: rgb(80, 80, 80); stroke: none; }
  @media (prefers-color-scheme: dark) {
    path { stroke: rgb(200, 200, 200); }
    .eye { fill: rgb(200, 200, 200); }
  }
</style>
<path d="M11.9438 15.045C11.8725 17.535 11.9587 20.0438 12.2062 20.655C12.4462 21.2625 12.9675 22.4475 14.7638 22.065C16.2638 21.7425 16.8075 21.12 17.0438 19.7475C17.2666 18.29 17.4516 16.827 17.5988 15.36M9.7875 2.565C9.7875 2.565 1.66875 -0.753749 2.0475 6.795C2.12625 8.4 4.35 18.945 6.9975 15.7575C7.96875 14.595 8.8425 13.6838 8.8425 13.6838M14.1788 1.9575C13.8975 2.0475 18.6975 0.202501 21.4238 3.69C22.3875 4.92 21.2738 9.9525 18.6 13.9125" stroke-width="0.968276" stroke-linecap="round" stroke-linejoin="round"/>
<path d="M18.6 13.9125C18.6 13.9125 18.7763 14.7713 21.3038 14.25C22.4138 14.0175 21.7463 14.8875 20.6213 15.4125C19.6988 15.84 17.6325 15.9488 17.5988 15.36C17.5088 13.8338 18.6862 14.295 18.6 13.9125ZM18.6 13.9125C18.525 13.5675 18 13.23 17.6513 12.39C17.3475 11.6513 13.4887 6.01125 18.72 6.8475C18.9112 6.81 17.355 1.8675 12.4575 1.78875C7.56 1.71 7.725 7.81125 7.725 7.81125" stroke-width="0.968276" stroke-linecap="round" stroke-linejoin="bevel"/>
<path d="M10.575 14.4375C9.88875 15.1987 10.0875 15.3337 8.72625 15.615C7.3425 15.8962 8.15625 16.4025 8.685 16.5375C9.32625 16.6987 10.8113 16.9237 11.8163 15.5212C12.12 15.09 11.8162 14.4075 11.3925 14.235C11.19 14.1525 10.92 14.0475 10.5713 14.4375" stroke-width="0.968276" stroke-linecap="round" stroke-linejoin="round"/>
<path d="M10.5262 14.4225C10.4587 13.9725 10.6762 13.44 10.905 12.8175C11.2537 11.88 12.0562 10.9425 11.415 7.9725C10.935 5.76 7.725 7.51125 7.72125 7.81125C7.7175 8.11125 7.8675 9.33375 7.66875 10.755C7.40625 12.6112 8.85 14.1825 10.5075 14.0175" stroke-width="0.968276" stroke-linecap="round" stroke-linejoin="round"/>
<path class="eye" d="M9.76125 7.76625C9.74625 7.8675 9.94875 8.14125 10.2112 8.17875C10.4737 8.21625 10.6987 8.0025 10.7175 7.8975C10.7325 7.79625 10.53 7.68375 10.2675 7.64625C10.005 7.60875 9.78 7.665 9.76125 7.76625Z" stroke-width="0.322759"/>
<path class="eye" d="M17.7787 7.94625C17.7937 8.0475 17.5912 8.32125 17.3287 8.35875C17.0662 8.39625 16.8412 8.17875 16.8262 8.0775C16.8112 7.97625 17.0137 7.86375 17.2762 7.82625C17.5387 7.78875 17.7637 7.84125 17.7787 7.94625Z" stroke-width="0.161379"/>
<path d="M18.72 6.8475C18.765 7.65375 18.5475 8.1975 18.5213 9.05625C18.4838 10.3012 19.1138 11.7262 18.1575 13.1512" stroke-width="0.968276" stroke-linecap="round" stroke-linejoin="round"/>
</svg>