<svg width="24" height="24" viewBox="0 0 24 24" fill="none" xmlns="http://www.w3.org/2000/svg">
<path d="M6.51789 21H10.6183H14.3907C15.828 21 17 19.8771 17 18.5C17 17.1229 15.828 16 14.3907 16H14.0664V15.2857C14.0664 12.9214 12.0609 11 9.59319 11C7.37376 11 5.5338 12.5557 5.18489 14.5879C3.41277 14.6743 2 16.0664 2 17.7857C2 18.2078 2.08678 18.6258 2.25537 19.0158C2.42397 19.4057 2.67109 19.7601 2.98262 20.0586C3.29415 20.357 3.66399 20.5938 4.07102 20.7553C4.47805 20.9169 4.9143 21 5.35487 21H6.51789Z" stroke="white" stroke-width="1.5" stroke-linecap="round" stroke-linejoin="round"/>
<mask id="mask0_2_17" style="mask-type:luminance" maskUnits="userSpaceOnUse" x="8" y="0" width="16" height="16">
<path d="M23.885 0.24625H8.525V15.6062H23.885V0.24625Z" fill="white"/>
</mask>
<g mask="url(#mask0_2_17)">
<path d="M21.005 8.88627H11.405C11.1399 8.88627 10.925 9.10118 10.925 9.36627L10.925 11C12.5 11 13.5 12.5 13.123 12.7263H21.005C21.2701 12.7263 21.485 12.5114 21.485 12.2463V9.36627C21.485 9.10118 21.2701 8.88627 21.005 8.88627Z" stroke="white" stroke-width="1.2" stroke-linecap="round" stroke-linejoin="round"/>
<path d="M21.005 3.12625H11.405C11.1399 3.12625 10.925 3.34115 10.925 3.60625V6.48627C10.925 6.75136 11.1399 6.96627 11.405 6.96627H21.005C21.2701 6.96627 21.485 6.75136 21.485 6.48627V3.60625C21.485 3.34115 21.2701 3.12625 21.005 3.12625Z" stroke="white" stroke-width="1.2" stroke-linecap="round" stroke-linejoin="round"/>
<path d="M19.325 5.76625C19.7226 5.76625 20.045 5.4439 20.045 5.04625C20.045 4.64861 19.7226 4.32625 19.325 4.32625C18.9274 4.32625 18.605 4.64861 18.605 5.04625C18.605 5.4439 18.9274 5.76625 19.325 5.76625Z" fill="white"/>
<path d="M19.325 11.5263C19.7226 11.5263 20.045 11.2039 20.045 10.8063C20.045 10.4086 19.7226 10.0863 19.325 10.0863C18.9274 10.0863 18.605 10.4086 18.605 10.8063C18.605 11.2039 18.9274 11.5263 19.325 11.5263Z" fill="white"/>
</g>
</svg>
