<svg xmlns="http://www.w3.org/2000/svg" width="42" height="42" fill="none" viewBox="0 0 42 42">
<style>
  path { fill: rgb(80, 80, 80); }
  @media (prefers-color-scheme: dark) {
    path { fill: rgb(200, 200, 200); }
  }
</style>
<path d="M11.3 22.1c.9 0 1.62.72 1.62 1.61v5.9a1.62 1.62 0 0 1-3.23 0v-5.9c0-.89.73-1.61 1.62-1.61m12.92-3.78c.9 0 1.61.73 1.61 1.62v9.68a1.62 1.62 0 0 1-3.23 0v-9.68c0-.9.73-1.62 1.62-1.62m6.47-3.77c.88 0 1.6.72 1.6 1.61v13.46a1.62 1.62 0 0 1-3.22 0V16.16c0-.9.72-1.61 1.61-1.61m-12.92-3.78c.89 0 1.61.72 1.61 1.61v17.23a1.61 1.61 0 0 1-3.23 0V12.38c0-.89.73-1.61 1.62-1.61"/><path fill-rule="evenodd" d="M29.62 0C36.46 0 42 5.54 42 12.38v17.24C42 36.46 36.46 42 29.62 42H12.38A12.4 12.4 0 0 1 0 29.62V12.38C0 5.54 5.54 0 12.38 0zM12.38 3.23a9.15 9.15 0 0 0-9.15 9.15v17.24c0 5.05 4.1 9.15 9.15 9.15h17.24c5.05 0 9.15-4.1 9.15-9.15V12.38c0-5.05-4.1-9.15-9.15-9.15z" clip-rule="evenodd"/>
</svg>