<svg xmlns="http://www.w3.org/2000/svg" width="573" height="344" fill="none" viewBox="0 0 573 344"><rect width="439" height="252" y="44" fill="#FCFF74" rx="16"/><g filter="url(#a)"><g clip-path="url(#b)"><rect width="509" height="286" x="9" y="1" fill="#282828" rx="8" shape-rendering="crispEdges"/><path fill="#FF7575" d="M37.21 52.66h3.38v5.18h1.88V59h-5.26v-1.16h1.97v-4.01h-1.97v-1.17Zm1.85-1.64c0-.22.07-.4.22-.54a.79.79 0 0 1 .59-.22c.26 0 .45.08.6.22.14.14.21.32.21.54a.7.7 0 0 1-.22.54c-.14.15-.34.22-.6.22a.8.8 0 0 1-.58-.22.75.75 0 0 1-.22-.54Zm5.86 1.64.04.67a1.34 1.34 0 0 1 1.27-.79c.26 0 .49.06.66.17.18.1.32.27.4.5.13-.2.3-.37.49-.49.2-.12.43-.18.7-.18.21 0 .4.04.57.1.18.07.33.18.45.33.13.15.22.34.29.57.07.23.1.5.1.83V59h-1.3v-4.64c0-.25-.05-.43-.16-.52a.58.58 0 0 0-.41-.15.58.58 0 0 0-.59.42V59h-1.27v-4.64c0-.25-.05-.42-.15-.52a.53.53 0 0 0-.4-.15c-.17 0-.3.04-.4.1a.68.68 0 0 0-.21.3V59h-1.3v-6.34h1.22Zm11.95 3.23c0 .47-.05.9-.16 1.29-.11.4-.27.73-.48 1.02a2.3 2.3 0 0 1-.78.68c-.3.16-.66.24-1.06.24-.36 0-.68-.06-.95-.18a2.03 2.03 0 0 1-.71-.5v3h-1.4v-8.78h1.29l.06.64a2.07 2.07 0 0 1 1.7-.76 2.27 2.27 0 0 1 1.85.9 3 3 0 0 1 .48 1.02c.1.4.16.83.16 1.31v.12Zm-1.4-.12c0-.28-.03-.55-.09-.8a2.07 2.07 0 0 0-.27-.66c-.12-.2-.27-.35-.46-.45a1.3 1.3 0 0 0-.67-.17c-.31 0-.57.07-.77.2-.2.13-.36.31-.48.53v2.84c.12.22.27.4.47.53.2.14.47.2.8.2a1.27 1.27 0 0 0 1.12-.62 3.44 3.44 0 0 0 .36-1.47v-.13Zm2.8 0c0-.46.07-.88.2-1.28.14-.39.33-.73.58-1.02.25-.29.56-.52.93-.68a3 3 0 0 1 1.23-.25c.47 0 .88.09 1.25.25.36.16.67.39.92.68.25.29.45.63.58 1.02.13.4.2.82.2 1.28v.12a4 4 0 0 1-.2 1.29 2.72 2.72 0 0 1-2.74 1.94 2.72 2.72 0 0 1-2.75-1.95 4 4 0 0 1-.2-1.28v-.12Zm1.4.12c0 .3.03.57.09.82s.16.48.28.67c.13.2.3.35.49.46.2.1.43.16.7.16a1.3 1.3 0 0 0 1.15-.62c.13-.2.23-.42.29-.67.06-.25.09-.53.09-.82v-.12c0-.28-.03-.55-.1-.8a1.98 1.98 0 0 0-.28-.67 1.33 1.33 0 0 0-1.17-.63 1.35 1.35 0 0 0-1.17.63c-.12.2-.22.41-.28.67-.06.25-.09.52-.09.8v.12Zm10.42-3.35a4.95 4.95 0 0 1 1.17.16l-.2 1.38c-.43-.1-.86-.15-1.27-.15a2 2 0 0 0-1.14.3c-.29.19-.5.46-.63.8V59h-1.4v-6.34h1.3l.07.99c.26-.34.56-.61.92-.8.35-.2.75-.3 1.18-.3Zm5.66-1.41v1.53h2.4v1.04h-2.4v3.04c0 .24.03.44.08.6a.87.87 0 0 0 .6.57c.14.04.29.05.45.05a4.15 4.15 0 0 0 .76-.06 9.71 9.71 0 0 0 .6-.12l.16.96c-.1.06-.23.12-.37.17a3.46 3.46 0 0 1-1 .18c-.17.02-.35.03-.52.03-.32 0-.61-.04-.88-.13a1.82 1.82 0 0 1-.68-.4 1.99 1.99 0 0 1-.44-.72 3.1 3.1 0 0 1-.16-1.05V53.7H72.8v-1.04h1.55v-1.53h1.4ZM37.21 70.66h3.38v5.18h1.88V77h-5.26v-1.16h1.97v-4.01h-1.97v-1.17Zm1.85-1.64c0-.22.07-.4.22-.54a.79.79 0 0 1 .59-.22c.26 0 .45.08.6.22.14.14.21.32.21.54a.7.7 0 0 1-.22.54c-.14.15-.34.22-.6.22a.8.8 0 0 1-.58-.22.75.75 0 0 1-.22-.54Zm5.86 1.64.04.67a1.34 1.34 0 0 1 1.27-.79c.26 0 .49.06.66.17.18.1.32.27.4.5.13-.2.3-.37.49-.49.2-.12.43-.18.7-.18.21 0 .4.04.57.1.18.07.33.18.45.33.13.15.22.34.29.57.07.23.1.5.1.83V77h-1.3v-4.64c0-.25-.05-.43-.16-.52a.58.58 0 0 0-.41-.15.58.58 0 0 0-.59.42V77h-1.27v-4.64c0-.25-.05-.42-.15-.52a.53.53 0 0 0-.4-.15c-.17 0-.3.04-.4.1a.68.68 0 0 0-.21.3V77h-1.3v-6.34h1.22Zm11.95 3.23c0 .47-.05.9-.16 1.29-.11.4-.27.73-.48 1.02a2.3 2.3 0 0 1-.78.68c-.3.16-.66.24-1.06.24-.36 0-.68-.06-.95-.18a2.03 2.03 0 0 1-.71-.5v3h-1.4v-8.78h1.29l.06.64a2.07 2.07 0 0 1 1.7-.76 2.27 2.27 0 0 1 1.85.9 3 3 0 0 1 .48 1.02c.1.4.16.83.16 1.31v.12Zm-1.4-.12c0-.28-.03-.55-.09-.8a2.07 2.07 0 0 0-.27-.66c-.12-.2-.27-.35-.46-.45a1.3 1.3 0 0 0-.67-.17c-.31 0-.57.07-.77.2-.2.13-.36.31-.48.53v2.84c.12.22.27.4.47.53.2.14.47.2.8.2a1.27 1.27 0 0 0 1.12-.62 3.44 3.44 0 0 0 .36-1.47v-.13Zm2.8 0c0-.46.07-.88.2-1.28.14-.39.33-.73.58-1.02a2.85 2.85 0 0 1 2.16-.93c.47 0 .88.08 1.25.25.36.16.67.39.92.68.25.29.45.63.58 1.02.13.4.2.82.2 1.28v.12a4 4 0 0 1-.2 1.29 2.72 2.72 0 0 1-2.74 1.94 2.72 2.72 0 0 1-2.75-1.95 4 4 0 0 1-.2-1.28v-.12Zm1.4.12c0 .3.03.57.09.82s.16.48.28.67c.13.2.3.35.49.46.2.1.43.16.7.16a1.3 1.3 0 0 0 1.15-.62c.13-.2.23-.42.29-.67.06-.25.09-.53.09-.82v-.12c0-.28-.03-.55-.1-.8a1.98 1.98 0 0 0-.28-.67 1.33 1.33 0 0 0-1.17-.63 1.35 1.35 0 0 0-1.17.63c-.12.2-.22.41-.28.67-.06.25-.09.52-.09.8v.12Zm10.42-3.35a4.95 4.95 0 0 1 1.17.16l-.2 1.38c-.43-.1-.86-.15-1.27-.15a2 2 0 0 0-1.14.3c-.29.19-.5.46-.63.8V77h-1.4v-6.34h1.3l.07.99c.26-.34.56-.61.92-.8.35-.2.75-.3 1.18-.3Zm5.66-1.42v1.54h2.4v1.04h-2.4v3.04c0 .24.03.44.08.6a.87.87 0 0 0 .6.57c.14.04.29.05.45.05a4.15 4.15 0 0 0 .76-.06 9.71 9.71 0 0 0 .6-.12l.16.96c-.1.06-.23.12-.37.17a3.46 3.46 0 0 1-1 .18c-.17.02-.35.03-.52.03-.32 0-.61-.04-.88-.13a1.82 1.82 0 0 1-.68-.4 1.99 1.99 0 0 1-.44-.72 3.1 3.1 0 0 1-.16-1.05V71.7H72.8v-1.04h1.55v-1.53h1.4Z"/><path fill="#fff" d="M92.9 55.9c0 .46-.05.88-.16 1.28-.1.4-.27.73-.48 1.02a2.3 2.3 0 0 1-.78.68c-.3.16-.65.24-1.05.24-.36 0-.68-.06-.96-.18a2.03 2.03 0 0 1-.7-.5v3h-1.4v-8.78h1.28l.06.64a2.07 2.07 0 0 1 1.7-.76c.4 0 .76.08 1.07.24.3.15.57.37.78.66a3 3 0 0 1 .48 1.02c.11.4.17.83.17 1.31v.12Zm-1.4-.13c0-.28-.02-.55-.08-.8a2.07 2.07 0 0 0-.27-.66c-.12-.2-.28-.35-.46-.45a1.3 1.3 0 0 0-.67-.17c-.31 0-.57.07-.78.2-.2.13-.36.31-.48.53v2.84c.12.22.28.4.48.53.2.14.47.2.79.2a1.27 1.27 0 0 0 1.12-.62c.13-.19.21-.41.27-.67.06-.25.09-.52.09-.8v-.13ZM98.6 59a1.41 1.41 0 0 1-.1-.28l-.06-.34a2.44 2.44 0 0 1-1.78.74 2.8 2.8 0 0 1-.92-.14c-.27-.1-.5-.23-.7-.4a1.82 1.82 0 0 1-.6-1.36c0-.68.25-1.2.76-1.55.5-.36 1.23-.54 2.18-.54h1.02v-.42a1 1 0 0 0-.34-.8 1.4 1.4 0 0 0-.96-.3c-.19 0-.35.03-.5.08a1 1 0 0 0-.34.18.76.76 0 0 0-.21.27.83.83 0 0 0-.07.34h-1.4a1.74 1.74 0 0 1 .67-1.33c.23-.19.5-.33.82-.44a3.7 3.7 0 0 1 2.15-.02c.32.08.6.22.83.4.24.18.42.41.55.68.14.27.2.59.2.95v2.83c0 .27.02.53.06.76.04.23.1.42.18.59v.1h-1.43Zm-1.68-1.01a1.9 1.9 0 0 0 .93-.24 1.46 1.46 0 0 0 .55-.54V56h-.89c-.57 0-1 .1-1.26.28a.9.9 0 0 0-.4.79.85.85 0 0 0 .25.65c.09.08.2.14.33.19.14.04.3.07.49.07Zm6.12-5.33.08.88a2.34 2.34 0 0 1 1.93-1c.32 0 .62.05.88.14.27.1.5.24.7.44.19.2.34.46.44.78.11.31.17.7.17 1.14V59h-1.4v-3.94c0-.26-.03-.48-.1-.65a.98.98 0 0 0-.25-.43.9.9 0 0 0-.4-.22 1.94 1.94 0 0 0-.55-.07c-.31 0-.58.07-.81.2a1.6 1.6 0 0 0-.55.56V59h-1.4v-6.34h1.26Zm5.75 3.12c0-.48.06-.92.18-1.32.11-.4.28-.74.5-1.02a2.31 2.31 0 0 1 1.84-.9c.35 0 .66.06.92.18.27.12.5.3.7.51V50h1.4v9h-1.27l-.07-.64a2.03 2.03 0 0 1-1.7.76 2.22 2.22 0 0 1-1.82-.92 3.28 3.28 0 0 1-.5-1.01 4.5 4.5 0 0 1-.18-1.28v-.13Zm1.4.13c0 .28.03.55.08.8.06.25.14.47.26.66.12.18.28.33.46.44.19.1.4.16.67.16.32 0 .58-.07.78-.2.2-.15.37-.33.49-.57v-2.75a1.35 1.35 0 0 0-1.26-.76c-.26 0-.49.06-.68.17-.18.1-.33.26-.45.45s-.2.41-.27.66c-.05.26-.08.53-.08.81v.13ZM120.23 59a1.33 1.33 0 0 1-.1-.28l-.07-.34a2.4 2.4 0 0 1-1.78.74 2.8 2.8 0 0 1-.92-.14c-.27-.1-.5-.23-.7-.4a1.82 1.82 0 0 1-.6-1.36c0-.68.25-1.2.76-1.55.5-.36 1.23-.54 2.18-.54h1.02v-.42a1 1 0 0 0-.34-.8 1.4 1.4 0 0 0-.96-.3c-.19 0-.35.03-.49.08a1 1 0 0 0-.35.18.75.75 0 0 0-.21.27.82.82 0 0 0-.07.34h-1.4a1.74 1.74 0 0 1 .67-1.33c.23-.19.5-.33.82-.44a3.7 3.7 0 0 1 2.15-.02c.32.08.6.22.83.4.24.18.42.41.55.68.14.27.2.59.2.95v2.83c0 .27.02.53.06.76.05.23.1.42.18.59v.1h-1.43Zm-1.69-1.01a1.9 1.9 0 0 0 .93-.24 1.46 1.46 0 0 0 .55-.54V56h-.89c-.57 0-.99.1-1.26.28a.9.9 0 0 0-.4.79c0 .13.01.25.06.36.04.11.1.2.2.29.08.08.2.14.33.19.13.04.3.07.48.07Zm8.98-.7c0-.11-.02-.2-.06-.3a.6.6 0 0 0-.23-.23 1.82 1.82 0 0 0-.46-.2c-.2-.07-.44-.13-.74-.2a7.59 7.59 0 0 1-1.02-.27c-.3-.11-.56-.24-.78-.4a1.74 1.74 0 0 1-.5-.52 1.55 1.55 0 0 1 0-1.44c.13-.23.3-.44.52-.61.23-.18.5-.32.82-.42a3.72 3.72 0 0 1 2.22 0c.33.1.62.25.85.43a1.83 1.83 0 0 1 .71 1.43h-1.4a.8.8 0 0 0-.08-.35.9.9 0 0 0-.25-.31 1.2 1.2 0 0 0-.4-.21 1.73 1.73 0 0 0-.56-.09c-.21 0-.4.03-.55.07-.16.05-.28.1-.38.18a.7.7 0 0 0-.23.25.76.76 0 0 0-.02.6.6.6 0 0 0 .21.23c.1.07.24.13.42.2.18.05.42.1.7.15a8 8 0 0 1 1.07.26c.32.1.6.24.82.39a1.43 1.43 0 0 1 .7 1.28c0 .28-.06.54-.2.77-.12.23-.3.44-.54.61-.24.17-.53.3-.86.4a4.12 4.12 0 0 1-2.34-.05 2.86 2.86 0 0 1-.89-.48c-.24-.2-.42-.43-.54-.68a1.78 1.78 0 0 1-.18-.78h1.36a1.01 1.01 0 0 0 .5.83c.13.09.29.15.46.19.17.03.35.05.52.05.44 0 .77-.07 1-.22.22-.15.33-.34.33-.57ZM141.85 59a1.39 1.39 0 0 1-.1-.28l-.06-.34a2.45 2.45 0 0 1-1.23.68 2.8 2.8 0 0 1-1.47-.08c-.28-.1-.5-.23-.7-.4a1.82 1.82 0 0 1-.6-1.36c0-.68.25-1.2.75-1.55.5-.36 1.23-.54 2.18-.54h1.03v-.42a1 1 0 0 0-.34-.8 1.4 1.4 0 0 0-.97-.3c-.18 0-.35.03-.49.08a1 1 0 0 0-.35.18.75.75 0 0 0-.21.27.82.82 0 0 0-.07.34h-1.4a1.74 1.74 0 0 1 .67-1.33c.23-.19.5-.33.82-.44a3.7 3.7 0 0 1 2.15-.02 2.04 2.04 0 0 1 1.39 1.08c.13.27.2.59.2.95v2.83c0 .27.01.53.05.76.05.23.1.42.19.59v.1h-1.44Zm-1.69-1.01a1.9 1.9 0 0 0 .93-.24 1.46 1.46 0 0 0 .56-.54V56h-.9c-.57 0-.99.1-1.26.28a.9.9 0 0 0-.4.79c0 .13.01.25.06.36.04.11.1.2.2.29.08.08.2.14.33.19.13.04.3.07.48.07Zm8.99-.7c0-.11-.03-.2-.07-.3a.6.6 0 0 0-.23-.23 1.82 1.82 0 0 0-.46-.2c-.2-.07-.44-.13-.74-.2a7.63 7.63 0 0 1-1.02-.27c-.3-.11-.56-.24-.78-.4a1.71 1.71 0 0 1-.5-.52 1.55 1.55 0 0 1 0-1.44c.13-.23.3-.44.53-.61.22-.18.5-.32.81-.42a3.77 3.77 0 0 1 2.22 0c.34.1.62.25.85.43a1.83 1.83 0 0 1 .72 1.43h-1.4a.88.88 0 0 0-.33-.67 1.2 1.2 0 0 0-.41-.2 1.73 1.73 0 0 0-.56-.09c-.21 0-.4.03-.55.07-.15.05-.28.1-.38.18a.7.7 0 0 0-.23.25.74.74 0 0 0-.02.6c.04.08.11.16.21.23.1.07.25.13.42.2.18.05.42.1.7.15a8 8 0 0 1 1.07.26c.32.1.6.24.82.39a1.43 1.43 0 0 1 .7 1.28c0 .28-.06.54-.2.77-.12.23-.3.44-.54.61-.24.17-.53.3-.86.4a4.12 4.12 0 0 1-2.34-.05 2.87 2.87 0 0 1-.89-.48c-.23-.2-.42-.43-.54-.68a1.78 1.78 0 0 1-.18-.78h1.36a1 1 0 0 0 .5.83c.13.09.3.15.46.19.18.03.35.05.52.05.44 0 .77-.07 1-.22.22-.15.34-.34.34-.57Zm15.83-1.4c0 .47-.06.9-.17 1.29-.1.4-.27.73-.48 1.02a2.2 2.2 0 0 1-1.83.92c-.36 0-.68-.06-.96-.18a2.03 2.03 0 0 1-.7-.5v3h-1.4v-8.78h1.28l.06.64a2.08 2.08 0 0 1 1.7-.76c.4 0 .76.08 1.07.24.3.15.57.37.78.66a3 3 0 0 1 .48 1.02c.11.4.17.83.17 1.31v.12Zm-1.4-.12c0-.28-.03-.55-.1-.8a2.05 2.05 0 0 0-.26-.66c-.12-.2-.28-.35-.46-.45a1.3 1.3 0 0 0-.67-.17c-.31 0-.57.07-.78.2-.2.13-.36.31-.48.53v2.84c.12.22.28.4.48.53.2.14.47.2.79.2a1.27 1.27 0 0 0 1.13-.62c.12-.19.2-.41.26-.67.06-.25.09-.52.09-.8v-.13Zm2.87.01c0-.48.06-.92.17-1.32.12-.4.29-.74.5-1.02a2.31 2.31 0 0 1 1.84-.9 2.03 2.03 0 0 1 1.62.7V50H172v9h-1.27l-.07-.64a2.03 2.03 0 0 1-1.7.76 2.22 2.22 0 0 1-1.82-.92 3.28 3.28 0 0 1-.5-1.01 4.5 4.5 0 0 1-.18-1.28v-.13Zm1.4.13c0 .28.03.55.08.8s.14.47.26.66c.12.18.27.33.46.44.18.1.4.16.66.16.32 0 .59-.07.79-.2.2-.15.36-.33.48-.57v-2.75a1.35 1.35 0 0 0-1.26-.76 1.3 1.3 0 0 0-1.13.62c-.11.19-.2.41-.26.66a3.6 3.6 0 0 0-.08.81v.13ZM90.13 76a1.53 1.53 0 0 0 .93-.32c.13-.1.22-.2.3-.34.07-.14.1-.28.1-.44h1.32c0 .3-.06.6-.2.87-.15.26-.34.5-.59.7a2.86 2.86 0 0 1-1.85.64c-.49 0-.92-.08-1.28-.25a2.66 2.66 0 0 1-1.48-1.7 4.1 4.1 0 0 1-.18-1.23v-.2c0-.44.06-.85.18-1.24.13-.39.31-.72.56-1.01.24-.3.55-.52.92-.69.36-.17.79-.26 1.27-.26.39 0 .74.06 1.07.18.32.12.6.28.84.5a2.24 2.24 0 0 1 .74 1.72h-1.32c0-.18-.03-.35-.1-.5a1.12 1.12 0 0 0-.27-.4 1.37 1.37 0 0 0-.97-.37 1.35 1.35 0 0 0-1.2.65c-.12.2-.2.41-.25.66a4 4 0 0 0-.07.75v.21c0 .26.02.51.07.76.05.24.13.46.25.66s.28.35.47.47c.2.12.44.17.74.17Zm5.83-4.47c.22-.31.49-.56.8-.73.32-.18.67-.27 1.06-.27.32 0 .63.05.9.15.28.1.51.25.7.46.2.2.36.46.46.79.11.32.17.7.17 1.15V77h-1.4v-3.92c0-.24-.03-.45-.1-.62a1.09 1.09 0 0 0-.25-.43 1 1 0 0 0-.4-.26 1.68 1.68 0 0 0-.55-.08 1.65 1.65 0 0 0-1.39.7V77h-1.4v-9h1.4v3.54Zm5.62 2.24c0-.48.06-.92.18-1.32s.28-.74.5-1.02a2.31 2.31 0 0 1 1.84-.9 2.03 2.03 0 0 1 1.62.7V68h1.4v9h-1.27l-.06-.64a2.03 2.03 0 0 1-1.7.76 2.22 2.22 0 0 1-1.83-.92 3.28 3.28 0 0 1-.5-1.01 4.5 4.5 0 0 1-.18-1.28v-.13Zm1.4.13c0 .28.03.55.09.8.05.25.14.47.25.66.13.18.28.33.46.44.19.1.41.16.67.16.32 0 .58-.07.78-.2.2-.15.37-.33.5-.57v-2.75a1.35 1.35 0 0 0-1.26-.76 1.3 1.3 0 0 0-1.14.62c-.12.19-.2.41-.26.66a3.6 3.6 0 0 0-.09.81v.13Zm11.57-.01c0 .47-.05.9-.16 1.3-.1.39-.27.72-.48 1-.2.3-.47.52-.78.68-.3.16-.66.24-1.06.24a2.06 2.06 0 0 1-1.73-.8l-.07.68H109v-9h1.4v3.26a2.08 2.08 0 0 1 1.66-.72c.4 0 .76.08 1.07.24.3.16.57.38.78.67a3 3 0 0 1 .48 1.02c.1.4.16.83.16 1.3v.13Zm-1.4-.12c0-.28-.03-.55-.08-.8a2.03 2.03 0 0 0-.24-.67 1.2 1.2 0 0 0-.44-.45 1.32 1.32 0 0 0-.7-.17c-.33 0-.6.08-.8.23a1.5 1.5 0 0 0-.5.6v2.62a1.37 1.37 0 0 0 1.31.84 1.21 1.21 0 0 0 1.13-.61c.11-.19.2-.4.24-.66.06-.25.08-.52.08-.81v-.12Zm-76.43 36c0-.48.06-.92.18-1.31.11-.4.28-.75.5-1.03a2.32 2.32 0 0 1 1.84-.9 2.03 2.03 0 0 1 1.62.7V104h1.4v9H41l-.07-.64a2.03 2.03 0 0 1-1.7.76 2.22 2.22 0 0 1-1.82-.92 3.28 3.28 0 0 1-.5-1.01 4.4 4.4 0 0 1-.18-1.28v-.13Zm1.4.13c0 .28.03.55.08.8.06.25.14.47.26.66.12.18.27.33.46.44.19.1.4.16.67.16.32 0 .58-.07.78-.2.2-.15.37-.33.49-.57v-2.75a1.35 1.35 0 0 0-1.26-.76c-.26 0-.49.06-.68.16-.18.12-.33.27-.45.46s-.2.41-.27.66c-.05.26-.08.53-.08.81v.13Zm7.59 3.09v-5.3H44v-1.04h1.7v-.4c0-.4.06-.76.18-1.08a2.1 2.1 0 0 1 1.38-1.27c.33-.12.7-.17 1.1-.17.27 0 .53.02.77.06l.77.14-.12 1.12a4.65 4.65 0 0 0-1.22-.17c-.5 0-.87.12-1.1.36-.24.24-.35.58-.35 1.02v.39h2.35v1.04h-2.35v5.3H45.7Zm18.27-4.37h-5.4v-1.17h5.4v1.17Zm0 2.48h-5.4v-1.16h5.4v1.16Zm14.51-1.22c0 .47-.05.9-.16 1.29-.11.4-.27.73-.48 1.02a2.3 2.3 0 0 1-.78.68c-.3.16-.66.24-1.06.24-.36 0-.67-.06-.95-.18a2.03 2.03 0 0 1-.71-.5v3h-1.4v-8.78h1.29l.06.64a2.08 2.08 0 0 1 1.7-.76 2.27 2.27 0 0 1 1.85.9c.2.28.37.62.48 1.02.1.4.16.83.16 1.31v.13Zm-1.4-.12c0-.28-.03-.55-.09-.8a2.06 2.06 0 0 0-.27-.66c-.12-.2-.27-.34-.46-.45a1.3 1.3 0 0 0-.67-.17c-.3 0-.57.07-.77.2-.2.13-.36.31-.48.53v2.84c.12.22.28.4.47.53.2.14.47.2.8.2a1.27 1.27 0 0 0 1.12-.62 3.44 3.44 0 0 0 .36-1.47v-.13Zm2.87.01c0-.48.06-.92.18-1.31.12-.4.28-.75.5-1.03a2.32 2.32 0 0 1 1.84-.9 2.03 2.03 0 0 1 1.62.7V104h1.4v9h-1.27l-.07-.64a2.03 2.03 0 0 1-1.69.76 2.22 2.22 0 0 1-1.83-.92 3.28 3.28 0 0 1-.5-1.01 4.4 4.4 0 0 1-.18-1.28v-.13Zm1.4.13c0 .28.03.55.09.8.05.25.14.47.25.66.12.18.28.33.46.44.19.1.41.16.67.16.32 0 .58-.07.78-.2.2-.15.37-.33.49-.57v-2.75a1.35 1.35 0 0 0-1.26-.76c-.26 0-.49.06-.67.16-.19.12-.34.27-.46.46s-.2.41-.26.66a3.6 3.6 0 0 0-.09.81v.13Zm7.75 2.25c0-.13.02-.26.06-.38a.9.9 0 0 1 .52-.52c.13-.06.27-.08.44-.08.16 0 .3.02.43.07a.9.9 0 0 1 .52.53 1.06 1.06 0 0 1 0 .76.87.87 0 0 1-.52.5 1.2 1.2 0 0 1-.87 0 .88.88 0 0 1-.58-.88Zm9.8-5.62a4.82 4.82 0 0 1 1.17.16l-.2 1.38a5.7 5.7 0 0 0-1.27-.15c-.47 0-.84.1-1.13.3-.29.19-.5.46-.64.8V113h-1.4v-6.34h1.32l.06.99c.26-.34.56-.61.91-.8.36-.2.75-.3 1.19-.3Zm5.81 6.58c-.46 0-.9-.08-1.28-.24a2.9 2.9 0 0 1-1.63-1.61 3.18 3.18 0 0 1-.23-1.21v-.24a3.28 3.28 0 0 1 .9-2.39 2.85 2.85 0 0 1 2.08-.89c.46 0 .87.08 1.22.24a2.63 2.63 0 0 1 1.42 1.64c.12.38.18.8.18 1.26v.59h-4.4a2.1 2.1 0 0 0 .57 1.24c.16.15.34.27.55.36a2.25 2.25 0 0 0 1.68-.08c.3-.14.55-.34.74-.58l.76.71a2.37 2.37 0 0 1-.96.83 3.44 3.44 0 0 1-1.6.37Zm-.16-5.45c-.2 0-.38.04-.55.1a1.7 1.7 0 0 0-.79.82c-.1.18-.16.4-.2.65H106v-.1a1.94 1.94 0 0 0-.11-.55 1.27 1.27 0 0 0-.7-.8 1.46 1.46 0 0 0-.63-.12Zm8.46 5.33a1.4 1.4 0 0 1-.1-.28l-.06-.33a2.43 2.43 0 0 1-1.79.73c-.34 0-.64-.05-.91-.14-.27-.1-.5-.23-.7-.4a1.83 1.83 0 0 1-.6-1.36c0-.67.25-1.2.75-1.55.5-.36 1.24-.54 2.18-.54h1.03v-.42a1 1 0 0 0-.34-.8c-.23-.2-.55-.3-.96-.3-.2 0-.36.03-.5.08a1 1 0 0 0-.35.18.75.75 0 0 0-.2.27.82.82 0 0 0-.08.34H109c0-.24.06-.48.17-.71.12-.24.29-.44.51-.62.22-.19.5-.33.81-.44a3.7 3.7 0 0 1 2.15-.02c.32.08.6.22.84.4.23.18.42.41.55.68.13.27.2.59.2.95v2.83c0 .27.02.53.06.76.04.22.1.42.18.59v.1h-1.44Zm-1.69-1.01a1.9 1.9 0 0 0 .94-.24 1.45 1.45 0 0 0 .55-.54V110h-.9c-.56 0-.99.1-1.26.28a.9.9 0 0 0-.4.79c0 .13.02.25.06.36.04.11.1.2.2.29.08.08.2.14.33.19.13.04.3.07.48.07Zm4.67-2.2c0-.49.06-.93.17-1.33.12-.4.29-.73.5-1.02a2.31 2.31 0 0 1 1.84-.9 2.03 2.03 0 0 1 1.62.7V104h1.41v9h-1.27l-.07-.64a2.03 2.03 0 0 1-1.7.76 2.22 2.22 0 0 1-1.82-.92 3.27 3.27 0 0 1-.5-1.01 4.5 4.5 0 0 1-.18-1.28v-.13Zm1.4.12c0 .28.03.55.08.8s.14.47.26.66c.12.18.27.33.45.44.2.1.42.16.67.16.32 0 .58-.07.79-.2.2-.15.36-.33.48-.57v-2.75a1.47 1.47 0 0 0-.49-.55c-.2-.14-.46-.2-.77-.2a1.24 1.24 0 0 0-1.13.61c-.11.19-.2.41-.26.66-.05.26-.08.53-.08.81v.13Zm11.34 4.2h-5.38V113h5.38v1.1Zm7.4-4.22c0 .47-.05.9-.16 1.29-.1.4-.26.73-.48 1.02a2.2 2.2 0 0 1-1.83.92c-.36 0-.68-.06-.95-.18a2.03 2.03 0 0 1-.71-.5v3h-1.4v-8.78h1.28l.06.64a2.07 2.07 0 0 1 1.7-.76c.4 0 .76.08 1.07.24.31.15.57.37.78.66.22.28.38.62.48 1.02.11.4.17.83.17 1.31v.13Zm-1.4-.12c0-.28-.02-.55-.08-.8a2.05 2.05 0 0 0-.27-.66c-.12-.2-.27-.34-.46-.45a1.3 1.3 0 0 0-.67-.17c-.31 0-.57.07-.77.2-.2.13-.37.31-.48.53v2.84c.11.22.27.4.47.53.2.14.47.2.8.2a1.27 1.27 0 0 0 1.12-.62c.12-.19.2-.41.26-.67.06-.25.09-.52.09-.8v-.13Zm7.11 3.23a1.4 1.4 0 0 1-.1-.28l-.06-.33a2.5 2.5 0 0 1-.75.51 2.47 2.47 0 0 1-1.04.22 2.4 2.4 0 0 1-1.62-.54 1.83 1.83 0 0 1-.6-1.36c0-.67.26-1.2.76-1.55.5-.36 1.23-.54 2.18-.54h1.03v-.42a1 1 0 0 0-.34-.8c-.23-.2-.55-.3-.97-.3-.18 0-.35.03-.49.08a1 1 0 0 0-.35.18.75.75 0 0 0-.21.27.82.82 0 0 0-.07.34h-1.4a1.74 1.74 0 0 1 .67-1.33c.23-.19.5-.33.82-.44a3.69 3.69 0 0 1 2.15-.02 2.04 2.04 0 0 1 1.39 1.08c.13.27.2.59.2.95v2.83c0 .27.01.53.05.76.05.22.1.42.19.59v.1h-1.44Zm-1.69-1.01a1.9 1.9 0 0 0 .93-.24 1.45 1.45 0 0 0 .56-.54V110h-.9c-.57 0-.99.1-1.26.28a.9.9 0 0 0-.4.79c0 .13.01.25.06.36.04.11.1.2.2.29.08.08.2.14.33.19.13.04.3.07.48.07Zm9.2-5.45a4.83 4.83 0 0 1 1.17.16l-.2 1.38a5.7 5.7 0 0 0-1.27-.15c-.47 0-.84.1-1.13.3-.29.19-.5.46-.64.8V113h-1.4v-6.34h1.32l.06.99c.26-.34.56-.61.91-.8.36-.2.75-.3 1.19-.3Zm2.68 3.24c0-.48.06-.92.17-1.32.11-.4.28-.74.5-1.02.21-.29.48-.5.79-.66a2.4 2.4 0 0 1 1.08-.24c.36 0 .68.07.96.2.27.12.5.3.71.54l.07-.62h1.26v8.78h-1.4v-2.97a2.06 2.06 0 0 1-1.62.65 2.3 2.3 0 0 1-1.85-.92 3.26 3.26 0 0 1-.5-1.02c-.11-.4-.17-.82-.17-1.28v-.12Zm1.4.12c0 .29.03.55.08.8.06.26.15.49.27.68.12.19.28.34.46.45.2.11.41.17.67.17.31 0 .57-.07.77-.2.2-.13.36-.3.49-.53v-2.9a1.45 1.45 0 0 0-.5-.5 1.4 1.4 0 0 0-.75-.2 1.27 1.27 0 0 0-1.13.63c-.12.19-.21.41-.27.67-.06.25-.1.52-.1.8v.13Zm10.05 2.23c-.21.31-.47.56-.78.73-.3.18-.65.26-1.03.26-.33 0-.63-.05-.9-.15-.27-.1-.5-.26-.7-.48a2.4 2.4 0 0 1-.45-.84 4.5 4.5 0 0 1-.16-1.24v-3.75h1.4v3.76c0 .3.03.56.07.76.05.2.12.35.21.47.1.12.21.2.35.25.14.05.31.07.5.07.38 0 .68-.07.91-.21.24-.15.4-.35.53-.6v-4.5h1.4V113h-1.26l-.09-.87Zm6.1.99c-.47 0-.9-.08-1.28-.24a2.9 2.9 0 0 1-1.64-1.61 3.2 3.2 0 0 1-.23-1.21v-.24a3.28 3.28 0 0 1 .9-2.39 2.85 2.85 0 0 1 2.08-.89c.47 0 .87.08 1.22.24a2.63 2.63 0 0 1 1.42 1.64c.12.38.18.8.18 1.26v.59h-4.4a2.08 2.08 0 0 0 .57 1.24c.16.15.35.27.56.36a2.25 2.25 0 0 0 1.68-.08 2 2 0 0 0 .73-.58l.76.71a2.41 2.41 0 0 1-.95.83 3.45 3.45 0 0 1-1.6.37Zm-.17-5.45c-.2 0-.38.04-.55.1a1.7 1.7 0 0 0-.45.32c-.13.13-.24.3-.34.5-.09.18-.15.4-.2.65h2.98v-.1a1.87 1.87 0 0 0-.11-.55 1.38 1.38 0 0 0-.27-.47 1.26 1.26 0 0 0-.44-.32 1.46 1.46 0 0 0-.62-.13Zm7.23-2.55v1.54h2.4v1.04h-2.4v3.04c0 .24.03.44.08.6.06.15.14.28.24.37.1.1.22.16.36.2a2 2 0 0 0 .45.05 4.05 4.05 0 0 0 .75-.06 10.23 10.23 0 0 0 .6-.13l.17.97c-.1.06-.23.12-.37.17l-.47.11a5.28 5.28 0 0 1-1.06.1c-.31 0-.6-.04-.87-.13a1.82 1.82 0 0 1-.68-.4 2 2 0 0 1-.44-.72c-.1-.3-.16-.64-.16-1.05v-3.12h-1.55v-1.04h1.55v-1.53h1.4Zm5.53 4.41a8.94 8.94 0 0 1 .5-2.95 6.85 6.85 0 0 1 1.13-2.05 4.85 4.85 0 0 1 1.29-1.1l.28.83a4.93 4.93 0 0 0-1.29 1.78 8.6 8.6 0 0 0-.62 3.48v.12a8.36 8.36 0 0 0 .62 3.47 5.04 5.04 0 0 0 1.29 1.82l-.28.78a3 3 0 0 1-.63-.42 6.96 6.96 0 0 1-2.15-4.08 8.93 8.93 0 0 1-.14-1.59v-.09Zm-83.44 36.1a8.76 8.76 0 0 1-.5 2.93 7.23 7.23 0 0 1-1.16 2.05 4.7 4.7 0 0 1-1.3 1.1l-.27-.78c.22-.17.44-.4.67-.7a5 5 0 0 0 .61-1.1 8.6 8.6 0 0 0 .63-3.49v-.12a9.36 9.36 0 0 0-.65-3.5 5.18 5.18 0 0 0-1.26-1.8l.27-.78a4.75 4.75 0 0 1 1.3 1.1 6.33 6.33 0 0 1 1.16 2.06 8.37 8.37 0 0 1 .5 2.93v.1Zm-3.04 35.9a8.85 8.85 0 0 1 .49-2.95 6.94 6.94 0 0 1 1.13-2.05 4.9 4.9 0 0 1 1.3-1.1l.27.83a4.93 4.93 0 0 0-1.29 1.78c-.18.43-.33.94-.45 1.52a10.2 10.2 0 0 0-.17 1.96v.12c0 .73.06 1.39.17 1.97.12.57.27 1.07.46 1.5a5.04 5.04 0 0 0 1.28 1.82l-.28.78a3.82 3.82 0 0 1-1.29-1.09 7 7 0 0 1-1.49-3.4 8.84 8.84 0 0 1-.13-1.6v-.09Zm1.95 57.28a3.1 3.1 0 0 1-.31 1.28 3.33 3.33 0 0 1-.82 1.1l-.79-.4a3.76 3.76 0 0 0 .52-1.94v-1.22h1.4v1.18Zm-56.56 14.81a8.77 8.77 0 0 1-.5 2.94 7.23 7.23 0 0 1-1.16 2.05 4.7 4.7 0 0 1-1.3 1.1l-.28-.78a4.73 4.73 0 0 0 1.28-1.8c.19-.44.34-.94.46-1.52.11-.58.17-1.24.17-1.97v-.12a9.36 9.36 0 0 0-.65-3.5 5.18 5.18 0 0 0-1.26-1.8l.28-.78a4.75 4.75 0 0 1 1.3 1.1 6.32 6.32 0 0 1 1.16 2.06 8.4 8.4 0 0 1 .5 2.93v.1Z"/><path fill="#97C7FF" d="m190.25 104.63-.15 2.34h-.92V104h1.07v.63Zm2.29 0-.15 2.34h-.92V104h1.07v.63Zm4.92 0-.15 2.34h-.93V104h1.08v.63Zm2.29 0-.15 2.34h-.93V104h1.08v.63Zm4.91 0-.14 2.34h-.93V104h1.07v.63Zm2.3 0-.15 2.34h-.93V104h1.07v.63Zm-129.9 24.65c0-.1-.02-.2-.06-.28a.6.6 0 0 0-.23-.24 1.8 1.8 0 0 0-.46-.2c-.2-.07-.44-.13-.74-.2a7.67 7.67 0 0 1-1.02-.27c-.3-.11-.56-.24-.78-.4a1.72 1.72 0 0 1-.5-.52 1.56 1.56 0 0 1 0-1.44c.13-.23.3-.44.52-.61.23-.18.5-.32.83-.42a3.75 3.75 0 0 1 2.21 0c.34.1.62.25.85.44a1.82 1.82 0 0 1 .71 1.42H77a.89.89 0 0 0-.33-.67 1.2 1.2 0 0 0-.4-.2 1.71 1.71 0 0 0-.56-.09c-.21 0-.4.03-.55.07-.15.05-.28.1-.38.18a.7.7 0 0 0-.23.25.75.75 0 0 0-.02.6c.04.08.11.16.21.23.1.07.24.13.42.2.18.05.42.1.7.15a8 8 0 0 1 1.07.26c.32.1.6.24.82.39.22.15.4.33.52.54.12.21.18.46.18.74 0 .28-.06.54-.2.77-.12.24-.3.44-.54.61-.24.17-.53.3-.86.4a4.1 4.1 0 0 1-2.34-.05 2.86 2.86 0 0 1-.89-.48c-.24-.2-.42-.43-.54-.69a1.78 1.78 0 0 1-.18-.77h1.36a1 1 0 0 0 .5.83c.13.09.3.15.46.19.17.03.35.05.52.05.44 0 .77-.07 1-.22.22-.15.33-.34.33-.57Zm4.54-3.18h.84c.24 0 .46-.03.64-.1a1.1 1.1 0 0 0 .73-.68c.06-.17.1-.35.1-.54 0-.42-.12-.73-.34-.96-.21-.22-.54-.34-.97-.34-.2 0-.37.03-.54.09a1.12 1.12 0 0 0-.8 1.13h-1.4a2.18 2.18 0 0 1 .77-1.67c.24-.22.53-.38.86-.5a3.67 3.67 0 0 1 2.2-.02c.33.1.62.25.86.46.23.2.42.45.55.76a2.57 2.57 0 0 1 .13 1.56 2.17 2.17 0 0 1-1.18 1.33c.25.1.47.2.64.35a1.88 1.88 0 0 1 .67 1.03 2.65 2.65 0 0 1-.15 1.68c-.15.3-.35.57-.6.79a2.7 2.7 0 0 1-.9.48 3.74 3.74 0 0 1-2.2.02c-.33-.1-.63-.26-.88-.46a2.16 2.16 0 0 1-.84-1.79h1.4c0 .19.03.36.1.52a1.18 1.18 0 0 0 .73.66c.17.07.36.1.58.1.44 0 .79-.12 1.04-.35.26-.24.4-.59.4-1.03 0-.25-.05-.46-.12-.64a1.08 1.08 0 0 0-.32-.44 1.3 1.3 0 0 0-.5-.26c-.2-.05-.42-.08-.66-.08h-.84v-1.1Zm7.68 4.06c0-.13.02-.26.07-.38a.9.9 0 0 1 .52-.52.97.97 0 0 1 .43-.08c.16 0 .3.02.43.07a.89.89 0 0 1 .53.53 1.06 1.06 0 0 1 0 .76.87.87 0 0 1-.52.5 1.23 1.23 0 0 1-.88 0 .87.87 0 0 1-.58-.88Zm0-4.98c0-.14.02-.27.07-.4a.87.87 0 0 1 .2-.3c.08-.1.19-.16.31-.21a1.23 1.23 0 0 1 .87 0c.13.05.24.12.33.2a1.06 1.06 0 0 1 .2 1.08.8.8 0 0 1-.2.3.94.94 0 0 1-.33.21c-.12.05-.27.07-.43.07a1.3 1.3 0 0 1-.44-.07.95.95 0 0 1-.51-.5 1.1 1.1 0 0 1-.07-.38Zm7 6.55h-1.27l3.38-9.26h1.27l-3.37 9.26Zm7.22 0h-1.28l3.37-9.26h1.28l-3.37 9.26Zm6.87-6.2c.22-.3.48-.55.8-.72.31-.18.66-.27 1.05-.27.33 0 .63.05.9.15.28.1.52.25.71.46.2.2.35.46.46.79.1.32.16.7.16 1.15V131h-1.4v-3.92c0-.24-.03-.45-.1-.62a1.1 1.1 0 0 0-.25-.43 1 1 0 0 0-.4-.26 1.7 1.7 0 0 0-.55-.08 1.65 1.65 0 0 0-1.38.7V131h-1.4v-9h1.4v3.54Zm5.55 2.24c0-.46.06-.88.2-1.28.13-.39.33-.73.58-1.02.25-.29.56-.52.92-.68.37-.17.78-.25 1.24-.25a2.9 2.9 0 0 1 2.17.93c.25.29.44.63.58 1.02.13.4.2.82.2 1.28v.13a4 4 0 0 1-.2 1.28 2.72 2.72 0 0 1-2.74 1.94 2.73 2.73 0 0 1-2.75-1.94 4 4 0 0 1-.2-1.29v-.12Zm1.4.13c0 .28.03.56.09.8.06.26.15.49.28.68.13.2.29.35.48.46.2.1.43.16.7.16.26 0 .49-.05.68-.16.2-.11.36-.27.48-.46a3.07 3.07 0 0 0 .38-1.49v-.12c0-.28-.03-.55-.1-.8a1.96 1.96 0 0 0-.28-.67 1.33 1.33 0 0 0-1.17-.63 1.35 1.35 0 0 0-1.17.63c-.13.2-.22.42-.28.67-.06.25-.1.52-.1.8v.13Zm10.13 2.23c-.22.31-.48.56-.79.74-.3.17-.64.25-1.02.25-.33 0-.63-.05-.9-.15-.27-.1-.5-.26-.7-.48-.2-.22-.34-.5-.45-.84a4.5 4.5 0 0 1-.16-1.24v-3.75h1.4v3.76c0 .3.02.56.06.76.05.2.12.35.21.47.1.12.22.2.36.25.14.05.3.07.5.07.38 0 .68-.07.9-.21.24-.15.41-.35.53-.6v-4.5h1.4V131h-1.26l-.08-.87Zm7.27-.85c0-.1-.02-.2-.06-.28a.6.6 0 0 0-.24-.24 1.82 1.82 0 0 0-.46-.2 6.5 6.5 0 0 0-.73-.2 7.63 7.63 0 0 1-1.02-.27c-.3-.11-.56-.24-.78-.4a1.73 1.73 0 0 1-.5-.52 1.51 1.51 0 0 1 .01-1.44c.12-.23.29-.44.51-.61.23-.18.5-.32.82-.42a3.75 3.75 0 0 1 2.22 0c.33.1.62.25.85.44a1.82 1.82 0 0 1 .71 1.42h-1.4a.8.8 0 0 0-.08-.35.9.9 0 0 0-.25-.31 1.2 1.2 0 0 0-.4-.21 1.71 1.71 0 0 0-.56-.09c-.22 0-.4.03-.56.07-.15.05-.28.1-.38.18a.7.7 0 0 0-.22.25.67.67 0 0 0-.02.6c.04.08.1.16.2.23.11.07.25.13.43.2.18.05.41.1.7.15.4.07.75.16 1.07.26.32.1.6.24.81.39.23.15.4.33.53.54.12.21.18.46.18.74a1.68 1.68 0 0 1-.75 1.38c-.24.17-.52.3-.86.4a4.1 4.1 0 0 1-2.34-.05 2.87 2.87 0 0 1-.88-.48c-.24-.2-.42-.43-.55-.69a1.78 1.78 0 0 1-.18-.77h1.36a1.01 1.01 0 0 0 .5.83c.14.09.3.15.47.19.17.03.34.05.52.05.43 0 .76-.07 1-.22.22-.15.33-.34.33-.57Zm6.03 1.84c-.47 0-.9-.08-1.28-.24a2.9 2.9 0 0 1-1.63-1.61 3.18 3.18 0 0 1-.24-1.21v-.24a3.28 3.28 0 0 1 .9-2.39 2.85 2.85 0 0 1 2.09-.89c.46 0 .86.08 1.21.24a2.63 2.63 0 0 1 1.42 1.64c.12.38.18.8.18 1.26v.59h-4.39a2.01 2.01 0 0 0 .56 1.24c.16.15.35.27.56.36a2.25 2.25 0 0 0 1.68-.08c.3-.14.55-.34.73-.58l.76.71a2.37 2.37 0 0 1-.95.83 3.42 3.42 0 0 1-1.6.37Zm-.17-5.45c-.2 0-.38.04-.55.1a1.7 1.7 0 0 0-.45.32c-.13.13-.24.3-.34.5-.09.18-.15.4-.19.65h2.97v-.1a1.9 1.9 0 0 0-.11-.55 1.4 1.4 0 0 0-.26-.47 1.26 1.26 0 0 0-.45-.32 1.46 1.46 0 0 0-.62-.13Zm9.77 6.43h-5.38V131h5.38v1.1Zm7.41-4.2c0 .45-.06.88-.17 1.28a2.52 2.52 0 0 1-1.25 1.7c-.3.16-.66.24-1.06.24-.36 0-.68-.06-.95-.18a2.03 2.03 0 0 1-.71-.5v3h-1.4v-8.78h1.29l.05.64a2.08 2.08 0 0 1 1.7-.76c.4 0 .76.08 1.07.24.31.15.57.37.78.66.22.28.38.62.48 1.02.12.4.17.83.17 1.31v.13Zm-1.4-.13c0-.28-.03-.55-.09-.8a2.05 2.05 0 0 0-.27-.66c-.12-.2-.27-.34-.46-.45a1.3 1.3 0 0 0-.67-.17c-.31 0-.57.07-.77.2-.2.13-.37.31-.48.53v2.84c.11.22.27.4.47.53.2.14.47.2.8.2a1.27 1.27 0 0 0 1.12-.62c.12-.19.2-.41.26-.67.06-.25.09-.52.09-.8v-.13Zm7.41-3.23a4.8 4.8 0 0 1 1.17.16l-.2 1.38a5.7 5.7 0 0 0-1.27-.15c-.47 0-.85.1-1.14.3-.28.19-.5.46-.63.8V131h-1.4v-6.34h1.3l.07.99c.26-.34.57-.61.92-.8.35-.2.75-.3 1.18-.3Zm3.16.12h3.38v5.18h1.88V131h-5.26v-1.16h1.97v-4.01h-1.97v-1.17Zm1.85-1.64c0-.22.07-.4.21-.54a.79.79 0 0 1 .6-.22c.25 0 .45.08.6.22.14.14.2.32.2.54 0 .22-.06.4-.2.54a.85.85 0 0 1-.6.22.8.8 0 0 1-.6-.22.75.75 0 0 1-.2-.54Zm7.82 6.98a1.52 1.52 0 0 0 .93-.3c.13-.1.23-.22.3-.35.07-.13.1-.28.1-.44h1.33c0 .3-.07.6-.21.87-.14.26-.34.5-.58.7a2.88 2.88 0 0 1-1.85.64 2.76 2.76 0 0 1-2.21-.93c-.24-.3-.43-.63-.55-1.02a4.1 4.1 0 0 1-.19-1.23v-.21c0-.43.06-.84.19-1.23a2.62 2.62 0 0 1 1.48-1.7c.36-.17.78-.26 1.27-.26.38 0 .73.06 1.06.18.33.12.6.28.84.5a2.25 2.25 0 0 1 .75 1.72h-1.33c0-.18-.02-.35-.09-.5a1.13 1.13 0 0 0-.28-.4 1.38 1.38 0 0 0-.96-.37 1.36 1.36 0 0 0-1.2.65c-.12.2-.2.41-.26.66a4 4 0 0 0-.07.75v.21c0 .26.03.51.07.76.06.24.14.46.26.66.11.2.27.35.47.47.19.11.44.17.73.17Zm7.4 1.12c-.48 0-.9-.08-1.3-.24a2.9 2.9 0 0 1-1.63-1.61 3.2 3.2 0 0 1-.23-1.21v-.24c0-.5.09-.96.25-1.36.16-.4.38-.75.65-1.03a2.86 2.86 0 0 1 2.09-.89c.46 0 .87.08 1.22.24.35.15.64.37.88.65.23.27.41.6.53.99.13.38.19.8.19 1.26v.59h-4.4c.03.25.09.47.18.69.1.2.23.39.38.55.16.15.35.27.56.36a2.25 2.25 0 0 0 1.68-.08c.3-.14.55-.34.73-.58l.77.71a2.41 2.41 0 0 1-.96.83 3.43 3.43 0 0 1-1.6.37Zm-.18-5.45c-.2 0-.38.04-.54.1-.17.08-.32.18-.45.32-.14.13-.25.3-.34.5-.1.18-.16.4-.2.65h2.97v-.1a1.87 1.87 0 0 0-.1-.55 1.37 1.37 0 0 0-.27-.47 1.26 1.26 0 0 0-.45-.32 1.46 1.46 0 0 0-.62-.13Zm8.56 3.61a.6.6 0 0 0-.3-.53 1.8 1.8 0 0 0-.46-.2c-.2-.06-.44-.12-.74-.18a7.7 7.7 0 0 1-1.02-.28c-.3-.11-.56-.24-.78-.4a1.71 1.71 0 0 1-.5-.52 1.55 1.55 0 0 1 0-1.44c.13-.23.3-.44.53-.61.22-.18.5-.32.82-.42a3.75 3.75 0 0 1 2.21 0c.34.1.62.25.85.44a1.82 1.82 0 0 1 .72 1.42h-1.4a.87.87 0 0 0-.33-.67 1.2 1.2 0 0 0-.41-.2 1.71 1.71 0 0 0-.56-.09c-.2 0-.4.03-.55.07-.15.05-.28.1-.38.18a.7.7 0 0 0-.23.25.75.75 0 0 0-.02.6.6.6 0 0 0 .22.23c.1.07.24.13.42.2.18.05.4.1.7.15.4.07.75.16 1.07.26.32.1.59.24.81.39.23.15.4.33.52.54.12.21.18.46.18.74 0 .28-.06.54-.19.77-.13.24-.31.44-.55.61-.24.17-.53.3-.86.4a4.1 4.1 0 0 1-2.34-.05 2.86 2.86 0 0 1-.88-.48c-.24-.2-.42-.43-.55-.69a1.78 1.78 0 0 1-.18-.77h1.36a1 1 0 0 0 .5.83c.14.09.3.15.47.19.17.03.34.05.52.05.43 0 .76-.07.99-.22.22-.15.34-.34.34-.57Zm8.42 2.82h-5.38V131h5.38v1.1Zm7.3-1.1h-5.73v-.97l2.77-3.03c.24-.26.43-.49.59-.69.16-.2.29-.39.38-.55a2 2 0 0 0 .2-.47 1.68 1.68 0 0 0-.03-.98 1.13 1.13 0 0 0-.26-.43 1.1 1.1 0 0 0-.4-.28c-.16-.07-.34-.1-.53-.1-.51 0-.89.14-1.13.42a1.7 1.7 0 0 0-.36 1.14h-1.4a2.6 2.6 0 0 1 1.7-2.5c.36-.14.76-.2 1.2-.2.43 0 .8.05 1.13.17.33.12.61.3.84.51.22.22.4.47.51.77a2.64 2.64 0 0 1-.3 2.5 8.2 8.2 0 0 1-.55.73l-.69.77-1.93 2.07h3.99V131Zm7.24-3.25a5 5 0 0 1-.19 1.46c-.12.42-.3.77-.54 1.06-.24.28-.53.5-.88.64-.34.14-.73.21-1.16.21-.42 0-.8-.07-1.15-.21a2.33 2.33 0 0 1-.88-.64 3.08 3.08 0 0 1-.56-1.06 5 5 0 0 1-.19-1.46v-2.03c0-.56.06-1.04.2-1.46.12-.42.3-.77.54-1.05.25-.29.54-.5.88-.65.34-.14.73-.21 1.15-.21.43 0 .82.07 1.16.21.35.15.64.36.88.65.24.28.42.63.55 1.05.13.42.2.9.2 1.45v2.04Zm-4.14-.53 2.73-2.03a2.23 2.23 0 0 0-.39-1.3c-.22-.27-.55-.41-.98-.41-.45 0-.8.16-1.02.48-.23.33-.34.83-.34 1.5v1.76Zm2.74-.93-2.73 2.03c.07 1.12.52 1.68 1.36 1.68.91 0 1.37-.67 1.37-2v-1.71Zm8.61 1.46a5 5 0 0 1-.2 1.46c-.12.42-.3.77-.54 1.06-.23.28-.53.5-.87.64-.34.14-.73.21-1.16.21-.42 0-.81-.07-1.15-.21a2.33 2.33 0 0 1-.88-.64 3.1 3.1 0 0 1-.56-1.06 5 5 0 0 1-.2-1.46v-2.03c0-.56.07-1.04.2-1.46.13-.42.31-.77.55-1.05.24-.29.53-.5.88-.65.34-.14.72-.21 1.15-.21.43 0 .82.07 1.16.21.34.15.63.36.87.65.25.28.43.63.56 1.05.13.42.2.9.2 1.45v2.04Zm-4.15-.53 2.74-2.03a2.23 2.23 0 0 0-.4-1.3c-.22-.27-.54-.41-.97-.41-.46 0-.8.16-1.03.48-.22.33-.34.83-.34 1.5v1.76Zm2.75-.93-2.73 2.03c.07 1.12.52 1.68 1.36 1.68.91 0 1.37-.67 1.37-2v-1.71Zm7.75 1.68h1.07v1.13h-1.07v1.9h-1.4v-1.9h-3.7l-.04-.85 3.7-5.78h1.44v5.5Zm-3.7 0h2.3v-3.63l-.16.27-2.14 3.36Zm8.04 2.2c0-.14.02-.27.06-.4a.9.9 0 0 1 .52-.52c.13-.05.28-.07.44-.07.16 0 .3.02.43.07a.89.89 0 0 1 .53.53 1.08 1.08 0 0 1 0 .76.87.87 0 0 1-.52.5 1.23 1.23 0 0 1-.88 0 .87.87 0 0 1-.52-.5 1.1 1.1 0 0 1-.06-.38Zm11-2.27c0 .45-.05.88-.16 1.28s-.27.73-.48 1.02a2.3 2.3 0 0 1-.78.68c-.3.16-.66.24-1.06.24a2.4 2.4 0 0 1-.95-.18c-.27-.12-.5-.28-.7-.5v3h-1.4v-8.78H240l.06.64a2.08 2.08 0 0 1 1.7-.76 2.24 2.24 0 0 1 1.85.9c.21.28.37.62.48 1.02.1.4.16.83.16 1.31v.13Zm-1.4-.13c0-.28-.03-.55-.08-.8a2.07 2.07 0 0 0-.27-.66 1.3 1.3 0 0 0-1.13-.62c-.32 0-.58.07-.78.2-.2.13-.36.31-.48.53v2.84c.12.22.28.4.48.53.2.14.46.2.79.2a1.27 1.27 0 0 0 1.12-.62c.12-.19.21-.41.27-.67.05-.25.08-.52.08-.8v-.13Zm7.1 3.23a1.46 1.46 0 0 1-.1-.28l-.06-.34a2.5 2.5 0 0 1-.74.52 2.52 2.52 0 0 1-1.05.22 2.9 2.9 0 0 1-.91-.14c-.27-.1-.5-.23-.7-.4a1.83 1.83 0 0 1-.6-1.36c0-.68.25-1.2.75-1.55a3.77 3.77 0 0 1 2.19-.54h1.02v-.42a1 1 0 0 0-.34-.8 1.4 1.4 0 0 0-.96-.3c-.19 0-.35.03-.5.08a1 1 0 0 0-.34.18.75.75 0 0 0-.22.27.82.82 0 0 0-.07.34h-1.4c0-.24.06-.48.17-.71.12-.24.3-.44.51-.62.23-.19.5-.33.82-.44a3.69 3.69 0 0 1 2.15-.02c.32.08.6.22.83.4.23.18.42.41.55.68.13.27.2.59.2.95v2.83c0 .27.02.53.06.76.04.22.1.42.18.59v.1h-1.43Zm-1.68-1.01a1.89 1.89 0 0 0 .93-.24 1.42 1.42 0 0 0 .55-.54V128h-.9c-.56 0-.98.1-1.26.28a.9.9 0 0 0-.4.79c0 .13.02.25.06.36.05.11.11.2.2.29.09.08.2.14.33.19.14.04.3.07.49.07Zm9.2-5.45a4.8 4.8 0 0 1 1.17.16l-.2 1.38a5.7 5.7 0 0 0-1.27-.15c-.47 0-.85.1-1.14.3-.28.19-.5.46-.63.8V131H254v-6.34h1.31l.06.99c.26-.34.57-.61.92-.8.35-.2.75-.3 1.18-.3Zm2.67 3.24c0-.48.06-.92.17-1.32.12-.4.28-.74.5-1.02a2.28 2.28 0 0 1 1.87-.9 2.2 2.2 0 0 1 1.68.74l.07-.62h1.25v8.78h-1.4v-2.97a2.05 2.05 0 0 1-1.61.65 2.3 2.3 0 0 1-1.86-.92 3.3 3.3 0 0 1-.5-1.02 5.2 5.2 0 0 1-.17-1.28v-.12Zm1.4.12c0 .29.03.56.09.8.06.26.14.49.27.68a1.3 1.3 0 0 0 1.13.62c.31 0 .57-.07.77-.2.2-.13.36-.3.48-.53v-2.9a1.45 1.45 0 0 0-.5-.5 1.3 1.3 0 0 0-.74-.2 1.27 1.27 0 0 0-1.14.63c-.12.19-.2.41-.27.67-.06.25-.08.52-.08.8v.13Zm10.06 2.23c-.22.31-.48.56-.79.74-.3.17-.64.25-1.02.25-.33 0-.63-.05-.9-.15-.27-.1-.5-.26-.7-.48-.2-.22-.34-.5-.45-.84a4.5 4.5 0 0 1-.16-1.24v-3.75h1.4v3.76c0 .3.02.56.06.76.05.2.12.35.22.47.09.12.2.2.35.25.14.05.3.07.5.07.38 0 .68-.07.91-.21.23-.15.4-.35.52-.6v-4.5h1.4V131h-1.26l-.08-.87Zm6.1.99c-.47 0-.9-.08-1.29-.24a2.92 2.92 0 0 1-1.64-1.61 3.2 3.2 0 0 1-.22-1.21v-.24a3.28 3.28 0 0 1 .9-2.39 2.84 2.84 0 0 1 2.08-.89c.46 0 .87.08 1.22.24a2.63 2.63 0 0 1 1.42 1.64c.12.38.18.8.18 1.26v.59h-4.4a2.1 2.1 0 0 0 .57 1.24c.16.15.34.27.55.36a2.25 2.25 0 0 0 1.68-.08c.3-.14.55-.34.74-.58l.76.71a2.38 2.38 0 0 1-.96.83 3.43 3.43 0 0 1-1.6.37Zm-.18-5.45c-.2 0-.37.04-.54.1a1.7 1.7 0 0 0-.79.82c-.1.18-.16.4-.2.65h2.97v-.1a1.94 1.94 0 0 0-.1-.55 1.27 1.27 0 0 0-.7-.8 1.46 1.46 0 0 0-.64-.12Zm7.23-2.55v1.54h2.4v1.04h-2.4v3.04c0 .24.03.44.09.6a.87.87 0 0 0 .6.57c.13.03.28.05.44.05a4.05 4.05 0 0 0 .76-.06 9.72 9.72 0 0 0 .6-.13l.16.97c-.1.06-.22.11-.37.17l-.46.11a5.24 5.24 0 0 1-1.06.1c-.32 0-.6-.04-.87-.13a1.82 1.82 0 0 1-.68-.4 2 2 0 0 1-.45-.72c-.1-.3-.16-.64-.16-1.05v-3.12h-1.54v-1.04h1.54v-1.53h1.4Zm-209.81 17.5-.15 2.34h-.93V140h1.08v.63Zm2.29 0-.15 2.34h-.93V140h1.08v.63Zm4.91 0-.14 2.34h-.93V140h1.07v.63Zm2.3 0-.15 2.34h-.93V140h1.07v.63Zm4.91 0-.15 2.34h-.92V140h1.07v.63Zm2.3 0-.16 2.34h-.92V140h1.07v.63Zm12.11 36-.14 2.34h-.93V176h1.07v.63Zm2.3 0-.15 2.34h-.93V176h1.08v.63Zm4.91 0-.15 2.34h-.92V176h1.07v.63Zm2.3 0-.16 2.34h-.92V176h1.07v.63Zm4.9 0-.14 2.34h-.92V176h1.07v.63Zm2.3 0-.15 2.34h-.92V176h1.07v.63ZM77.34 200.8c0-.2-.05-.38-.13-.53-.08-.16-.2-.3-.36-.41a2.3 2.3 0 0 0-.55-.3 6.38 6.38 0 0 0-.7-.25c-.33-.1-.66-.22-.99-.37a3.94 3.94 0 0 1-.87-.52 2.71 2.71 0 0 1-.62-.73 1.98 1.98 0 0 1-.24-.98c0-.36.08-.7.24-.98.16-.3.37-.54.64-.75.26-.2.57-.35.92-.46a3.67 3.67 0 0 1 2.25.02c.36.13.68.3.94.54a2.49 2.49 0 0 1 .88 1.87h-1.4a1.96 1.96 0 0 0-.15-.58 1.3 1.3 0 0 0-.78-.77c-.18-.06-.4-.1-.65-.1a2 2 0 0 0-.58.08 1.6 1.6 0 0 0-.47.24 1.11 1.11 0 0 0-.42.88c0 .2.05.38.16.53.1.14.23.27.4.38.16.1.35.2.56.29.21.07.43.15.66.21a5.7 5.7 0 0 1 1.88.95c.25.22.44.47.58.75.15.29.22.61.22.98a2.03 2.03 0 0 1-.88 1.73 3 3 0 0 1-.94.44 4.21 4.21 0 0 1-2.64-.15 2.84 2.84 0 0 1-1.19-.9 2.5 2.5 0 0 1-.48-1.47h1.4c.03.26.09.48.18.67a1.42 1.42 0 0 0 .92.77 2.47 2.47 0 0 0 1.29.02c.18-.05.34-.13.48-.22a1.07 1.07 0 0 0 .44-.87Zm7.77-1.63h-3.5v2.68h4.1V203H80.2v-8.53h5.48v1.16H81.6v2.4h3.51v1.14Zm3.75 2.68h4.07V203h-5.47v-8.53h1.4v7.38Zm10.67-2.68h-3.51v2.68h4.1V203h-5.51v-8.53h5.47v1.16h-4.06v2.4h3.5v1.14Zm7.97 1.21c-.04.41-.14.79-.3 1.13a2.67 2.67 0 0 1-1.53 1.42 3.34 3.34 0 0 1-2.53-.1c-.38-.2-.7-.48-.96-.83a3.6 3.6 0 0 1-.58-1.2c-.13-.46-.2-.96-.2-1.48v-1.17c0-.52.07-1 .2-1.47.13-.46.33-.87.59-1.2a2.81 2.81 0 0 1 2.32-1.13c.45 0 .85.06 1.2.2a2.6 2.6 0 0 1 1.5 1.44c.15.35.24.74.29 1.16h-1.41a2.7 2.7 0 0 0-.15-.68 1.6 1.6 0 0 0-.29-.53 1.22 1.22 0 0 0-.47-.34 1.73 1.73 0 0 0-.67-.11 1.4 1.4 0 0 0-1.32.8c-.13.24-.23.52-.29.84-.05.33-.08.66-.08 1.01v1.18c0 .37.03.71.08 1.04.06.32.16.6.28.84.13.24.3.44.52.58.21.14.48.2.8.2.5 0 .87-.13 1.13-.41.26-.28.4-.68.45-1.19h1.42Zm7.48-4.75h-2.62V203h-1.4v-7.37h-2.6v-1.16h6.62v1.16Zm12.46 7.37a1.33 1.33 0 0 1-.1-.28l-.07-.34a2.49 2.49 0 0 1-.74.52 2.47 2.47 0 0 1-1.05.22 2.9 2.9 0 0 1-.91-.14c-.27-.1-.5-.23-.7-.4a1.83 1.83 0 0 1-.6-1.36c0-.68.25-1.2.76-1.55a3.7 3.7 0 0 1 2.17-.54h1.03v-.42a1 1 0 0 0-.34-.8c-.23-.2-.55-.3-.96-.3-.19 0-.35.03-.5.08a1 1 0 0 0-.34.18.75.75 0 0 0-.22.27.82.82 0 0 0-.06.34h-1.4a1.63 1.63 0 0 1 .67-1.33c.23-.19.5-.33.82-.44a3.69 3.69 0 0 1 2.15-.02c.32.08.6.22.83.4.24.18.42.41.55.68.13.27.2.59.2.95v2.83c0 .27.02.53.06.76.04.22.1.42.18.59v.1h-1.43Zm-1.7-1.01a1.9 1.9 0 0 0 .94-.24 1.45 1.45 0 0 0 .55-.54V200h-.89c-.57 0-1 .1-1.27.28a.9.9 0 0 0-.4.79c0 .13.02.25.06.36.05.11.11.2.2.29.09.08.2.14.33.19.14.04.3.07.49.07Zm7.45-.76.1.47.11-.46 1.54-4.58h1.44L133.9 203h-1.2l-2.52-6.34h1.45l1.56 4.57Zm4.44-1.45c0-.48.05-.92.17-1.31.12-.4.3-.75.52-1.03a2.3 2.3 0 0 1 1.86-.9c.38 0 .7.07.98.2s.52.31.72.55l.06-.63h1.27v6.17c0 .43-.07.8-.21 1.13a2.32 2.32 0 0 1-1.5 1.35 3.52 3.52 0 0 1-3.02-.38 2 2 0 0 1-.5-.49l.66-.84c.24.28.5.49.77.6a2.12 2.12 0 0 0 1.49.09 1.26 1.26 0 0 0 .8-.77c.07-.2.1-.4.1-.66v-.42c-.2.22-.43.38-.7.5-.27.12-.58.18-.93.18a2.27 2.27 0 0 1-1.85-.92c-.23-.28-.4-.62-.52-1.01a4.5 4.5 0 0 1-.18-1.28v-.13Zm1.4.13c0 .28.03.55.09.8s.15.47.27.66c.12.18.27.33.46.44.2.1.42.16.68.16.32 0 .58-.07.79-.2.2-.14.36-.32.48-.55v-2.8a1.5 1.5 0 0 0-.49-.53 1.4 1.4 0 0 0-.77-.2c-.26 0-.48.06-.68.16a1.4 1.4 0 0 0-.47.46c-.12.19-.2.41-.27.66a3.6 3.6 0 0 0-.09.81v.13Zm7.12-.38a8.84 8.84 0 0 1 .49-2.95 6.93 6.93 0 0 1 1.13-2.05 4.9 4.9 0 0 1 1.3-1.1l.27.83a4.9 4.9 0 0 0-1.29 1.78 8.36 8.36 0 0 0-.62 3.48v.12c0 .73.06 1.39.17 1.97.12.57.27 1.07.46 1.5a5 5 0 0 0 1.28 1.82l-.28.78a3.82 3.82 0 0 1-1.29-1.09 7.17 7.17 0 0 1-1.5-3.4 8.84 8.84 0 0 1-.13-1.6v-.09Zm11.62.37c0 .45-.06.88-.17 1.28a2.52 2.52 0 0 1-1.25 1.7c-.3.16-.66.24-1.06.24-.36 0-.68-.06-.95-.18a2.03 2.03 0 0 1-.71-.5v3h-1.4v-8.78h1.29l.05.64a2.08 2.08 0 0 1 1.7-.76c.4 0 .76.08 1.07.24.31.15.57.37.78.66.22.28.38.62.48 1.02.12.4.17.83.17 1.31v.13Zm-1.4-.13c0-.28-.03-.55-.09-.8a2.05 2.05 0 0 0-.27-.66c-.12-.2-.27-.34-.46-.46a1.3 1.3 0 0 0-.67-.16c-.31 0-.57.07-.77.2-.2.13-.37.31-.48.53v2.84c.11.22.27.4.47.53.2.14.47.2.8.2a1.27 1.27 0 0 0 1.12-.62c.12-.19.2-.41.26-.67.06-.25.09-.52.09-.8v-.13Zm7.41-3.23a4.8 4.8 0 0 1 1.17.16l-.2 1.38a5.7 5.7 0 0 0-1.27-.15c-.47 0-.85.1-1.14.3-.28.19-.5.46-.63.8V203h-1.4v-6.34h1.3l.07.99c.26-.34.57-.61.92-.8.35-.2.75-.3 1.18-.3Zm3.16.12h3.38v5.18h1.88V203h-5.26v-1.16h1.97v-4.01h-1.97v-1.17Zm1.85-1.64c0-.22.07-.4.21-.54a.79.79 0 0 1 .6-.22c.25 0 .45.08.6.22.14.14.2.32.2.54 0 .22-.06.4-.2.54a.8.8 0 0 1-.6.22.8.8 0 0 1-.6-.22.75.75 0 0 1-.2-.54Zm7.82 6.98a1.52 1.52 0 0 0 .93-.3c.13-.1.23-.22.3-.35.07-.13.1-.28.1-.44h1.33c0 .3-.07.6-.21.87-.14.26-.34.5-.58.7a2.88 2.88 0 0 1-1.85.64 2.76 2.76 0 0 1-2.21-.93c-.24-.3-.43-.63-.55-1.02a4.1 4.1 0 0 1-.19-1.23v-.21c0-.43.06-.84.19-1.23a2.62 2.62 0 0 1 1.48-1.7c.36-.17.78-.26 1.27-.26.38 0 .73.06 1.06.18.33.12.6.28.84.5a2.25 2.25 0 0 1 .75 1.72h-1.33c0-.18-.02-.35-.09-.5a1.13 1.13 0 0 0-.28-.4 1.38 1.38 0 0 0-.96-.37 1.36 1.36 0 0 0-1.2.65c-.12.2-.2.41-.26.66a4 4 0 0 0-.07.75v.21c0 .26.03.51.07.76.06.24.14.46.26.66.11.2.27.35.47.47.19.11.44.17.73.17Zm7.4 1.12c-.48 0-.9-.08-1.3-.24a2.9 2.9 0 0 1-1.63-1.61 3.2 3.2 0 0 1-.23-1.21v-.24c0-.5.09-.96.25-1.36.16-.4.38-.75.65-1.03a2.86 2.86 0 0 1 2.09-.89c.46 0 .87.08 1.22.24.35.15.64.37.88.65.23.28.41.6.53.99.13.38.19.8.19 1.26v.59h-4.4c.03.25.09.47.18.69.1.2.23.39.38.55.16.15.35.27.56.36a2.25 2.25 0 0 0 1.68-.08c.3-.14.55-.34.73-.58l.77.71a2.41 2.41 0 0 1-.96.83 3.43 3.43 0 0 1-1.6.37Zm-.18-5.45c-.2 0-.38.04-.54.1-.17.08-.32.18-.45.32-.14.13-.25.3-.34.5-.1.18-.16.4-.2.65h2.97v-.1a1.87 1.87 0 0 0-.1-.55 1.37 1.37 0 0 0-.27-.47 1.26 1.26 0 0 0-.45-.32 1.46 1.46 0 0 0-.62-.13Zm8.6 1.96a8.75 8.75 0 0 1-.5 2.93 7.31 7.31 0 0 1-1.16 2.05 4.64 4.64 0 0 1-1.3 1.1l-.27-.78c.22-.17.44-.4.67-.7.22-.3.43-.66.61-1.1a8 8 0 0 0 .45-1.52 9.8 9.8 0 0 0 .18-1.97v-.12a9.36 9.36 0 0 0-.65-3.5 5.23 5.23 0 0 0-1.26-1.8l.28-.78a4.69 4.69 0 0 1 1.3 1.1 6.28 6.28 0 0 1 1.16 2.06 8.43 8.43 0 0 1 .5 2.93v.1Zm6.11 3.18a3.09 3.09 0 0 1-.31 1.28 3.27 3.27 0 0 1-.81 1.1l-.8-.4a3.76 3.76 0 0 0 .53-1.94v-1.22h1.4v1.18Zm12.15-6.15.03.67c.13-.25.3-.44.5-.58.22-.14.47-.2.77-.2.27 0 .49.05.66.16.18.1.32.27.4.5.13-.2.3-.37.49-.49.2-.12.43-.18.7-.18.22 0 .4.04.58.1.17.08.32.18.44.33.13.15.22.34.29.57.07.23.1.5.1.83V203h-1.3v-4.64c0-.26-.05-.43-.16-.52a.58.58 0 0 0-.41-.15.57.57 0 0 0-.38.12.63.63 0 0 0-.2.3V203h-1.28v-4.64c0-.25-.05-.42-.15-.52a.54.54 0 0 0-.4-.15c-.17 0-.3.04-.4.1a.67.67 0 0 0-.2.3V203h-1.3v-6.34h1.22Zm10.44 6.34a1.46 1.46 0 0 1-.1-.28l-.07-.34a2.5 2.5 0 0 1-.74.52 2.5 2.5 0 0 1-1.04.22c-.34 0-.65-.05-.92-.14a1.84 1.84 0 0 1-1.14-1 1.8 1.8 0 0 1-.16-.76c0-.68.25-1.2.76-1.55.5-.36 1.23-.54 2.18-.54h1.02v-.42a1 1 0 0 0-.34-.8c-.23-.2-.55-.3-.96-.3-.19 0-.35.03-.5.08a1 1 0 0 0-.34.18.76.76 0 0 0-.28.61h-1.4a1.74 1.74 0 0 1 .67-1.33c.23-.19.5-.33.82-.44a3.69 3.69 0 0 1 2.15-.02c.32.08.6.22.83.4.24.18.42.41.55.68.14.27.2.59.2.95v2.83c0 .27.02.53.06.76.04.22.1.42.18.59v.1h-1.43Zm-1.7-1.01a1.9 1.9 0 0 0 .94-.24 1.45 1.45 0 0 0 .55-.54V200h-.89c-.57 0-1 .1-1.26.28a.9.9 0 0 0-.4.79.85.85 0 0 0 .25.65c.09.08.2.14.33.19.14.04.3.07.49.07Zm7.63-3.19 1.51-2.14h1.56l-2.23 3.12 2.3 3.22h-1.55l-1.57-2.22-1.56 2.22h-1.57l2.31-3.22-2.24-3.12h1.55l1.5 2.15Zm5.57.73a8.84 8.84 0 0 1 .5-2.95 6.93 6.93 0 0 1 1.13-2.05 4.9 4.9 0 0 1 1.29-1.1l.28.83c-.23.18-.45.4-.68.7-.22.3-.43.66-.61 1.08-.19.44-.33.94-.45 1.52a9.6 9.6 0 0 0-.17 1.96v.12c0 .73.06 1.39.17 1.97.12.57.26 1.07.45 1.5a5.08 5.08 0 0 0 1.29 1.82l-.28.78a3.3 3.3 0 0 1-.64-.42 6.96 6.96 0 0 1-2.15-4.08 8.83 8.83 0 0 1-.13-1.59v-.09Zm11.62.37c0 .45-.05.88-.16 1.28s-.27.73-.48 1.02a2.3 2.3 0 0 1-.78.68c-.3.16-.66.24-1.06.24a2.4 2.4 0 0 1-.95-.18c-.27-.12-.5-.28-.7-.5v3h-1.4v-8.78H240l.06.64a2.08 2.08 0 0 1 1.7-.76 2.24 2.24 0 0 1 1.85.9c.21.28.37.62.48 1.02.1.4.16.83.16 1.31v.13Zm-1.4-.13c0-.28-.03-.55-.08-.8a2.07 2.07 0 0 0-.27-.66c-.13-.2-.28-.34-.47-.46a1.3 1.3 0 0 0-.66-.16c-.32 0-.58.07-.78.2-.2.13-.36.31-.48.53v2.84c.12.22.28.4.48.53.2.14.46.2.79.2a1.27 1.27 0 0 0 1.12-.62c.12-.19.21-.41.27-.67.05-.25.08-.52.08-.8v-.13Zm7.42-3.23a4.8 4.8 0 0 1 1.16.16l-.2 1.38a5.7 5.7 0 0 0-1.27-.15c-.47 0-.85.1-1.14.3-.28.19-.5.46-.63.8V203h-1.4v-6.34h1.31l.07.99c.26-.34.56-.61.91-.8.36-.2.75-.3 1.19-.3Zm3.15.12h3.39v5.18h1.88V203h-5.27v-1.16h1.97v-4.01h-1.97v-1.17Zm1.86-1.64c0-.22.07-.4.2-.54a.79.79 0 0 1 .6-.22c.26 0 .46.08.6.22.14.14.21.32.21.54 0 .22-.07.4-.21.54-.14.15-.34.22-.6.22a.8.8 0 0 1-.6-.22.75.75 0 0 1-.2-.54Zm7.82 6.98a1.52 1.52 0 0 0 .93-.3c.12-.1.22-.22.3-.35a.83.83 0 0 0 .1-.44h1.32c0 .3-.06.6-.2.87-.15.26-.34.5-.59.7a2.85 2.85 0 0 1-1.85.64c-.49 0-.92-.08-1.28-.25a2.66 2.66 0 0 1-1.48-1.7 4.1 4.1 0 0 1-.18-1.23v-.21c0-.43.06-.84.18-1.23.13-.39.31-.72.56-1.01.24-.3.55-.52.92-.69.36-.17.79-.26 1.27-.26.39 0 .74.06 1.06.18.33.12.61.28.85.5a2.25 2.25 0 0 1 .74 1.72h-1.32c0-.18-.03-.35-.1-.5a1.13 1.13 0 0 0-.27-.4 1.4 1.4 0 0 0-.97-.37 1.36 1.36 0 0 0-1.2.65 2 2 0 0 0-.25.66 4 4 0 0 0-.07.75v.21c0 .26.02.51.07.76.05.24.13.46.25.66s.27.35.47.47c.2.11.44.17.74.17Zm7.39 1.12c-.47 0-.9-.08-1.29-.24a2.92 2.92 0 0 1-1.63-1.61 3.2 3.2 0 0 1-.23-1.21v-.24a3.3 3.3 0 0 1 .89-2.39 2.85 2.85 0 0 1 2.1-.89c.45 0 .86.08 1.21.24.35.15.65.37.88.65.24.28.42.6.54.99.12.38.18.8.18 1.26v.59h-4.4a2.1 2.1 0 0 0 .57 1.24c.16.15.34.27.56.36a2.25 2.25 0 0 0 1.68-.08 2 2 0 0 0 .73-.58l.76.71a2.38 2.38 0 0 1-.95.83 3.43 3.43 0 0 1-1.6.37Zm-.17-5.45c-.2 0-.38.04-.55.1a1.7 1.7 0 0 0-.79.82c-.09.18-.15.4-.2.65h2.98v-.1a1.9 1.9 0 0 0-.11-.55 1.27 1.27 0 0 0-.7-.8 1.46 1.46 0 0 0-.63-.12Zm8.6 1.96a8.75 8.75 0 0 1-.5 2.93 7.22 7.22 0 0 1-1.16 2.05 4.74 4.74 0 0 1-1.3 1.1l-.28-.78c.22-.17.44-.4.67-.7.23-.3.43-.66.62-1.1a8.6 8.6 0 0 0 .62-3.49v-.12a9.36 9.36 0 0 0-.65-3.5 5.14 5.14 0 0 0-1.26-1.8l.28-.78a4.8 4.8 0 0 1 1.3 1.1 6.44 6.44 0 0 1 1.16 2.06 8.43 8.43 0 0 1 .5 2.93v.1Zm-200.9 17.74h-3.58V221h-1.42v-8.53h5.52v1.16h-4.1v2.58h3.58v1.16Zm4.95.3h-1.43V221h-1.4v-8.53h2.7c.43 0 .83.06 1.2.17.37.1.7.26.96.48.27.21.48.48.63.8.15.32.22.7.22 1.12a2.53 2.53 0 0 1-.43 1.43 2.82 2.82 0 0 1-1.13.87l1.8 3.59v.07h-1.5l-1.62-3.33Zm-1.43-1.13h1.3a2 2 0 0 0 .64-.1c.2-.07.37-.16.5-.29.15-.12.26-.27.34-.45a1.68 1.68 0 0 0 0-1.25 1.22 1.22 0 0 0-.31-.46c-.14-.12-.3-.22-.5-.28-.2-.06-.43-.1-.68-.1h-1.29v2.92Zm11.57.75c0 .5-.07.98-.2 1.45-.13.46-.32.87-.58 1.22-.25.35-.57.64-.96.85-.38.2-.83.3-1.35.3a2.7 2.7 0 0 1-2.28-1.15 3.96 3.96 0 0 1-.57-1.23 5.5 5.5 0 0 1-.19-1.44v-1.1a5.83 5.83 0 0 1 .34-1.88c.11-.29.25-.55.41-.79a2.74 2.74 0 0 1 2.29-1.17 2.75 2.75 0 0 1 2.31 1.17c.26.35.45.76.58 1.22.13.47.2.95.2 1.45v1.1Zm-1.42-1.1c0-.33-.03-.65-.08-.96-.06-.32-.15-.6-.28-.84-.13-.25-.3-.46-.52-.6a1.3 1.3 0 0 0-.8-.24c-.3 0-.57.07-.78.23-.21.15-.38.35-.5.6s-.2.54-.26.85a7.6 7.6 0 0 0-.08.95v1.1c0 .32.04.64.09.96.05.31.13.6.25.85.13.25.3.45.5.6.21.16.48.24.8.24.31 0 .58-.08.79-.23.22-.16.39-.36.52-.61.12-.25.21-.53.27-.85.05-.32.08-.64.08-.96v-1.1Zm4.5-3.72 1.06 3.68 1.18-3.68h1.74V221h-1.32v-2.93l.08-3.74-1.31 4.1h-.74l-1.2-3.96.1 3.6V221h-1.33v-8.53h1.74Zm14.27 5.26V221h-1.41v-8.53h2.85a3.44 3.44 0 0 1 2.12.72c.26.23.46.5.6.83.16.33.23.7.23 1.1 0 .4-.07.76-.22 1.08-.15.32-.35.6-.61.82-.26.23-.58.4-.94.52s-.75.19-1.18.19h-1.45Zm0-1.14h1.44c.24 0 .45-.03.64-.1a1.3 1.3 0 0 0 .78-.77 1.74 1.74 0 0 0 0-1.2 1.34 1.34 0 0 0-.78-.8c-.19-.07-.4-.11-.64-.12h-1.45v3Zm8.24 1.87.24.76 1.78-4.56h1.55l-3.2 7.3-.28.52c-.12.18-.26.36-.43.52-.16.16-.36.3-.59.4a2.21 2.21 0 0 1-1.2.13 3.07 3.07 0 0 1-.34-.07l.2-1.1h.1a22.27 22.27 0 0 0 .4.03.6.6 0 0 0 .37-.12 1.7 1.7 0 0 0 .49-.58l.11-.2.42-.79-2.7-6.04h1.55l1.53 3.8Zm7.5-5.34v1.54h2.4v1.04h-2.4v3.04c0 .24.03.44.08.6a.87.87 0 0 0 .6.57c.14.03.29.05.45.05a4.05 4.05 0 0 0 .76-.06 10.23 10.23 0 0 0 .6-.13l.16.97c-.1.06-.23.11-.37.17l-.46.11a5.26 5.26 0 0 1-1.07.1c-.31 0-.6-.04-.87-.13a1.82 1.82 0 0 1-.68-.4 2 2 0 0 1-.44-.72c-.1-.3-.16-.64-.16-1.05v-3.12h-1.55v-1.04h1.55v-1.53h1.4Zm5.8 2.42c.22-.31.48-.56.8-.73.31-.18.66-.27 1.05-.27.33 0 .63.05.9.15.28.1.52.25.71.46.2.2.35.46.46.79.1.32.16.7.16 1.15V221h-1.4v-3.92c0-.24-.03-.45-.09-.62a1.1 1.1 0 0 0-.26-.44 1 1 0 0 0-.4-.25 1.7 1.7 0 0 0-.55-.08 1.65 1.65 0 0 0-1.38.7V221h-1.4v-9h1.4v3.54Zm5.55 2.23c0-.46.06-.88.2-1.28.13-.39.33-.73.58-1.02.25-.29.56-.52.92-.68.37-.16.78-.25 1.24-.25.47 0 .88.09 1.24.25.37.16.68.39.93.68.25.29.44.63.58 1.02.13.4.2.82.2 1.28v.13a4 4 0 0 1-.2 1.28 2.72 2.72 0 0 1-2.74 1.94 2.73 2.73 0 0 1-2.75-1.94 4 4 0 0 1-.2-1.28v-.13Zm1.4.13c0 .28.03.56.09.8.06.26.15.49.28.68.13.2.29.35.49.46.19.1.42.16.7.16.25 0 .48-.05.67-.16.2-.11.36-.27.48-.46a3.05 3.05 0 0 0 .38-1.48v-.13c0-.28-.03-.55-.1-.8a1.96 1.96 0 0 0-.28-.67 1.33 1.33 0 0 0-1.17-.63 1.35 1.35 0 0 0-1.17.63c-.13.2-.22.41-.28.67a3.6 3.6 0 0 0-.1.8v.13Zm7.33-3.24.09.88a2.31 2.31 0 0 1 1.92-1c.32 0 .62.05.88.14.27.1.5.24.7.44.2.2.34.46.45.78.1.31.16.7.16 1.14V221h-1.4v-3.94c0-.26-.03-.48-.1-.65a.92.92 0 0 0-.66-.64 1.94 1.94 0 0 0-.54-.08c-.3 0-.58.07-.8.2a1.6 1.6 0 0 0-.56.56V221h-1.4v-6.34h1.26Zm7.07 2.87a8.84 8.84 0 0 1 .5-2.95 6.93 6.93 0 0 1 1.13-2.05 4.9 4.9 0 0 1 1.29-1.1l.28.83a4.9 4.9 0 0 0-1.29 1.78 8.36 8.36 0 0 0-.62 3.48v.12a8.36 8.36 0 0 0 .62 3.47 5 5 0 0 0 1.3 1.82l-.29.78a4.67 4.67 0 0 1-1.29-1.09 7.17 7.17 0 0 1-1.5-3.4 8.84 8.84 0 0 1-.13-1.6v-.09Zm5.89.25c0-.48.06-.92.18-1.31.11-.4.28-.75.5-1.03a2.31 2.31 0 0 1 1.84-.9c.35 0 .65.06.92.19a2 2 0 0 1 .7.5V212h1.4v9h-1.27l-.07-.65a2.03 2.03 0 0 1-1.7.77 2.22 2.22 0 0 1-1.82-.92 3.27 3.27 0 0 1-.5-1.01 4.5 4.5 0 0 1-.18-1.28v-.13Zm1.4.13c0 .28.03.55.08.8.06.25.14.47.26.66.12.18.27.33.46.44.19.1.4.16.66.16.33 0 .59-.07.8-.2.2-.15.36-.33.48-.57v-2.75a1.47 1.47 0 0 0-.5-.55c-.2-.14-.45-.2-.76-.2a1.21 1.21 0 0 0-1.13.61c-.12.19-.2.41-.27.66a3.8 3.8 0 0 0-.08.81v.13Zm7.59 3.09v-5.3h-1.7v-1.04h1.7v-.4c0-.4.06-.76.18-1.08a2.1 2.1 0 0 1 1.38-1.27c.33-.12.7-.17 1.1-.17.27 0 .53.02.77.06l.77.14-.12 1.12a4.66 4.66 0 0 0-1.22-.17c-.5 0-.88.12-1.11.36-.23.24-.34.58-.34 1.02v.39h2.35v1.04h-2.36v5.3h-1.4Zm9.79-3.38a8.75 8.75 0 0 1-.5 2.94 7.22 7.22 0 0 1-1.16 2.05 4.64 4.64 0 0 1-1.3 1.1l-.28-.78a4.74 4.74 0 0 0 1.29-1.8 8 8 0 0 0 .45-1.52c.12-.58.17-1.24.17-1.97v-.12a9.36 9.36 0 0 0-.65-3.5 5.23 5.23 0 0 0-1.25-1.8l.27-.78a4.69 4.69 0 0 1 1.3 1.1 6.28 6.28 0 0 1 1.16 2.06 8.33 8.33 0 0 1 .5 2.93v.1Zm-103.08 13-.15 2.34h-.93V230h1.08v.63Zm2.29 0-.15 2.34h-.93V230h1.08v.63Zm4.91 0-.14 2.34h-.93V230h1.07v.63Zm2.3 0-.15 2.34h-.93V230h1.07v.63Zm4.91 0-.15 2.34h-.92V230h1.07v.63Zm2.3 0-.16 2.34h-.92V230h1.07v.63Z"/><path fill="#F90" d="M39.68 184a1.52 1.52 0 0 0 .93-.3c.13-.1.22-.22.3-.35.07-.13.1-.28.1-.44h1.32c0 .3-.06.6-.2.87-.15.26-.34.5-.59.7a2.86 2.86 0 0 1-1.85.64c-.49 0-.91-.08-1.28-.25a2.66 2.66 0 0 1-1.48-1.7 4.1 4.1 0 0 1-.18-1.23v-.21c0-.43.06-.84.18-1.23.13-.39.31-.72.56-1.01.24-.3.55-.52.92-.69.37-.17.8-.26 1.28-.26.38 0 .73.06 1.06.18.32.12.6.28.84.5a2.24 2.24 0 0 1 .74 1.72h-1.32c0-.18-.03-.35-.1-.5a1.12 1.12 0 0 0-.27-.4 1.39 1.39 0 0 0-.97-.37 1.36 1.36 0 0 0-1.2.65c-.11.2-.2.41-.25.66-.05.25-.07.5-.07.75v.21c0 .26.02.51.07.76.05.24.14.46.25.66.12.2.28.35.47.47.2.11.44.17.74.17Zm5.84-4.46a2.23 2.23 0 0 1 1.85-1c.33 0 .63.05.9.15a1.98 1.98 0 0 1 1.17 1.25c.1.32.16.7.16 1.15V185h-1.4v-3.92c0-.24-.03-.45-.1-.62a1.1 1.1 0 0 0-.25-.44 1 1 0 0 0-.4-.25 1.7 1.7 0 0 0-.55-.08 1.65 1.65 0 0 0-1.38.7V185h-1.4v-9h1.4v3.54Zm5.61 2.24c0-.48.06-.92.18-1.31.12-.4.29-.75.5-1.03a2.32 2.32 0 0 1 1.84-.9c.35 0 .66.06.92.19.27.11.5.28.7.5V176h1.4v9h-1.26l-.07-.65a2.03 2.03 0 0 1-1.7.77 2.22 2.22 0 0 1-1.83-.92 3.28 3.28 0 0 1-.5-1.01 4.4 4.4 0 0 1-.18-1.28v-.13Zm1.4.13c0 .28.03.55.09.8.05.25.14.47.26.66.12.18.27.33.45.44.19.1.41.16.67.16.32 0 .58-.07.79-.2.2-.15.36-.33.48-.57v-2.75a1.35 1.35 0 0 0-1.26-.76c-.26 0-.48.06-.67.16-.19.12-.34.27-.46.46s-.2.41-.26.66a3.6 3.6 0 0 0-.08.81v.13Zm11.57-.01c0 .47-.05.9-.16 1.3a3 3 0 0 1-.48 1c-.2.3-.47.52-.78.68-.3.16-.66.24-1.06.24a2.3 2.3 0 0 1-1.01-.2 2.07 2.07 0 0 1-.73-.6l-.06.68h-1.27v-9h1.4v3.26a2.07 2.07 0 0 1 1.66-.72 2.26 2.26 0 0 1 1.85.9c.21.29.37.63.48 1.03.1.4.16.83.16 1.3v.13Zm-1.4-.12a4 4 0 0 0-.08-.8 2.04 2.04 0 0 0-.24-.67c-.1-.19-.25-.34-.44-.45a1.32 1.32 0 0 0-.7-.17c-.32 0-.6.08-.8.23-.22.15-.38.35-.5.6v2.62a1.37 1.37 0 0 0 1.31.84 1.21 1.21 0 0 0 1.13-.61c.11-.19.2-.4.24-.66.06-.25.08-.52.08-.81v-.12Zm4.79 2.38c0-.13.02-.26.06-.38a.9.9 0 0 1 .52-.52c.13-.06.27-.08.44-.08.16 0 .3.02.43.07a.9.9 0 0 1 .52.53 1.06 1.06 0 0 1 0 .76.87.87 0 0 1-.52.5 1.2 1.2 0 0 1-.87 0 .87.87 0 0 1-.58-.88Zm9.58-.88c0-.1-.02-.2-.06-.28a.6.6 0 0 0-.23-.24 1.8 1.8 0 0 0-.46-.2c-.2-.07-.44-.13-.74-.2a7.67 7.67 0 0 1-1.02-.27c-.3-.11-.56-.24-.78-.4a1.72 1.72 0 0 1-.5-.52 1.56 1.56 0 0 1 0-1.44c.13-.23.3-.44.52-.61.23-.18.5-.32.83-.42a3.75 3.75 0 0 1 2.21 0c.34.1.62.25.85.44a1.82 1.82 0 0 1 .71 1.42H77a.89.89 0 0 0-.33-.67 1.2 1.2 0 0 0-.4-.2 1.71 1.71 0 0 0-.56-.09c-.21 0-.4.03-.55.07-.15.05-.28.1-.38.18a.7.7 0 0 0-.23.25.75.75 0 0 0-.02.6c.04.08.11.16.21.23.1.07.24.13.42.2.18.05.42.1.7.15a8 8 0 0 1 1.07.26c.32.1.6.24.82.39.22.15.4.33.52.54.12.21.18.46.18.74 0 .28-.06.54-.2.77-.12.24-.3.44-.54.61-.24.17-.53.3-.86.4a4.1 4.1 0 0 1-2.34-.05 2.86 2.86 0 0 1-.89-.48c-.24-.2-.42-.43-.54-.69a1.78 1.78 0 0 1-.18-.77h1.36a1 1 0 0 0 .5.83c.13.09.3.15.46.19.17.03.35.05.52.05.44 0 .77-.07 1-.22.22-.15.33-.34.33-.57Zm2.9-1.5c0-.48.06-.92.17-1.32.11-.4.28-.74.5-1.02a2.29 2.29 0 0 1 1.87-.9 2.13 2.13 0 0 1 1.67.73l.07-.61h1.26v8.78h-1.4v-2.97a2.06 2.06 0 0 1-1.62.65 2.3 2.3 0 0 1-1.85-.92 3.27 3.27 0 0 1-.5-1.02c-.11-.4-.17-.82-.17-1.28v-.12Zm1.4.12c0 .29.03.56.08.8.06.26.15.49.27.68.12.19.28.34.46.45.2.11.41.17.67.17.31 0 .57-.07.77-.2.2-.13.36-.3.49-.53v-2.9a1.45 1.45 0 0 0-.5-.5c-.2-.13-.45-.2-.75-.2a1.27 1.27 0 0 0-1.13.63c-.12.19-.21.41-.27.67-.06.25-.1.52-.1.8v.13Zm6.25-5.9h3.42v7.84h1.94V185h-5.36v-1.16h2.01v-6.67h-2.01V176Z"/><path fill="#353535" d="M7 5a4 4 0 0 1 4-4h588a4 4 0 0 1 4 4v19H7V5Z"/><circle cx="23.5" cy="12.59" r="4.5" fill="#FCFF74"/><circle cx="37.5" cy="12.59" r="4.5" fill="#D9D9D9" opacity=".2"/><circle cx="51.5" cy="12.59" r="4.5" fill="#D9D9D9" opacity=".2"/></g><rect width="509" height="286" x="9" y="1" stroke="#616161" stroke-opacity=".6" rx="8" shape-rendering="crispEdges"/></g><g filter="url(#c)"><g clip-path="url(#d)"><rect width="360" height="84" x="199" y="242" fill="#3D3D3D" rx="4"/><path fill="#353535" d="M199 242h190v40H199z"/><path fill="#B3B6BD" d="M218.01 266.14a2.7 2.7 0 0 1-1.12-.22 1.9 1.9 0 0 1-.8-.68 1.9 1.9 0 0 1-.29-1.09c0-.37.07-.67.21-.91.15-.24.34-.43.58-.57.24-.14.5-.24.8-.31.3-.07.61-.13.92-.17l.95-.1c.25-.04.43-.09.54-.15.1-.07.16-.18.16-.34v-.03c0-.37-.1-.66-.31-.86-.21-.2-.52-.3-.93-.3-.43 0-.77.09-1.01.28-.25.18-.42.4-.51.62l-1.2-.27a2.3 2.3 0 0 1 1.57-1.5 3.7 3.7 0 0 1 1.96-.08c.3.06.57.17.83.34.26.16.47.39.63.69.17.3.25.69.25 1.16V266H220v-.9h-.05a1.96 1.96 0 0 1-1 .88c-.27.11-.58.16-.94.16Zm.28-1.02c.35 0 .65-.07.9-.2a1.46 1.46 0 0 0 .78-1.28v-.84a.64.64 0 0 1-.27.12 4 4 0 0 1-.44.1 48.82 48.82 0 0 1-.87.13 3.4 3.4 0 0 0-.68.15c-.2.08-.36.18-.48.32a.8.8 0 0 0-.18.55c0 .31.11.55.35.71.23.16.53.24.89.24Zm10.01-5.67-2.37 6.55h-1.36l-2.38-6.55h1.37l1.65 5.04h.07l1.66-5.04h1.36Zm3.72 9.14c-.52 0-.97-.07-1.34-.2a2.59 2.59 0 0 1-.91-.54 2.29 2.29 0 0 1-.53-.74l1.1-.45c.07.12.17.25.3.4.13.13.3.25.53.36.23.1.51.14.87.14.48 0 .88-.11 1.2-.35.3-.23.47-.6.47-1.12v-1.28h-.09a2 2 0 0 1-.33.46c-.14.17-.33.32-.58.44a2.73 2.73 0 0 1-2.37-.17c-.42-.25-.75-.6-.99-1.08a3.9 3.9 0 0 1-.36-1.76c0-.7.12-1.3.36-1.79a2.55 2.55 0 0 1 2.39-1.54c.4 0 .73.07.98.2a2.07 2.07 0 0 1 .91.95h.1v-1.06h1.25v6.69a2.3 2.3 0 0 1-.4 1.38 2.3 2.3 0 0 1-1.06.8 4.1 4.1 0 0 1-1.5.26Zm-.01-3.74c.37 0 .68-.09.93-.26s.45-.42.58-.74c.13-.33.2-.71.2-1.17 0-.44-.07-.82-.2-1.16-.13-.33-.32-.6-.57-.78a1.51 1.51 0 0 0-.94-.29c-.38 0-.7.1-.96.3-.26.2-.45.46-.58.8-.13.34-.19.72-.19 1.13 0 .43.06.81.2 1.13.13.33.32.58.58.76.25.18.57.28.95.28Zm5.05-2.47c0-1.07.14-2.05.42-2.95.28-.9.69-1.73 1.23-2.49h1.17c-.21.29-.41.63-.6 1.04a12.19 12.19 0 0 0-.91 4.4 11.44 11.44 0 0 0 .74 3.98c.24.6.49 1.08.77 1.45h-1.17a8.8 8.8 0 0 1-1.23-2.48 9.85 9.85 0 0 1-.42-2.95Zm4.16 6.07v-9h1.24v1.07h.11c.08-.14.18-.3.32-.48s.33-.33.58-.47c.25-.13.57-.2.98-.2a2.56 2.56 0 0 1 2.4 1.56c.23.5.35 1.1.35 1.81 0 .7-.12 1.31-.35 1.82-.24.5-.56.89-.98 1.16-.4.27-.88.4-1.4.4a1.85 1.85 0 0 1-1.56-.67 3.5 3.5 0 0 1-.34-.47h-.08v3.47h-1.27Zm1.25-5.72c0 .46.06.86.2 1.2.13.35.33.63.58.82.25.2.56.3.93.3.38 0 .7-.11.95-.31.26-.2.45-.48.58-.83.13-.35.2-.75.2-1.18 0-.44-.06-.82-.2-1.17a1.78 1.78 0 0 0-.57-.81c-.26-.2-.58-.3-.96-.3-.37 0-.69.1-.94.29-.25.19-.45.45-.58.8-.13.33-.2.73-.2 1.19Zm6.16 3.27v-6.55h1.23v1.04h.07c.11-.35.32-.63.63-.83.3-.2.64-.3 1.03-.3a5.06 5.06 0 0 1 .54.03v1.22a2.59 2.59 0 0 0-.66-.08c-.3 0-.58.06-.81.19a1.42 1.42 0 0 0-.76 1.28v4h-1.27Zm4.6 0v-6.55h1.28V266h-1.28Zm.65-7.56a.8.8 0 0 1-.58-.22.72.72 0 0 1-.23-.53c0-.21.08-.4.23-.54a.8.8 0 0 1 .57-.23c.23 0 .42.08.57.23a.7.7 0 0 1 .24.54.7.7 0 0 1-.24.53.8.8 0 0 1-.56.22Zm5.1 7.7a3 3 0 0 1-1.64-.44c-.45-.29-.8-.69-1.05-1.2a4 4 0 0 1-.36-1.74c0-.67.12-1.25.37-1.76s.6-.91 1.06-1.2a2.9 2.9 0 0 1 1.6-.43c.5 0 .94.1 1.33.28a2.32 2.32 0 0 1 1.37 1.92h-1.23c-.07-.3-.23-.57-.47-.8a1.38 1.38 0 0 0-.97-.33c-.36 0-.67.1-.94.28-.26.19-.47.45-.62.8-.14.34-.22.74-.22 1.2 0 .48.08.9.22 1.24.14.35.35.62.61.8.27.2.58.3.94.3.25 0 .47-.05.66-.14a1.4 1.4 0 0 0 .79-.99h1.24a2.4 2.4 0 0 1-1.34 1.92c-.39.19-.84.28-1.35.28Zm6.87 0c-.65 0-1.2-.15-1.67-.42a2.8 2.8 0 0 1-1.07-1.17c-.25-.5-.38-1.1-.38-1.78 0-.67.13-1.26.38-1.77s.6-.91 1.06-1.2a3.2 3.2 0 0 1 2.67-.25 2.6 2.6 0 0 1 1.58 1.6c.16.41.24.92.24 1.5v.46h-5.2v-.95h3.95c0-.34-.07-.64-.2-.9a1.55 1.55 0 0 0-1.44-.84 1.74 1.74 0 0 0-1.55.95c-.15.28-.22.58-.22.9v.75c0 .44.08.81.23 1.12a1.72 1.72 0 0 0 1.63.94c.24 0 .46-.03.66-.1s.37-.18.52-.32c.14-.14.25-.3.33-.51l1.2.21c-.09.36-.26.67-.51.94-.25.26-.56.47-.94.62-.37.14-.8.21-1.27.21Zm6.67-3.76a9.04 9.04 0 0 1-1.65 5.44h-1.17c.21-.29.4-.63.59-1.04a12.4 12.4 0 0 0 .91-4.4 11.41 11.41 0 0 0-.74-3.98 6.1 6.1 0 0 0-.76-1.45h1.17c.54.75.95 1.58 1.23 2.48.28.9.42 1.88.42 2.95Z"/><mask id="e" fill="#fff"><path d="M199 282h190v44H199v-44Z"/></mask><path fill="#2A2A2A" d="M199 282h190v44H199v-44Z"/><path fill="#414141" fill-opacity=".3" d="M389 325H199v2h190v-2Z" mask="url(#e)"/><path fill="#fff" d="M219.63 299.32v10.18h-1.23v-8.89h-.06l-2.49 1.65v-1.25l2.55-1.7h1.23Zm3.25 10.18 4.55-9v-.09h-5.25v-1.1h6.53v1.16l-4.54 9.03h-1.29Zm10.74.14c-.69 0-1.29-.12-1.81-.36a2.96 2.96 0 0 1-1.22-1.01c-.3-.43-.44-.92-.43-1.47a2.72 2.72 0 0 1 .96-2.12c.3-.25.63-.4 1-.47v-.06a2 2 0 0 1-1.16-.82c-.29-.42-.43-.9-.43-1.45 0-.51.13-.98.4-1.38.26-.41.63-.73 1.09-.97.47-.23 1-.35 1.6-.35.59 0 1.11.12 1.58.35.46.24.83.56 1.1.97.26.4.4.87.4 1.38a2.5 2.5 0 0 1-.44 1.45c-.3.42-.67.7-1.15.82v.06c.36.07.7.22 1 .47a2.76 2.76 0 0 1 .53 3.58c-.3.43-.7.77-1.23 1.02-.52.24-1.11.36-1.8.36Zm0-1.1c.46 0 .85-.07 1.19-.22.33-.15.6-.36.78-.63.18-.27.27-.59.27-.95 0-.39-.1-.73-.3-1.02-.2-.3-.46-.53-.8-.7a2.52 2.52 0 0 0-1.14-.25c-.44 0-.83.08-1.17.25-.33.17-.6.4-.8.7-.19.3-.28.63-.28 1.02 0 .36.08.68.26.95.19.27.44.48.78.63.34.15.74.23 1.2.23Zm0-4.83c.36 0 .68-.07.97-.22a1.67 1.67 0 0 0 .91-1.53 1.58 1.58 0 0 0-.9-1.5c-.28-.14-.6-.2-.98-.2s-.72.06-1 .2a1.6 1.6 0 0 0-.89 1.5c0 .35.07.66.23.92s.39.47.67.61c.29.15.62.22.99.22Zm6.82 4.4-.08.53a22.78 22.78 0 0 1-.91 3.34h-.9l.17-.83a32.1 32.1 0 0 0 .38-2.48l.06-.56h1.28Zm5.1 1.53c-.69 0-1.29-.12-1.81-.36a2.96 2.96 0 0 1-1.22-1.01c-.3-.43-.44-.92-.43-1.47a2.7 2.7 0 0 1 .96-2.12c.3-.25.64-.4 1-.47v-.06a2 2 0 0 1-1.16-.82c-.28-.42-.43-.9-.42-1.45 0-.51.12-.98.39-1.38.26-.41.63-.73 1.1-.97.46-.23 1-.35 1.59-.35.59 0 1.12.12 1.58.35.46.24.83.56 1.1.97.26.4.4.87.4 1.38a2.5 2.5 0 0 1-.44 1.45c-.29.42-.67.7-1.15.82v.06c.37.07.7.22 1 .47a2.77 2.77 0 0 1 .97 2.11c0 .56-.15 1.05-.45 1.48-.3.43-.7.76-1.22 1a4.2 4.2 0 0 1-1.8.37Zm0-1.1c.46 0 .86-.07 1.2-.22.33-.15.58-.36.77-.63a1.83 1.83 0 0 0-.02-1.97c-.2-.3-.46-.53-.8-.7a2.5 2.5 0 0 0-1.15-.25c-.44 0-.82.08-1.16.25-.34.17-.61.4-.8.7-.2.3-.3.63-.29 1.02 0 .36.09.68.26.95.19.27.45.48.78.63.34.15.74.23 1.2.23Zm0-4.83c.36 0 .69-.07.97-.22a1.67 1.67 0 0 0 .92-1.53c0-.34-.09-.64-.25-.9a1.58 1.58 0 0 0-.66-.6c-.28-.14-.6-.2-.98-.2s-.72.06-1 .2a1.55 1.55 0 0 0-.9 1.5c0 .35.08.66.24.92.16.26.39.47.67.61.29.15.62.22.99.22Zm8.6-4.53c.42 0 .84.08 1.26.24.42.15.8.41 1.14.77.35.36.62.85.83 1.47a10.14 10.14 0 0 1 .05 4.74 5.5 5.5 0 0 1-.73 1.77c-.32.48-.7.85-1.16 1.1-.46.25-.97.37-1.54.37-.57 0-1.08-.11-1.53-.34a3 3 0 0 1-1.64-2.37h1.22c.1.47.32.86.65 1.16.33.3.76.46 1.3.46.78 0 1.4-.35 1.85-1.03.46-.69.7-1.66.7-2.91h-.09a3.14 3.14 0 0 1-1.5 1.19 3.1 3.1 0 0 1-3.76-1.47 3.5 3.5 0 0 1-.45-1.75c0-.62.14-1.2.42-1.71a3.26 3.26 0 0 1 2.99-1.69Zm0 1.1a2.13 2.13 0 0 0-1.92 1.14c-.19.35-.28.73-.28 1.16 0 .42.09.81.28 1.16a2.09 2.09 0 0 0 1.89 1.13 2.12 2.12 0 0 0 1.59-.7c.2-.22.36-.47.48-.74a2.24 2.24 0 0 0-.12-1.99 2.3 2.3 0 0 0-.78-.84 2.03 2.03 0 0 0-1.13-.33Zm9.08-.96v10.18h-1.23v-8.89h-.06l-2.49 1.65v-1.25l2.55-1.7h1.23Zm3.2 10.26a.86.86 0 0 1-.63-.26.86.86 0 0 1-.26-.63c0-.25.08-.46.26-.64a.86.86 0 0 1 .63-.26c.25 0 .46.09.63.26.18.18.27.39.27.63a.94.94 0 0 1-.45.77.85.85 0 0 1-.45.13Zm2.98-.08v-.9l3.36-3.67c.4-.44.72-.8.98-1.13.25-.32.44-.62.56-.9.13-.29.2-.59.2-.9a1.66 1.66 0 0 0-.96-1.53 2.2 2.2 0 0 0-1-.22c-.39 0-.73.08-1.02.25-.29.16-.51.38-.67.67a2.1 2.1 0 0 0-.24 1.01h-1.17a2.87 2.87 0 0 1 1.54-2.63 3.38 3.38 0 0 1 1.6-.37c.6 0 1.13.13 1.59.38a2.8 2.8 0 0 1 1.28 3.54c-.14.36-.37.75-.7 1.19-.33.43-.79.96-1.37 1.6l-2.29 2.44v.08h4.74v1.09h-6.43Zm11.74.14a4.3 4.3 0 0 1-1.81-.36 2.96 2.96 0 0 1-1.22-1.01 2.56 2.56 0 0 1-.43-1.47 2.72 2.72 0 0 1 .96-2.12c.3-.25.64-.4 1-.47v-.06c-.48-.13-.87-.4-1.15-.82-.3-.42-.44-.9-.43-1.45 0-.51.13-.98.39-1.38.26-.41.63-.73 1.1-.97.46-.23 1-.35 1.59-.35.59 0 1.12.12 1.58.35.46.24.83.56 1.1.97.26.4.4.87.4 1.38a2.5 2.5 0 0 1-.44 1.45c-.29.42-.67.7-1.15.82v.06c.37.07.7.22 1 .47a2.77 2.77 0 0 1 .98 2.11 2.6 2.6 0 0 1-.46 1.48c-.29.43-.7.76-1.22 1-.51.25-1.11.37-1.79.37Zm0-1.1c.46 0 .86-.07 1.2-.22.33-.15.59-.36.77-.63a1.83 1.83 0 0 0-.02-1.97c-.2-.3-.46-.53-.8-.7a2.52 2.52 0 0 0-1.15-.25c-.44 0-.82.08-1.16.25-.34.17-.6.4-.8.7-.2.3-.3.63-.29 1.02 0 .36.09.68.27.95.18.27.44.48.78.63.33.15.74.23 1.2.23Zm0-4.83c.36 0 .69-.07.97-.22a1.66 1.66 0 0 0 .92-1.53c0-.34-.09-.64-.24-.9a1.58 1.58 0 0 0-.67-.6 2.15 2.15 0 0 0-.98-.2c-.38 0-.71.06-1 .2-.28.15-.5.35-.66.6-.16.26-.23.56-.23.9 0 .35.07.66.23.92.17.26.39.47.67.61.29.15.62.22.99.22Z" opacity=".8"/><path fill="#353535" d="M389 242h170v40H389z"/><path fill="#B3B6BD" d="M405.87 266v-6.55h1.23v1.07h.08c.13-.36.36-.64.67-.84.3-.2.68-.31 1.1-.31.44 0 .81.1 1.1.3.3.21.52.5.67.85h.07c.15-.35.4-.63.74-.83a2.2 2.2 0 0 1 1.22-.32c.6 0 1.08.19 1.45.56.38.37.57.93.57 1.68V266h-1.27v-4.27c0-.44-.13-.76-.37-.96a1.3 1.3 0 0 0-.86-.3c-.42 0-.74.13-.97.38a1.4 1.4 0 0 0-.34.98V266h-1.27v-4.35c0-.36-.12-.64-.34-.86a1.19 1.19 0 0 0-.86-.32c-.24 0-.47.06-.67.2-.2.12-.37.29-.49.51a1.6 1.6 0 0 0-.18.78V266h-1.28Zm12.51.14a2.7 2.7 0 0 1-1.12-.22c-.34-.16-.6-.39-.8-.68a1.9 1.9 0 0 1-.29-1.09c0-.37.07-.67.21-.91.15-.24.34-.43.58-.57.24-.14.51-.24.8-.31.3-.07.61-.13.92-.17l.95-.1c.25-.04.43-.09.54-.15.1-.07.16-.18.16-.34v-.03c0-.37-.1-.66-.31-.86-.2-.2-.52-.3-.93-.3-.43 0-.77.09-1.01.28-.25.18-.42.4-.51.62l-1.2-.27a2.3 2.3 0 0 1 1.57-1.5 3.7 3.7 0 0 1 1.96-.08c.3.06.58.17.83.34.26.16.47.39.63.69.17.3.25.69.25 1.16V266h-1.24v-.9h-.05c-.08.17-.2.33-.37.5-.17.15-.38.28-.64.39-.26.1-.57.15-.93.15Zm.28-1.02c.35 0 .65-.07.9-.2a1.46 1.46 0 0 0 .78-1.28v-.84a.64.64 0 0 1-.27.12 4 4 0 0 1-.44.1 44.68 44.68 0 0 1-.87.13 3.4 3.4 0 0 0-.68.15c-.2.08-.36.18-.48.32a.8.8 0 0 0-.18.55c0 .31.12.55.35.71.23.16.53.24.89.24Zm5.65-5.67 1.45 2.55 1.46-2.55h1.4l-2.05 3.28 2.06 3.27h-1.4l-1.47-2.45-1.47 2.45h-1.4l2.04-3.27-2.01-3.28h1.4Zm5.98 2.93a9.04 9.04 0 0 1 1.65-5.44h1.17a7 7 0 0 0-.59 1.04 12.19 12.19 0 0 0-.91 4.4 10.88 10.88 0 0 0 .74 3.98c.23.6.48 1.08.76 1.45h-1.17a8.76 8.76 0 0 1-1.23-2.48 9.81 9.81 0 0 1-.42-2.95Zm4.16 6.07v-9h1.25v1.07h.1c.08-.14.19-.3.32-.48.14-.18.34-.33.58-.47.25-.13.58-.2.98-.2a2.56 2.56 0 0 1 2.4 1.56c.23.5.35 1.1.35 1.81 0 .7-.12 1.31-.35 1.82a2.52 2.52 0 0 1-2.38 1.57 1.85 1.85 0 0 1-1.56-.67 3.6 3.6 0 0 1-.34-.48h-.07v3.47h-1.28Zm1.25-5.72c0 .46.07.86.2 1.2.14.35.33.63.58.82.25.2.56.3.93.3.38 0 .7-.11.96-.31.25-.2.44-.48.58-.83.13-.35.2-.75.2-1.18 0-.44-.07-.82-.2-1.17a1.78 1.78 0 0 0-.58-.81c-.25-.2-.57-.3-.96-.3-.37 0-.68.1-.94.29-.25.19-.44.45-.57.8-.13.33-.2.73-.2 1.19Zm6.16 3.27v-6.55h1.23v1.04h.07c.12-.35.33-.63.63-.83.3-.2.65-.3 1.03-.3a5.04 5.04 0 0 1 .54.03v1.22a2.6 2.6 0 0 0-.66-.08c-.3 0-.57.06-.8.19a1.42 1.42 0 0 0-.76 1.28v4h-1.28Zm4.6 0v-6.55h1.28V266h-1.27Zm.65-7.56a.81.81 0 0 1-.57-.22.72.72 0 0 1-.24-.53c0-.21.08-.4.24-.54a.8.8 0 0 1 .57-.23c.22 0 .41.08.57.23a.7.7 0 0 1 .24.54.8.8 0 0 1-.8.76Zm5.1 7.7a2.84 2.84 0 0 1-2.68-1.63 3.95 3.95 0 0 1-.37-1.75c0-.67.13-1.25.38-1.76s.6-.91 1.05-1.2c.46-.29 1-.43 1.6-.43.5 0 .95.1 1.34.28a2.32 2.32 0 0 1 1.37 1.92h-1.24c-.07-.3-.22-.57-.47-.8a1.38 1.38 0 0 0-.97-.33c-.36 0-.67.1-.93.28a1.8 1.8 0 0 0-.62.8c-.15.34-.22.74-.22 1.2 0 .48.07.9.21 1.24.15.35.35.62.62.8.27.2.58.3.94.3.24 0 .46-.05.66-.14a1.36 1.36 0 0 0 .78-.99h1.24a2.4 2.4 0 0 1-1.34 1.92 3 3 0 0 1-1.35.28Zm6.87 0c-.64 0-1.2-.15-1.66-.42a2.8 2.8 0 0 1-1.08-1.17c-.25-.5-.37-1.1-.37-1.78 0-.67.12-1.26.37-1.77.26-.51.6-.91 1.06-1.2a3.18 3.18 0 0 1 2.67-.25 2.58 2.58 0 0 1 1.58 1.6c.16.41.24.92.24 1.5v.46h-5.2v-.95h3.95c0-.34-.06-.64-.2-.9a1.54 1.54 0 0 0-1.44-.84c-.36 0-.67.09-.94.27-.26.17-.46.4-.6.68-.15.28-.22.58-.22.9v.75c0 .44.07.81.23 1.12.15.3.37.54.65.7.28.16.6.24.98.24.24 0 .46-.03.66-.1s.37-.18.51-.32c.15-.14.26-.3.34-.51l1.2.21c-.1.36-.27.67-.52.94-.25.26-.56.47-.93.62-.37.14-.8.21-1.28.21Zm6.68-3.76c0 1.07-.14 2.05-.43 2.95-.28.9-.69 1.73-1.23 2.49h-1.17c.21-.29.41-.63.6-1.04a12.22 12.22 0 0 0 .91-4.4 10.87 10.87 0 0 0-.75-3.98 6.14 6.14 0 0 0-.75-1.45h1.16c.54.75.95 1.58 1.23 2.48.29.9.43 1.88.43 2.95Z"/><mask id="f" fill="#fff"><path d="M389 282h226v44H389v-44Z"/></mask><path fill="#2A2A2A" d="M389 282h226v44H389v-44Z"/><path fill="#414141" fill-opacity=".3" d="M615 325H389v2h226v-2Z" mask="url(#f)"/><path fill="#fff" d="M409.3 299.18c.41 0 .83.08 1.25.24.42.15.8.41 1.14.77.35.36.62.85.83 1.47a10.2 10.2 0 0 1 .06 4.74 5.5 5.5 0 0 1-.74 1.77c-.32.48-.7.85-1.16 1.1-.46.25-.97.37-1.54.37-.57 0-1.08-.11-1.53-.34a3 3 0 0 1-1.64-2.37h1.22c.1.47.32.86.65 1.16.33.3.76.46 1.3.46.78 0 1.4-.35 1.86-1.03a5.3 5.3 0 0 0 .68-2.91h-.08a3.12 3.12 0 0 1-1.5 1.19 3.1 3.1 0 0 1-3.76-1.47 3.5 3.5 0 0 1-.45-1.75c0-.62.14-1.2.42-1.71a3.26 3.26 0 0 1 2.99-1.69Zm0 1.1a2.15 2.15 0 0 0-1.93 1.14 2.52 2.52 0 0 0 0 2.32 2.09 2.09 0 0 0 1.89 1.13 2.12 2.12 0 0 0 1.59-.7c.2-.22.36-.47.48-.74a2.24 2.24 0 0 0-.12-1.99 2.27 2.27 0 0 0-.78-.84 2 2 0 0 0-1.13-.33Zm5.49 9.22v-.9l3.36-3.67c.4-.44.72-.8.98-1.13.25-.32.44-.62.56-.9.13-.29.2-.59.2-.9a1.66 1.66 0 0 0-.96-1.53 2.2 2.2 0 0 0-1-.22c-.39 0-.73.08-1.02.25-.29.16-.51.38-.67.67a2.1 2.1 0 0 0-.24 1.01h-1.17a2.86 2.86 0 0 1 1.54-2.63 3.39 3.39 0 0 1 1.6-.37c.6 0 1.13.13 1.59.38a2.8 2.8 0 0 1 1.28 3.54 4.9 4.9 0 0 1-.7 1.19c-.33.43-.79.96-1.37 1.6l-2.29 2.44v.08h4.73v1.09h-6.42Zm10.25-1.4-.08.54a23.75 23.75 0 0 1-.92 3.34h-.9l.18-.83a32.24 32.24 0 0 0 .38-2.48l.06-.56h1.28Zm5.13 1.54a3.5 3.5 0 0 1-1.58-.35 2.93 2.93 0 0 1-1.12-.95 2.6 2.6 0 0 1-.46-1.38h1.19c.05.46.25.84.63 1.14.37.3.82.44 1.34.44a2.11 2.11 0 0 0 1.88-1.1c.2-.34.28-.73.28-1.16 0-.45-.1-.84-.29-1.19a2.16 2.16 0 0 0-1.95-1.14 3.3 3.3 0 0 0-1.77.52l-1.15-.14.61-5.01h5.3v1.1h-4.26l-.36 3h.06a2.99 2.99 0 0 1 1.77-.58 3.12 3.12 0 0 1 2.82 1.66c.28.51.42 1.1.42 1.76 0 .65-.15 1.23-.44 1.74a3.2 3.2 0 0 1-2.92 1.64Zm8.51 0a3.5 3.5 0 0 1-1.57-.35 2.93 2.93 0 0 1-1.13-.95c-.28-.4-.43-.87-.46-1.38h1.2c.04.46.25.84.62 1.14.38.3.83.44 1.35.44a2.11 2.11 0 0 0 1.88-1.1c.19-.34.28-.73.28-1.16 0-.45-.1-.84-.3-1.19a2.15 2.15 0 0 0-1.94-1.14c-.32 0-.64.05-.96.15-.33.1-.6.22-.81.37l-1.16-.14.62-5.01h5.29v1.1h-4.26l-.35 3h.05a2.99 2.99 0 0 1 1.77-.58 3.12 3.12 0 0 1 2.82 1.66c.28.51.43 1.1.43 1.76 0 .65-.15 1.23-.44 1.74a3.2 3.2 0 0 1-2.93 1.64Zm8.52 0a3.5 3.5 0 0 1-1.57-.35 2.93 2.93 0 0 1-1.13-.95 2.6 2.6 0 0 1-.46-1.38h1.2c.04.46.25.84.62 1.14.38.3.82.44 1.34.44a2.11 2.11 0 0 0 1.89-1.1c.19-.34.28-.73.28-1.16 0-.45-.1-.84-.3-1.19a2.15 2.15 0 0 0-1.95-1.14 3.36 3.36 0 0 0-1.76.52l-1.16-.14.62-5.01h5.29v1.1h-4.26l-.36 3h.06a2.98 2.98 0 0 1 1.77-.58 3.12 3.12 0 0 1 2.82 1.66c.28.51.42 1.1.42 1.76 0 .65-.14 1.23-.43 1.74a3.2 3.2 0 0 1-2.93 1.64Zm6.73-1.53-.08.53a21.88 21.88 0 0 1-.92 3.34h-.9l.18-.83a32.1 32.1 0 0 0 .38-2.48l.06-.56h1.28Zm5.3-8.93c.41 0 .83.08 1.25.24.42.15.8.41 1.14.77.35.36.62.85.83 1.47a10.14 10.14 0 0 1 .05 4.74 5.5 5.5 0 0 1-.73 1.77c-.32.48-.7.85-1.16 1.1-.46.25-.97.37-1.54.37-.57 0-1.08-.11-1.53-.34a3 3 0 0 1-1.64-2.37h1.22c.1.47.32.86.65 1.16.33.3.76.46 1.3.46.78 0 1.4-.35 1.86-1.03a5.3 5.3 0 0 0 .68-2.91h-.08a3.14 3.14 0 0 1-1.5 1.19 3.1 3.1 0 0 1-3.76-1.47 3.5 3.5 0 0 1-.44-1.75c0-.62.13-1.2.41-1.71a3.26 3.26 0 0 1 2.99-1.69Zm0 1.1a2.15 2.15 0 0 0-1.93 1.14 2.52 2.52 0 0 0 0 2.32 2.09 2.09 0 0 0 1.89 1.13 2.12 2.12 0 0 0 1.59-.7c.2-.22.36-.47.48-.74a2.24 2.24 0 0 0-.12-1.99 2.3 2.3 0 0 0-.78-.84 2.03 2.03 0 0 0-1.13-.33Zm9.07-.96v10.18h-1.23v-8.89H467l-2.49 1.65v-1.25l2.55-1.7h1.23Zm6.19 10.32a4.3 4.3 0 0 1-1.81-.36 2.96 2.96 0 0 1-1.22-1.01 2.56 2.56 0 0 1-.43-1.47 2.72 2.72 0 0 1 .96-2.12c.3-.25.64-.4 1-.47v-.06a2 2 0 0 1-1.16-.82c-.28-.42-.43-.9-.42-1.45 0-.51.12-.98.39-1.38.26-.41.63-.73 1.1-.97.46-.23 1-.35 1.59-.35.59 0 1.12.12 1.58.35.46.24.83.56 1.1.97.26.4.4.87.4 1.38a2.5 2.5 0 0 1-.44 1.45c-.29.42-.67.7-1.15.82v.06c.37.07.7.22 1 .47a2.76 2.76 0 0 1 .53 3.58c-.3.43-.7.77-1.23 1.02-.51.24-1.11.36-1.8.36Zm0-1.1c.46 0 .86-.07 1.2-.22.33-.15.59-.36.77-.63a1.82 1.82 0 0 0-.02-1.97c-.2-.3-.46-.53-.8-.7a2.52 2.52 0 0 0-1.15-.25c-.44 0-.82.08-1.16.25-.34.17-.6.4-.8.7-.2.3-.3.63-.29 1.02 0 .36.09.68.27.95.18.27.44.48.78.63.33.15.73.23 1.2.23Zm0-4.83c.36 0 .69-.07.97-.22a1.67 1.67 0 0 0 .92-1.53c0-.34-.09-.64-.25-.9a1.58 1.58 0 0 0-.66-.6 2.15 2.15 0 0 0-.98-.2c-.38 0-.72.06-1 .2-.29.15-.5.35-.66.6-.16.26-.23.56-.23.9 0 .35.07.66.23.92.17.26.39.47.68.61.28.15.6.22.98.22Zm5.93 5.87a.86.86 0 0 1-.64-.26.86.86 0 0 1-.26-.63.9.9 0 0 1 .26-.64.86.86 0 0 1 .64-.26.9.9 0 0 1 .77 1.34.93.93 0 0 1-.33.33.85.85 0 0 1-.44.12Zm5.94.06a3 3 0 0 1-1.91-.61c-.53-.41-.93-1-1.21-1.79a8.5 8.5 0 0 1-.42-2.83c0-1.1.14-2.04.42-2.82a3.9 3.9 0 0 1 1.21-1.79 3.01 3.01 0 0 1 1.91-.62c.74 0 1.38.2 1.9.62.54.41.94 1 1.22 1.79.28.78.42 1.72.42 2.82 0 1.1-.14 2.05-.42 2.83a3.82 3.82 0 0 1-1.2 1.79c-.53.4-1.17.6-1.92.6Zm0-1.1c.74 0 1.32-.35 1.73-1.07.41-.71.62-1.74.62-3.06 0-.88-.1-1.63-.28-2.25a3.1 3.1 0 0 0-.81-1.42 1.78 1.78 0 0 0-1.26-.49c-.73 0-1.31.37-1.72 1.1a6.23 6.23 0 0 0-.63 3.06c0 .88.1 1.63.28 2.25.19.61.46 1.08.8 1.4.36.32.78.49 1.27.49Zm8.75 1.1a3 3 0 0 1-1.91-.61c-.53-.41-.93-1-1.21-1.79a8.5 8.5 0 0 1-.42-2.83c0-1.1.14-2.04.42-2.82a3.9 3.9 0 0 1 1.21-1.79 3.01 3.01 0 0 1 1.91-.62c.74 0 1.38.2 1.9.62.54.41.94 1 1.22 1.79.28.78.42 1.72.42 2.82 0 1.1-.14 2.05-.42 2.83a3.82 3.82 0 0 1-1.2 1.79c-.53.4-1.17.6-1.92.6Zm0-1.1c.74 0 1.32-.35 1.73-1.07.41-.71.62-1.74.62-3.06 0-.88-.1-1.63-.28-2.25a3.1 3.1 0 0 0-.81-1.42 1.78 1.78 0 0 0-1.26-.49c-.73 0-1.31.37-1.72 1.1a6.23 6.23 0 0 0-.63 3.06c0 .88.1 1.63.28 2.25.19.61.46 1.08.8 1.4.36.32.78.49 1.27.49Z"/></g><rect width="359" height="83" x="199.5" y="242.5" stroke="#6C6C6C" rx="3.5"/></g><defs><clipPath id="b"><rect width="509" height="286" x="9" y="1" fill="#fff" rx="8"/></clipPath><clipPath id="d"><rect width="360" height="84" x="199" y="242" fill="#fff" rx="4"/></clipPath><filter id="a" width="530" height="307" x="-1.5" y="-9.5" color-interpolation-filters="sRGB" filterUnits="userSpaceOnUse"><feFlood flood-opacity="0" result="BackgroundImageFix"/><feGaussianBlur in="BackgroundImageFix" stdDeviation="5"/><feComposite in2="SourceAlpha" operator="in" result="effect1_backgroundBlur_2003_595"/><feColorMatrix in="SourceAlpha" result="hardAlpha" values="0 0 0 0 0 0 0 0 0 0 0 0 0 0 0 0 0 0 127 0"/><feOffset dy="4"/><feGaussianBlur stdDeviation="2"/><feComposite in2="hardAlpha" operator="out"/><feColorMatrix values="0 0 0 0 0 0 0 0 0 0 0 0 0 0 0 0 0 0 0.06 0"/><feBlend in2="effect1_backgroundBlur_2003_595" result="effect2_dropShadow_2003_595"/><feBlend in="SourceGraphic" in2="effect2_dropShadow_2003_595" result="shape"/><feColorMatrix in="SourceAlpha" result="hardAlpha" values="0 0 0 0 0 0 0 0 0 0 0 0 0 0 0 0 0 0 127 0"/><feOffset dy="4"/><feGaussianBlur stdDeviation="12.5"/><feComposite in2="hardAlpha" k2="-1" k3="1" operator="arithmetic"/><feColorMatrix values="0 0 0 0 0 0 0 0 0 0 0 0 0 0 0 0 0 0 0.14 0"/><feBlend in2="shape" result="effect3_innerShadow_2003_595"/></filter><filter id="c" width="388" height="112" x="185" y="232" color-interpolation-filters="sRGB" filterUnits="userSpaceOnUse"><feFlood flood-opacity="0" result="BackgroundImageFix"/><feColorMatrix in="SourceAlpha" result="hardAlpha" values="0 0 0 0 0 0 0 0 0 0 0 0 0 0 0 0 0 0 127 0"/><feOffset dy="4"/><feGaussianBlur stdDeviation="7"/><feComposite in2="hardAlpha" operator="out"/><feColorMatrix values="0 0 0 0 0 0 0 0 0 0 0 0 0 0 0 0 0 0 0.55 0"/><feBlend in2="BackgroundImageFix" result="effect1_dropShadow_2003_595"/><feBlend in="SourceGraphic" in2="effect1_dropShadow_2003_595" result="shape"/></filter></defs></svg>