<svg width="24" height="24" viewBox="0 0 24 24" fill="none" xmlns="http://www.w3.org/2000/svg">
<g clip-path="url(#clip0_601_1595)">
<path d="M17.3396 16.9446C17.4821 15.7579 17.4394 15.5838 18.3234 15.776L18.5478 15.7957C19.2275 15.8266 20.1166 15.6864 20.639 15.4437C21.7635 14.922 22.4302 14.0508 21.3215 14.2797C18.7923 14.8015 18.6184 13.9451 18.6184 13.9451C21.2891 9.98247 22.4055 4.95231 21.4418 3.72103C18.8134 0.362543 14.2638 1.95075 14.1876 1.99198L14.1634 1.9965C13.6637 1.89277 13.1044 1.83082 12.4761 1.82066C11.3316 1.80185 10.4631 2.12071 9.80433 2.62039C9.80433 2.62039 1.68792 -0.723463 2.06551 6.82563C2.14582 8.43153 4.36741 18.9773 7.01708 15.792C7.98552 14.6272 8.92142 13.6424 8.92142 13.6424C9.38616 13.9511 9.94256 14.1086 10.5261 14.052L10.5712 14.0136C10.5571 14.1582 10.5633 14.2997 10.5893 14.4671C9.90681 15.2298 10.1073 15.3637 8.74266 15.6446C7.36198 15.9292 8.17313 16.4357 8.70258 16.5682C9.34462 16.7287 10.8299 16.9561 11.8337 15.5512L11.7938 15.7115C12.0615 15.9257 12.0434 17.2512 12.0814 18.1982C12.1194 19.1453 12.1828 20.0291 12.3759 20.5501C12.5689 21.071 12.7967 22.4131 14.5902 22.0288C16.0892 21.7075 17.2352 21.2452 17.3396 16.9446" fill="black"/>
<path d="M17.3396 16.9446C17.4821 15.7579 17.4394 15.5838 18.3234 15.776L18.5478 15.7957C19.2275 15.8266 20.1166 15.6864 20.639 15.4437C21.7635 14.922 22.4302 14.0508 21.3215 14.2797C18.7923 14.8015 18.6184 13.9451 18.6184 13.9451C21.2891 9.98247 22.4055 4.95231 21.4418 3.72103C18.8134 0.362543 14.2638 1.95075 14.1876 1.99198L14.1634 1.9965C13.6637 1.89277 13.1044 1.83082 12.4761 1.82066C11.3316 1.80185 10.4631 2.12071 9.80433 2.62039C9.80433 2.62039 1.68792 -0.723463 2.06551 6.82563C2.14582 8.43153 4.36741 18.9773 7.01708 15.792C7.98552 14.6272 8.92142 13.6424 8.92142 13.6424C9.38616 13.9511 9.94256 14.1086 10.5261 14.052L10.5712 14.0136C10.5571 14.1582 10.5633 14.2997 10.5893 14.4671C9.90681 15.2298 10.1073 15.3637 8.74266 15.6446C7.36198 15.9292 8.17313 16.4357 8.70258 16.5682C9.34462 16.7287 10.8299 16.9561 11.8337 15.5512L11.7938 15.7115C12.0615 15.9257 12.0434 17.2512 12.0814 18.1982C12.1194 19.1453 12.1828 20.0291 12.3759 20.5501C12.5689 21.071 12.7967 22.4131 14.5902 22.0288C16.0892 21.7075 17.2352 21.2452 17.3396 16.9446" stroke="black" stroke-width="1.75909"/>
<path d="M21.322 14.2797C18.7925 14.8015 18.6186 13.9451 18.6186 13.9451C21.2893 9.98222 22.4057 4.95195 21.4423 3.72083C18.8139 0.36254 14.264 1.95079 14.1881 1.99203L14.1636 1.9964C13.6639 1.89266 13.1046 1.83086 12.4761 1.82061C11.3315 1.80185 10.4634 2.12066 9.80457 2.62024C9.80457 2.62024 1.68802 -0.723466 2.06551 6.82558C2.14581 8.43158 4.36735 18.9773 7.01712 15.792C7.98561 14.6272 8.92137 13.6424 8.92137 13.6424C9.38615 13.9512 9.94255 14.1087 10.5259 14.0521L10.5712 14.0136C10.5571 14.1582 10.5635 14.2997 10.5893 14.4672C9.9067 15.2298 10.1073 15.3638 8.7427 15.6446C7.36193 15.9292 8.17307 16.4358 8.70268 16.5682C9.34472 16.7288 10.8301 16.9562 11.8337 15.5512L11.7937 15.7115C12.0612 15.9258 12.249 17.105 12.2175 18.174C12.186 19.243 12.165 19.9769 12.3757 20.5501C12.5865 21.1234 12.7965 22.4132 14.5904 22.0288C16.0893 21.7076 16.8661 20.8752 16.9742 19.4866C17.0508 18.4995 17.2244 18.6454 17.2353 17.7629L17.3745 17.3451C17.535 16.007 17.4 15.5752 18.3235 15.776L18.5479 15.7957C19.2276 15.8266 20.1172 15.6864 20.6393 15.4437C21.7636 14.922 22.4304 14.0508 21.3219 14.2797H21.322Z" fill="#336791"/>
<path d="M11.9422 15.0467C11.8726 17.5366 11.9597 20.0439 12.2034 20.6532C12.4471 21.2626 12.9688 22.4478 14.7629 22.0635C16.2617 21.7421 16.807 21.1203 17.0436 19.7478C17.2179 18.738 17.5539 15.9335 17.597 15.3589M9.79193 2.56454C9.79193 2.56454 1.66985 -0.755077 2.04744 6.79401C2.12774 8.39997 4.34944 18.946 6.99915 15.7606C7.96744 14.5957 8.84316 13.6821 8.84316 13.6821M14.1791 1.95866C13.8979 2.04681 18.6971 0.204261 21.4245 3.68932C22.3879 4.92049 21.2715 9.95081 18.6008 13.9138" stroke="white" stroke-width="0.586364" stroke-linecap="round" stroke-linejoin="round"/>
<path d="M18.6009 13.9136C18.6009 13.9136 18.775 14.7703 21.3044 14.2481C22.4127 14.0192 21.7457 14.8905 20.6217 15.4125C19.6992 15.8406 17.6311 15.9503 17.5973 15.3587C17.5103 13.8323 18.6858 14.2961 18.601 13.9136C18.5243 13.5691 17.9986 13.2311 17.6509 12.388C17.3473 11.6522 13.4875 6.00944 18.7213 6.84749C18.913 6.80782 17.3563 1.86918 12.4581 1.78887C7.56114 1.70857 7.7218 7.81111 7.7218 7.81111" stroke="white" stroke-width="0.586364" stroke-linecap="round" stroke-linejoin="bevel"/>
<path d="M10.5715 14.4356C9.88874 15.1982 10.0895 15.3322 8.72484 15.6131C7.34406 15.8978 8.15531 16.4043 8.68476 16.5366C9.3268 16.6973 10.8122 16.9247 11.8158 15.5194C12.1214 15.0915 11.814 14.4088 11.3942 14.2348C11.1913 14.1508 10.9201 14.0455 10.5715 14.4356V14.4356Z" stroke="white" stroke-width="0.586364" stroke-linecap="round" stroke-linejoin="round"/>
<path d="M10.5263 14.4225C10.4575 13.974 10.6737 13.4405 10.9053 12.8162C11.2533 11.8796 12.0564 10.9428 11.414 7.9718C10.9351 5.7578 7.72329 7.51104 7.72128 7.81124C7.71932 8.11134 7.86655 9.33287 7.66762 10.7553C7.40805 12.6115 8.84872 14.1814 10.5077 14.0207" stroke="white" stroke-width="0.586364" stroke-linecap="round" stroke-linejoin="round"/>
<path d="M9.76245 7.76611C9.74797 7.86869 9.95016 8.14224 10.2138 8.1788C10.477 8.2155 10.7023 8.00169 10.7166 7.89926C10.7308 7.79673 10.5289 7.68379 10.2652 7.64708C10.0018 7.61037 9.77643 7.66383 9.7625 7.76611H9.76245Z" fill="white" stroke="white" stroke-width="0.195455"/>
<path d="M17.7794 7.94482C17.7936 8.0474 17.5917 8.32095 17.328 8.35751C17.0646 8.39422 16.8393 8.1804 16.8249 8.07797C16.811 7.97544 17.013 7.8625 17.2764 7.82579C17.5399 7.78908 17.7651 7.84254 17.7794 7.94487V7.94482Z" fill="white" stroke="white" stroke-width="0.0977509"/>
<path d="M18.7213 6.84766C18.7647 7.65192 18.5481 8.19972 18.5208 9.05587C18.4803 10.3003 19.1141 11.7247 18.1592 13.1508" stroke="white" stroke-width="0.586364" stroke-linecap="round" stroke-linejoin="round"/>
</g>
<defs>
<clipPath id="clip0_601_1595">
<rect width="23.25" height="23.25" fill="white" transform="translate(0.375 0.375)"/>
</clipPath>
</defs>
</svg>
