<svg width="24" height="24" viewBox="0 0 24 24" fill="none" xmlns="http://www.w3.org/2000/svg">
<path d="M9.7998 5.28984C10.2077 5.2179 10.597 5.49032 10.6689 5.89824L11.1895 8.85234C11.261 9.26003 10.9888 9.6486 10.5811 9.72051L7.62695 10.242C7.21935 10.3136 6.83091 10.0411 6.75879 9.63359C6.68685 9.22569 6.95929 8.83641 7.36719 8.76445L8.46973 8.56914C7.77552 8.05495 6.92584 7.7498 6 7.7498C3.65331 7.7498 1.75016 9.65315 1.75 11.9998C1.75 14.3466 3.65321 16.2498 6 16.2498C7.5975 16.2498 9.07794 15.4108 9.89941 14.0418L11.1865 14.8133C10.094 16.6342 8.12446 17.7498 6 17.7498C2.82479 17.7498 0.25 15.175 0.25 11.9998C0.250158 8.82473 2.82488 6.2498 6 6.2498C7.289 6.2498 8.46362 6.68292 9.41016 7.39922L9.19141 6.15801C9.11971 5.75026 9.39206 5.36181 9.7998 5.28984Z" fill="white"/>
<path d="M18 6.2498C21.1751 6.2498 23.7498 8.82473 23.75 11.9998C23.75 15.175 21.1752 17.7498 18 17.7498C16.0908 17.7498 14.4308 16.8025 13.3945 15.3865C13.1504 15.0524 13.2228 14.5833 13.5566 14.3387C13.8908 14.0942 14.3608 14.1667 14.6055 14.5008C15.3812 15.5608 16.6052 16.2498 18 16.2498C20.3468 16.2498 22.25 14.3466 22.25 11.9998C22.2498 9.65315 20.3467 7.7498 18 7.7498C16.4026 7.7498 14.9221 8.58889 14.1006 9.95781L11.1865 14.8133L9.89941 14.0418L12.8135 9.18633C13.906 7.36557 15.8756 6.2498 18 6.2498Z" fill="white"/>
</svg>
